<?xml version="1.0" encoding="UTF-8"?>
<svg width="48" height="48" viewBox="0 0 48 48" fill="none" xmlns="http://www.w3.org/2000/svg">
<path fill-rule="evenodd" clip-rule="evenodd" d="M16 17.5C16 16.1193 17.1193 15 18.5 15H30C31.3807 15 32.5 16.1193 32.5 17.5V31.75C32.5 32.1642 32.1642 32.5 31.75 32.5H17.5C17.5 33.0523 17.9477 33.5 18.5 33.5H31.75C32.1642 33.5 32.5 33.8358 32.5 34.25C32.5 34.6642 32.1642 35 31.75 35H18.5C17.1193 35 16 33.8807 16 32.5V17.5ZM24.25 21C24.8023 21 25.25 20.5523 25.25 20C25.25 19.4477 24.8023 19 24.25 19C23.6977 19 23.25 19.4477 23.25 20C23.25 20.5523 23.6977 21 24.25 21ZM23.5 22.75L23.5 27.75C23.5 28.1642 23.8358 28.5 24.25 28.5C24.6642 28.5 25 28.1642 25 27.75V22.75C25 22.3358 24.6642 22 24.25 22C23.8358 22 23.5 22.3358 23.5 22.75Z" fill="white"/>
</svg>