<svg width="17" height="20" viewBox="0 0 17 20" fill="none" xmlns="http://www.w3.org/2000/svg">
<path d="M10.1341 12.9224H3.63876C3.53406 12.9224 3.43366 12.9627 3.35963 13.0345C3.28561 13.1064 3.24402 13.2038 3.24402 13.3053C3.24402 13.4069 3.28561 13.5043 3.35963 13.5762C3.43366 13.648 3.53406 13.6883 3.63876 13.6883H10.1341C10.2388 13.6883 10.3392 13.648 10.4133 13.5762C10.4873 13.5043 10.5289 13.4069 10.5289 13.3053C10.5289 13.2038 10.4873 13.1064 10.4133 13.0345C10.3392 12.9627 10.2388 12.9224 10.1341 12.9224Z" fill="#605E5C" stroke="#605E5C" stroke-width="0.8"/>
<path d="M3.63876 11.3905H7.17362C7.27832 11.3905 7.37872 11.3501 7.45275 11.2783C7.52677 11.2065 7.56836 11.1091 7.56836 11.0075C7.56836 10.9059 7.52677 10.8085 7.45275 10.7367C7.37872 10.6649 7.27832 10.6245 7.17362 10.6245H3.63876C3.53406 10.6245 3.43366 10.6649 3.35963 10.7367C3.28561 10.8085 3.24402 10.9059 3.24402 11.0075C3.24402 11.1091 3.28561 11.2065 3.35963 11.2783C3.43366 11.3501 3.53406 11.3905 3.63876 11.3905Z" fill="#605E5C" stroke="#605E5C" stroke-width="0.8"/>
<path d="M10.1341 15.2197H3.63876C3.53406 15.2197 3.43366 15.2601 3.35963 15.3319C3.28561 15.4037 3.24402 15.5011 3.24402 15.6027C3.24402 15.7043 3.28561 15.8017 3.35963 15.8735C3.43366 15.9453 3.53406 15.9857 3.63876 15.9857H10.1341C10.2388 15.9857 10.3392 15.9453 10.4133 15.8735C10.4873 15.8017 10.5289 15.7043 10.5289 15.6027C10.5289 15.5011 10.4873 15.4037 10.4133 15.3319C10.3392 15.2601 10.2388 15.2197 10.1341 15.2197Z" fill="#605E5C" stroke="#605E5C" stroke-width="0.8"/>
<path d="M15.9684 4.49468C15.9682 4.44217 15.9569 4.39025 15.9352 4.34216C15.9135 4.29406 15.8818 4.25082 15.8421 4.21511L12.3941 1.1034C12.3213 1.03728 12.2254 1.00033 12.1257 1H5.73684C5.31808 1 4.91647 1.1614 4.62036 1.44869C4.32425 1.73598 4.15789 2.12563 4.15789 2.53191V4.06383H2.57895C2.16018 4.06383 1.75857 4.22523 1.46246 4.51252C1.16635 4.79981 1 5.18946 1 5.59575V17.4681C1 17.8744 1.16635 18.264 1.46246 18.5513C1.75857 18.8386 2.16018 19 2.57895 19H11.2316C11.6503 19 12.052 18.8386 12.3481 18.5513C12.6442 18.264 12.8105 17.8744 12.8105 17.4681V15.9362H14.3895C14.8082 15.9362 15.2098 15.7748 15.506 15.4875C15.8021 15.2002 15.9684 14.8105 15.9684 14.4043V4.49468ZM12.5204 2.26191L14.571 4.1117H12.5204V2.26191ZM11.2316 18.234H2.57895C2.36957 18.234 2.16876 18.1533 2.02071 18.0097C1.87265 17.8661 1.78947 17.6712 1.78947 17.4681V5.59575C1.78947 5.3926 1.87265 5.19778 2.02071 5.05413C2.16876 4.91049 2.36957 4.82979 2.57895 4.82979H8.57303V7.55851C8.57303 7.66008 8.61461 7.7575 8.68864 7.82932C8.76267 7.90114 8.86307 7.94149 8.96776 7.94149H12.0211V17.4681C12.0211 17.6712 11.9379 17.8661 11.7898 18.0097C11.6418 18.1533 11.441 18.234 11.2316 18.234ZM9.3625 5.32575L11.4132 7.17553H9.3625V5.32575ZM14.3895 15.1702H12.8105V7.55851C12.8104 7.506 12.799 7.45408 12.7773 7.40599C12.7556 7.35789 12.7239 7.31465 12.6842 7.27894L9.23618 4.16723C9.16339 4.10111 9.06749 4.06416 8.96776 4.06383H4.94737V2.53191C4.94737 2.32877 5.03054 2.13395 5.1786 1.9903C5.32665 1.84666 5.52746 1.76596 5.73684 1.76596H11.7309V4.49468C11.7309 4.59625 11.7725 4.69367 11.8465 4.76549C11.9206 4.83731 12.021 4.87766 12.1257 4.87766H15.1789V14.4043C15.1789 14.6074 15.0958 14.8022 14.9477 14.9459C14.7997 15.0895 14.5989 15.1702 14.3895 15.1702Z" fill="#605E5C" stroke="#605E5C" stroke-width="0.8"/>
</svg>
