<svg width="90" height="90" viewBox="0 0 90 90" fill="none" xmlns="http://www.w3.org/2000/svg">
<path d="M45 90C69.8528 90 90 69.8528 90 45C90 20.1472 69.8528 0 45 0C20.1472 0 0 20.1472 0 45C0 69.8528 20.1472 90 45 90Z" fill="#DEECF9"/>
<path d="M81.8369 8.93763V70.7364C73.7038 82.3813 60.2 90 44.9184 90C29.6368 90 16.1331 82.3813 8 70.7362V8.93763C8 4.0022 12.0004 0 16.9359 0H72.8994C77.8345 0 81.8369 4.0022 81.8369 8.93763Z" fill="#A19F9D"/>
<path d="M68.4511 58.3974H21.5526C19.4402 58.3974 17.7278 56.6849 17.7278 54.5726V21.2874C17.7278 19.175 19.4402 17.4625 21.5526 17.4625H68.4511C70.5634 17.4625 72.2759 19.175 72.2759 21.2874V54.5727C72.2761 56.6849 70.5634 58.3974 68.4511 58.3974Z" fill="#8A8886"/>
<path d="M50.6232 23.2484H26.5474C25.1317 23.2484 23.984 24.3959 23.984 25.8118V40.7963C23.984 42.2121 25.1317 43.3598 26.5474 43.3598H50.6232C52.039 43.3598 53.1866 42.2121 53.1866 40.7963V25.8118C53.1868 24.3959 52.039 23.2484 50.6232 23.2484Z" fill="#5C5E70"/>
<path d="M69.0023 23.2492H57.2251V25.8126H69.0023V23.2492Z" fill="#5C5E70"/>
<path d="M66.8217 42.4813H59.4013C58.1978 42.4813 57.2223 41.5059 57.2223 40.3023V29.8368C57.2223 28.6334 58.1977 27.6578 59.4013 27.6578H66.8217C68.0251 27.6578 69.0007 28.6332 69.0007 29.8368V40.3023C69.0005 41.5057 68.0251 42.4813 66.8217 42.4813Z" fill="#5C5E70"/>
<path d="M23.0552 80.8088C23.0552 80.7468 23.076 80.6642 23.0967 80.5812L26.9437 67.9643C27.1711 67.2404 28.1021 66.8887 29.0534 66.8887C30.0046 66.8887 30.9355 67.2404 31.1632 67.9643L35.0309 80.5812C35.0515 80.664 35.0724 80.7466 35.0724 80.8088C35.0724 81.5742 33.8934 82.1326 33.0039 82.1326C32.487 82.1326 32.0734 81.9672 31.9491 81.5327L31.2458 78.9473H26.8815L26.1782 81.5327C26.0542 81.9671 25.6404 82.1326 25.1233 82.1326C24.2344 82.1325 23.0552 81.574 23.0552 80.8088ZM30.5636 76.4653L29.0536 70.922L27.5436 76.4653H30.5636Z" fill="#F9EED7"/>
<path d="M48.0606 67.0129C48.7434 67.0129 49.0329 67.7575 49.0329 68.4401C49.0329 69.226 48.6813 69.9087 48.0606 69.9087H45.2063V81.1398C45.2063 81.8018 44.3996 82.1326 43.5931 82.1326C42.7866 82.1326 41.9798 81.8016 41.9798 81.1398V69.9087H39.1255C38.505 69.9087 38.1534 69.2262 38.1534 68.4401C38.1534 67.7575 38.4429 67.0129 39.1255 67.0129H48.0606Z" fill="#F9EED7"/>
<path d="M61.7313 76.7746C61.4623 77.2297 61.0487 77.3746 60.6558 77.3746C60.2835 77.3746 59.8905 77.2505 59.6421 76.7746L57.6774 73.1757V81.1388C57.6774 81.8008 56.8706 82.1316 56.0641 82.1316C55.2576 82.1316 54.4509 81.8006 54.4509 81.1388V68.6252C54.4509 67.4462 55.2576 67.0119 56.0641 67.0119C57.2225 67.0119 57.7187 67.136 58.5668 68.6252L60.6973 72.3483L62.8278 68.6252C63.6758 67.136 64.1724 67.0119 65.3306 67.0119C66.158 67.0119 66.9439 67.4462 66.9439 68.6252V81.1388C66.9439 81.8008 66.1371 82.1316 65.3306 82.1316C64.5241 82.1316 63.7174 81.8006 63.7174 81.1388V73.3824L61.7313 76.7746Z" fill="#F9EED7"/>
<path d="M28.6254 49.458H25.0642C24.4664 49.458 23.9818 48.9736 23.9818 48.3756V46.2548C23.9818 45.6569 24.4662 45.1723 25.0642 45.1723H28.6254C29.2232 45.1723 29.7079 45.6567 29.7079 46.2548V48.3756C29.7081 48.9736 29.2232 49.458 28.6254 49.458Z" fill="#F9EED7"/>
<path d="M28.6254 55.5594H25.0642C24.4664 55.5594 23.9818 55.0749 23.9818 54.4769V52.3561C23.9818 51.7582 24.4662 51.2736 25.0642 51.2736H28.6254C29.2232 51.2736 29.7079 51.7581 29.7079 52.3561V54.4769C29.7081 55.0747 29.2232 55.5594 28.6254 55.5594Z" fill="#F9EED7"/>
<path d="M36.1659 49.458H32.6047C32.0069 49.458 31.5223 48.9736 31.5223 48.3756V46.2548C31.5223 45.6569 32.0067 45.1723 32.6047 45.1723H36.1659C36.7637 45.1723 37.2484 45.6567 37.2484 46.2548V48.3756C37.2482 48.9736 36.7637 49.458 36.1659 49.458Z" fill="#F9EED7"/>
<path d="M36.1659 55.5594H32.6047C32.0069 55.5594 31.5223 55.0749 31.5223 54.4769V52.3561C31.5223 51.7582 32.0067 51.2736 32.6047 51.2736H36.1659C36.7637 51.2736 37.2484 51.7581 37.2484 52.3561V54.4769C37.2482 55.0747 36.7637 55.5594 36.1659 55.5594Z" fill="#F9EED7"/>
<path d="M43.9974 49.458H40.4362C39.8384 49.458 39.3538 48.9736 39.3538 48.3756V46.2548C39.3538 45.6569 39.8382 45.1723 40.4362 45.1723H43.9974C44.5952 45.1723 45.0798 45.6567 45.0798 46.2548V48.3756C45.0798 48.9736 44.5952 49.458 43.9974 49.458Z" fill="#F9EED7"/>
<path d="M43.9974 55.5594H40.4362C39.8384 55.5594 39.3538 55.0749 39.3538 54.4769V52.3561C39.3538 51.7582 39.8382 51.2736 40.4362 51.2736H43.9974C44.5952 51.2736 45.0798 51.7581 45.0798 52.3561V54.4769C45.0798 55.0747 44.5952 55.5594 43.9974 55.5594Z" fill="#F9EED7"/>
<path d="M52.1022 49.458H48.541C47.9432 49.458 47.4586 48.9736 47.4586 48.3756V46.2548C47.4586 45.6569 47.943 45.1723 48.541 45.1723H52.1022C52.7 45.1723 53.1847 45.6567 53.1847 46.2548V48.3756C53.1847 48.9736 52.6999 49.458 52.1022 49.458Z" fill="#F9EED7"/>
<path d="M52.1022 55.5594H48.541C47.9432 55.5594 47.4586 55.0749 47.4586 54.4769V52.3561C47.4586 51.7582 47.943 51.2736 48.541 51.2736H52.1022C52.7 51.2736 53.1847 51.7581 53.1847 52.3561V54.4769C53.1847 55.0747 52.6999 55.5594 52.1022 55.5594Z" fill="#F9EED7"/>
</svg>
