<svg width="1456" height="187" viewBox="0 0 1456 187" fill="none" xmlns="http://www.w3.org/2000/svg">
<mask id="mask0" mask-type="alpha" maskUnits="userSpaceOnUse" x="8" y="0" width="1440" height="175">
<path d="M8 0H1448V175H8V0Z" fill="white"/>
</mask>
<g mask="url(#mask0)">
<path d="M1394.24 91.107C1435.13 60.0631 1469.12 78.1721 1481 91.107V189.015L1140 192C1147.85 178.07 1171.61 138.389 1203.9 91.107C1236.18 43.8247 1281.02 71.4061 1299.4 91.107C1313.98 104.042 1353.34 122.151 1394.24 91.107Z" fill="#C1E5FF"/>
<path d="M1552 220V45C1519.05 62.2535 1441.81 45 1396.48 45C1339.82 45 1272.31 116.479 1243.38 137.019C1214.44 157.559 1138.49 164.131 1027.58 153.451C938.854 144.906 906.224 194.257 901 220H1552Z" fill="#D8EFFF" fill-opacity="0.8"/>
<path d="M42.3254 114.557C-20.5132 90.1127 -72.741 104.372 -91 114.557V191.65L433 194C420.942 183.032 384.424 151.787 334.815 114.557C285.205 77.3265 216.303 99.0441 188.053 114.557C165.66 124.742 105.164 139.001 42.3254 114.557Z" fill="#D8EFFF" fill-opacity="0.8"/>
</g>
</svg>
