<svg width="352" height="108" viewBox="0 0 352 108" fill="none" xmlns="http://www.w3.org/2000/svg">
<mask id="mask0" mask-type="alpha" maskUnits="userSpaceOnUse" x="0" y="0" width="344" height="96">
<rect width="344" height="96" rx="12" fill="white"/>
</mask>
<g mask="url(#mask0)">
<path d="M324.716 33.8844C352.658 12.618 375.881 25.0234 384 33.8844V100.955L151 103C156.362 93.4574 172.6 66.2746 194.659 33.8844C216.718 1.49406 247.356 20.3884 259.917 33.8844C269.874 42.7453 296.774 55.1507 324.716 33.8844Z" fill="#C1E5FF"/>
<path d="M349 111V24C332.651 32.5775 294.329 24 271.839 24C243.726 24 210.23 59.5352 195.874 69.7465C181.519 79.9577 143.835 83.2254 88.8055 77.9155C44.7818 73.6676 28.592 98.2019 26 111H349Z" fill="#004578" fill-opacity="0.4"/>
</g>
</svg>