<svg width="16" height="16" viewBox="0 0 16 16" fill="none" xmlns="http://www.w3.org/2000/svg">
<path fill-rule="evenodd" clip-rule="evenodd" d="M9.88575 8.00014L15.5426 13.657C16.0633 14.1777 16.0633 15.0219 15.5426 15.5426C15.0219 16.0633 14.1777 16.0633 13.657 15.5426L8.00014 9.88575L2.34328 15.5426C1.82258 16.0633 0.978362 16.0633 0.457663 15.5426C-0.0630361 15.0219 -0.0630361 14.1777 0.457663 13.657L6.11452 8.00014L0.457663 2.34328C-0.0630361 1.82258 -0.0630361 0.978362 0.457663 0.457663C0.978362 -0.0630361 1.82258 -0.0630361 2.34328 0.457663L8.00014 6.11452L13.657 0.457663C14.1777 -0.0630361 15.0219 -0.0630361 15.5426 0.457663C16.0633 0.978362 16.0633 1.82258 15.5426 2.34328L9.88575 8.00014Z" fill="#605E5C"/>
</svg>
