<svg width="16" height="14" viewBox="0 0 16 14" fill="none" xmlns="http://www.w3.org/2000/svg">
<path d="M8.54887 0C5.51013 0 2.89818 1.81113 1.8252 4.38787L1.39757 3.64798C1.34267 3.54675 1.26006 3.46246 1.15898 3.40451C1.0579 3.34656 0.942333 3.31725 0.825197 3.31985C0.715536 3.32225 0.608402 3.35252 0.514341 3.4077C0.420281 3.46289 0.342536 3.54108 0.28876 3.63457C0.234984 3.72806 0.207031 3.83364 0.207652 3.94091C0.208273 4.04817 0.237447 4.15343 0.292302 4.24632L1.4502 6.27299C1.53069 6.41263 1.66354 6.5162 1.82067 6.56182C1.97781 6.60744 2.14693 6.59155 2.2923 6.51748L4.35151 5.48805C4.42889 5.45336 4.4983 5.40374 4.55557 5.34216C4.61284 5.28058 4.65679 5.20831 4.68479 5.1297C4.71279 5.0511 4.72425 4.96777 4.71849 4.88472C4.71273 4.80167 4.68986 4.72062 4.65127 4.64643C4.61267 4.57224 4.55914 4.50643 4.49388 4.45298C4.42863 4.39954 4.35301 4.35954 4.27155 4.33539C4.19009 4.31124 4.10448 4.30344 4.01987 4.31246C3.93525 4.32148 3.85337 4.34713 3.77914 4.38787L3.02257 4.76746C3.92726 2.69755 6.05894 1.23529 8.54887 1.23529C11.8648 1.23529 14.5291 3.8134 14.5291 7C14.5291 10.1866 11.8648 12.7647 8.54887 12.7647C5.71226 12.7647 3.3494 10.861 2.72651 8.32537C2.68725 8.16582 2.58479 8.02807 2.44167 7.9424C2.29855 7.85674 2.12649 7.83018 1.96335 7.86858C1.80021 7.90697 1.65934 8.00717 1.57174 8.14713C1.48414 8.28709 1.45699 8.45536 1.49625 8.6149C2.25507 11.7039 5.13447 14 8.54887 14C12.5384 14 15.7923 10.8631 15.7923 7C15.7923 3.13685 12.5384 0 8.54887 0ZM8.62782 3.07537C8.54432 3.07621 8.46182 3.09323 8.38509 3.12546C8.30836 3.15768 8.23892 3.20447 8.1808 3.2631C8.12268 3.32174 8.07703 3.39106 8.04648 3.46706C8.01593 3.54307 8.00109 3.62424 8.00283 3.70588V7C8.00277 7.09265 8.02403 7.18414 8.06503 7.26767C8.10603 7.3512 8.16571 7.42464 8.23967 7.48255L10.3449 9.12961C10.4097 9.18031 10.4841 9.21804 10.5638 9.24063C10.6435 9.26322 10.727 9.27025 10.8095 9.26129C10.8919 9.25233 10.9718 9.22756 11.0445 9.18842C11.1172 9.14927 11.1813 9.09651 11.2331 9.03314C11.285 8.96977 11.3235 8.89703 11.3466 8.81908C11.3697 8.74113 11.3769 8.6595 11.3677 8.57884C11.3586 8.49818 11.3332 8.42008 11.2932 8.34899C11.2532 8.27791 11.1992 8.21523 11.1344 8.16453L9.26599 6.70404V3.70588C9.26775 3.62315 9.25249 3.54091 9.22112 3.46406C9.18976 3.38721 9.14292 3.3173 9.0834 3.25849C9.02388 3.19968 8.95288 3.15317 8.87461 3.12171C8.79635 3.09025 8.71243 3.07449 8.62782 3.07537Z" fill="#A19F9D"/>
</svg>
