<svg width="208" height="225" viewBox="0 0 208 225" fill="none" xmlns="http://www.w3.org/2000/svg">
<path d="M177.243 85.7438C177.243 85.7438 170.031 69.4164 178.398 70.7547C178.398 70.7547 181.247 73.1074 184.172 77.9013C186.387 81.5335 190.991 91.1452 190.82 94.3973C190.648 97.6494 188.334 100.072 185.838 105.291C185.838 105.291 178.544 119.084 178.327 120.253L174.935 113.3C174.935 113.3 179.587 104.036 182.865 95.9016L177.243 85.7438Z" fill="#0F5EA9"/>
<path d="M207.03 141.897L122.166 93.8389L114.817 106.808L199.682 154.867L207.03 141.897Z" fill="url(#paint0_linear)"/>
<path d="M121.285 95.3923L117.204 93.0869L111.637 102.937L115.718 105.242L121.285 95.3923Z" fill="#2D3038"/>
<path d="M135.497 224.099H134.123C134.123 224.099 134.579 218.963 133.32 218.912C132.061 218.861 128.938 223.093 127.071 223.749C125.204 224.405 115.632 224.956 115.584 223.192C115.536 221.428 119.261 220.724 120.421 220.224C121.581 219.723 127.224 214.228 128.231 213.575C129.238 212.922 130.96 208.369 130.96 208.369L136.317 208.131C136.317 208.131 136.619 212.384 136.944 214.638C137.055 215.336 137.129 216.04 137.163 216.747C137.209 218.661 135.497 224.099 135.497 224.099Z" fill="#EEA886"/>
<path d="M169.928 223.082H168.793V218.299C167.85 218.38 164.674 221.383 163.704 222.253C162.735 223.123 161.374 223.082 157.236 223.345C153.098 223.607 152.707 221.131 153.36 220.288C154.014 219.445 156.132 219.078 157.236 218.551C158.339 218.024 162.684 213.125 163.843 211.966C165.003 210.807 165.718 207.488 165.718 207.488L170.558 207.909C170.554 209.782 170.727 211.652 171.078 213.492C171.078 213.492 171.078 213.492 171.078 213.511C171.123 213.728 171.174 213.942 171.23 214.148C171.932 216.803 169.928 223.082 169.928 223.082Z" fill="#EEA886"/>
<path d="M152.041 114.709C152.041 114.709 150.212 119.029 150.051 120.121C149.891 121.213 145.611 131.553 144.373 138.523C143.631 142.696 141.585 155.761 141.427 157.42C141.143 160.263 139.804 166.537 139.598 169.441C139.483 171.063 131.485 195.977 129.549 208.983C129.549 208.983 134.147 209.665 137.605 208.752C137.605 208.752 144.625 195.308 148.525 176.242C150.874 164.757 152.952 158.633 154.771 153.903C156.589 149.173 166.893 135.779 167.969 134.275C169.046 132.771 175.782 124.452 169.402 115.442C163.023 106.433 152.041 114.709 152.041 114.709Z" fill="#292C47"/>
<path d="M175.073 152.978C174.49 156.856 175.103 161.953 176.322 176.136C177.54 190.32 174.179 207.493 174.179 207.493C169.969 208.933 165.115 207.493 165.115 207.493C165.228 206.494 165.115 172.922 165.115 169.932C165.115 166.942 164.256 163.543 164.044 160.111C163.891 157.769 162.801 153.454 161.577 149.051C161.21 147.732 160.83 146.407 160.46 145.122C160.254 144.402 160.051 143.693 159.853 143.01C158.125 137.025 155.806 113.923 155.806 113.923C155.806 113.923 168.662 103.565 174.937 113.316C181.212 123.067 177.985 130.157 177.762 131.375C177.54 132.593 175.657 149.102 175.073 152.978Z" fill="#292C47"/>
<path d="M169.746 132.141C169.647 132.361 163.235 146.595 161.585 149.05C161.218 147.73 160.838 146.405 160.468 145.12C160.468 145.12 169.529 132.452 169.746 132.141Z" fill="#191B2B"/>
<path d="M169.929 223.081H168.793V218.298C167.85 218.378 164.674 221.381 163.704 222.251C162.735 223.121 161.374 223.081 157.236 223.343C153.098 223.606 152.707 221.13 153.36 220.287C154.014 219.444 156.133 219.077 157.236 218.55C161.663 218.785 167.066 212.565 169.658 212.578C171.037 212.578 171.024 213.349 171.067 213.491C171.067 213.491 171.067 213.491 171.067 213.509C171.112 213.726 171.163 213.94 171.22 214.147C171.932 216.802 169.929 223.081 169.929 223.081Z" fill="#002346"/>
<path d="M135.497 224.098H134.123C134.123 224.098 134.579 218.962 133.32 218.911C132.061 218.86 128.938 223.092 127.071 223.748C125.205 224.404 115.632 224.955 115.584 223.191C115.536 221.427 119.261 220.723 120.421 220.223C124.369 220.223 130.792 215.868 132.784 214.987C134.777 214.107 136.93 214.637 136.93 214.637C137.042 215.335 137.115 216.039 137.15 216.746C137.209 218.66 135.497 224.098 135.497 224.098Z" fill="#002346"/>
<path d="M163.397 60.474C163.397 60.474 165.448 65.9048 163.852 70.1098C163.852 70.1098 171.381 69.62 171.665 68.742C171.949 67.8641 171.362 59.7299 172.399 57.3263C173.435 54.9227 163.397 60.474 163.397 60.474Z" fill="#EEA886"/>
<path d="M162.676 68.2618C162.676 68.2618 158.227 69.8437 156.219 70.2826C154.21 70.7216 150.002 72.713 150.342 80.2076C150.683 87.7021 151.949 94.2036 152.397 97.4236C152.844 100.644 152.568 108.842 151.826 112.825C151.826 112.825 162.491 115.518 175.037 112.825C175.037 112.825 172.814 106.032 172.87 104.276C172.926 102.52 180.284 88.0554 180.637 85.7696C180.991 83.4838 182.464 73.4143 179.097 71.19C175.73 68.9657 172.996 69.2575 171.571 68.2618C170.146 67.2661 164.757 67.5471 162.676 68.2618Z" fill="#0F5EA9"/>
<path d="M179.836 124.604C161.624 129.422 147.115 124.623 147.115 124.623C148.37 122.041 149.374 119.346 150.115 116.574C150.592 114.796 150.966 112.993 151.237 111.172C152.718 101.25 150.787 93.6539 150.787 93.6539C152.89 76.3575 179.081 71.1944 181.181 76.6761C183.281 82.1578 177.115 105.726 176.802 107.746C176.488 109.767 179.836 124.604 179.836 124.604Z" fill="#0F5EA9"/>
<path d="M169.958 38.6913C166.931 37.6555 158.752 36.55 156.657 49.0981C154.563 61.6461 159.127 61.8629 163.814 61.5069C168.501 61.1509 175.84 52.674 176.402 50.1045C176.964 47.5349 178.596 41.6517 169.958 38.6913Z" fill="#EEA886"/>
<path d="M158.345 43.5155C158.345 43.5155 160.844 48.8687 164.122 50.7209C164.122 50.7209 166.176 56.3953 170.622 58.6919C170.622 58.6919 182.423 50.8788 175.575 41.5963C168.726 32.3138 159.119 39.7066 158.345 43.5155Z" fill="#0F324F"/>
<path d="M163.831 48.8664C164.099 48.2133 165.864 47.1507 166.657 48.9413C167.449 50.732 164.602 53.8877 163.823 53.7191C163.044 53.5505 162.824 51.3423 163.831 48.8664Z" fill="#EEA886"/>
<path d="M175.171 43.0267C175.439 42.6252 183.243 39.0118 184.869 46.5652C186.495 54.1187 178.575 62.8926 177.188 66.6774C175.8 70.4621 177.814 79.3084 177.814 79.3084C177.814 79.3084 173.05 74.8063 171.609 70.0954C170.026 64.9215 169.493 51.8756 175.171 43.0267Z" fill="#0F324F"/>
<path d="M175.568 42.7714C175.568 42.7714 173.176 44.6611 172.868 47.6455C172.868 47.6455 172.418 45.3195 173.383 43.8982C174.347 42.4769 175.568 42.7714 175.568 42.7714Z" fill="#E54242"/>
<path d="M150.119 116.566C150.617 114.713 151.265 110.656 151.525 108.916C151.525 108.916 152.623 108.113 152.848 107.39C153.239 106.167 156.268 91.175 156.268 91.175C156.268 91.175 159.461 105.259 150.119 116.566Z" fill="#1D3B54"/>
<path d="M137.004 112.928C137.004 112.928 133.747 114.44 132.987 114.673C132.226 114.906 130.764 113.602 125.369 113.217C124.895 113.179 124.062 113.608 124.258 114.231C124.453 114.855 126.802 116.56 127.807 116.82C128.811 117.079 133.554 118.961 135.863 118.037C138.172 117.114 139.747 114.175 139.747 114.175L137.004 112.928Z" fill="#EEA886"/>
<path d="M154.952 70.6918C154.952 70.6918 148.712 73.165 148.342 81.8319C147.972 90.4989 147.635 95.0224 147.295 96.358C146.955 97.6936 146.309 103.074 144.74 106.31C143.216 109.447 133.18 114.409 133.18 114.409L136.233 118.29C136.233 118.29 151.995 109.95 152.839 107.394C153.683 104.838 157.17 87.0513 157.448 84.0562C157.687 81.6392 160.863 70.8712 154.952 70.6918Z" fill="#0F5EA9"/>
<path opacity="0.3" d="M109.557 48.2243C109.557 48.2243 56.6421 21.4121 24.5434 75.862C23.0254 65.2895 25.2888 54.5222 30.9349 45.457C36.5811 36.3917 45.2477 29.6102 55.4079 26.3071C65.5682 23.0041 76.5703 23.3913 86.4759 27.4007C96.3815 31.4101 104.555 38.7843 109.557 48.2243Z" fill="#869AC2"/>
<path d="M111.268 87.1052C111.189 87.3243 111.088 87.5327 110.994 87.7463L119.395 90.7724C119.489 90.5588 119.575 90.3449 119.661 90.1286L111.268 87.1052ZM18.3998 51.0342C18.3091 51.2861 18.2184 51.5379 18.1276 51.7897C17.7458 52.8499 17.4237 53.9259 17.137 55.0062C16.2927 58.0262 15.7183 61.1154 15.4205 64.2372C14.4847 73.9491 16.2 83.734 20.3837 92.5514C20.545 92.894 20.7063 93.2366 20.8739 93.5615C21.5354 94.8866 22.2422 96.1881 23.0108 97.4607C29.4339 108.142 39.3556 116.276 51.0925 120.48C51.2941 120.553 51.4982 120.627 51.7023 120.7C60.6752 123.826 70.3137 124.529 79.6436 122.739C92.4361 120.295 103.927 113.349 112.032 103.161C112.864 102.107 113.656 101.024 114.424 99.9036C115.789 97.8861 117.016 95.7792 118.099 93.5971C118.328 93.1276 118.557 92.6556 118.774 92.1731C118.99 91.6906 119.199 91.2537 119.395 90.7809C119.489 90.5672 119.574 90.3534 119.661 90.137C119.857 89.6642 120.043 89.1937 120.224 88.7155C120.33 88.4208 120.436 88.1287 120.542 87.8341C129.745 62.284 118.583 34.3516 95.4027 21.783C94.9562 21.5368 94.5069 21.2982 94.0449 21.0635C93.54 20.8133 93.0351 20.5632 92.5223 20.3273C92.0649 20.1113 91.5963 19.9027 91.1309 19.7009C90.0595 19.2296 88.9616 18.8 87.8554 18.4016C86.913 18.0621 85.9699 17.748 85.0236 17.4669C83.4036 16.9773 81.7755 16.5815 80.1435 16.244C71.0713 14.4314 61.6876 14.9597 52.8783 17.779C44.0691 20.5982 36.125 25.6153 29.7961 32.3567C29.6606 32.4957 29.53 32.6449 29.403 32.7841C29.276 32.9233 29.1509 33.0574 29.0358 33.1952C28.3034 33.9954 27.5959 34.8217 26.9344 35.6702C25.171 37.8901 23.5871 40.2468 22.198 42.7181C21.8198 43.3728 21.4667 44.045 21.1108 44.7248C21.0673 44.8457 20.9974 44.9684 20.9397 45.0813C20.9397 45.0813 20.9342 45.0965 20.9288 45.1116C20.8984 45.1685 20.8715 45.2272 20.8484 45.2874C20.809 45.3512 20.7738 45.4174 20.7428 45.4856L20.7238 45.5384C20.7021 45.5696 20.6842 45.6033 20.6706 45.6388C20.6429 45.6881 20.6187 45.7393 20.5983 45.792C20.5369 45.915 20.4774 46.0329 20.4226 46.1611C20.0649 46.9171 19.7197 47.686 19.397 48.4631C19.3589 48.5689 19.303 48.6768 19.2649 48.7825L19.0554 49.2931C18.8209 49.8649 18.5982 50.4438 18.3872 51.0297L18.3998 51.0342ZM24.1275 71.0377L24.1124 70.4633C24.1021 70.0414 24.0984 69.6247 24.0984 69.1979L24.1166 68.1831C24.1218 67.9318 24.1278 67.6779 24.1414 67.4268C24.1468 67.4117 24.1523 67.3965 24.1426 67.376C24.1413 67.3294 24.1438 67.2827 24.1502 67.2365C24.1653 66.8152 24.1955 66.3993 24.2328 65.9718L24.2715 65.485C24.305 65.0362 24.3555 64.5878 24.4069 64.1369C24.4205 64.0991 24.4141 64.0456 24.4229 63.9976C24.4776 63.5848 24.5287 63.1822 24.5855 62.7559C24.6048 62.5837 24.6317 62.4142 24.6611 62.2455C24.7437 61.7319 24.8365 61.2134 24.9352 60.6942C25.1076 59.789 25.3214 58.8873 25.553 57.9835C25.6288 57.678 25.7141 57.3701 25.8003 57.0598C25.8356 56.9616 25.8683 56.8709 25.8885 56.7673C26.0119 56.3536 26.1362 55.9375 26.2671 55.5266L26.3106 55.4058C26.3433 55.3151 26.3786 55.2169 26.414 55.1187C26.541 54.7661 26.6689 54.411 26.7959 54.0585C26.9229 53.7059 27.0345 53.3962 27.1515 53.0714C27.6447 51.77 28.2064 50.4956 28.8341 49.2535C28.8909 49.1205 28.9547 48.9906 29.0255 48.8644C29.0252 48.8603 29.0257 48.8561 29.0271 48.8522C29.0286 48.8483 29.0308 48.8447 29.0337 48.8418C29.0326 48.8398 29.0319 48.8375 29.0317 48.8353C29.0315 48.833 29.0319 48.8307 29.0326 48.8286C29.0334 48.8264 29.0346 48.8245 29.0362 48.8228C29.0378 48.8212 29.0397 48.8199 29.0418 48.8191C29.0476 48.79 29.0577 48.762 29.0718 48.736L29.0772 48.7209C29.0826 48.7058 29.0854 48.6982 29.0881 48.6907C32.121 42.7648 36.4317 37.5858 41.7097 33.527C47.7559 28.8719 54.8768 25.8115 62.4173 24.6273C64.4194 24.3066 66.4414 24.1252 68.4687 24.0844C69.1121 24.0686 69.767 24.0683 70.4171 24.0891C74.1104 24.1629 77.7801 24.6991 81.3404 25.6851C82.5071 25.9944 83.6599 26.3584 84.814 26.7741C85.1592 26.8985 85.4994 27.021 85.8392 27.1605C86.2398 27.3048 86.6223 27.4681 87.0175 27.6276C87.2968 27.7452 87.5759 27.8714 87.855 27.9975C87.9321 28.0264 88.0077 28.0594 88.0814 28.0961C88.5467 28.2979 89.0117 28.5166 89.4673 28.7376L89.8138 28.9136C89.9946 29.0043 90.1805 29.0969 90.3586 29.1952C90.5367 29.2935 90.7704 29.4033 90.9735 29.5191C91.4329 29.7614 91.8767 30.0151 92.3205 30.2688L92.4408 30.3378C92.7868 30.5392 93.1274 30.7473 93.4679 30.9638L93.5305 31.0034C93.6717 31.0856 93.8144 31.1796 93.9519 31.2719C94.2725 31.4727 94.5802 31.6774 94.8868 31.8931C95.0259 31.9768 95.1603 32.0679 95.2895 32.1662C95.6445 32.4135 95.997 32.66 96.3474 32.9199C96.6979 33.1799 97.0217 33.4188 97.336 33.6686C97.4908 33.7841 97.6429 33.9072 97.7774 34.0239C98.425 34.5417 99.0596 35.0718 99.6691 35.6242C99.8385 35.7706 100.003 35.921 100.17 36.0749C100.426 36.3123 100.674 36.541 100.926 36.7909C101.14 36.9874 101.331 37.1758 101.522 37.3786C101.818 37.6643 102.103 37.9633 102.387 38.2589C102.709 38.5969 103.02 38.9363 103.321 39.284C103.673 39.6752 104.01 40.0669 104.341 40.4678C105.034 41.2864 105.68 42.142 106.303 43.0122C106.567 43.392 106.827 43.7531 107.079 44.1453C107.403 44.6121 107.708 45.086 107.991 45.5636C108.254 45.9882 108.516 46.4238 108.765 46.8609C109.015 47.2979 109.278 47.7623 109.519 48.222C112.481 53.8015 114.242 59.9386 114.688 66.2383C115.134 72.538 114.256 78.8608 112.109 84.7996C112.003 85.0942 111.898 85.3864 111.792 85.681C111.619 86.162 111.425 86.6297 111.221 87.0998C111.142 87.3189 111.041 87.5274 110.947 87.741C110.736 88.2084 110.527 88.6707 110.304 89.1251C109.68 90.4308 108.998 91.6941 108.258 92.9147C107.459 94.2404 106.591 95.5229 105.656 96.7568C104.922 97.7357 104.145 98.6822 103.338 99.5805C97.3905 106.265 89.5965 111.039 80.9376 113.303C72.2786 115.568 63.1419 115.22 54.6782 112.304C54.4741 112.23 54.27 112.157 54.0684 112.084C46.3159 109.295 39.4688 104.449 34.2621 98.0654C29.0553 91.682 25.6856 84.0026 24.5145 75.8514C24.4561 75.4207 24.3994 74.9934 24.3485 74.5654L24.2653 73.7531C24.2272 73.4321 24.2084 73.1209 24.178 72.7942L24.155 72.4787C24.1399 72.1887 24.1166 71.9214 24.1082 71.6367L24.1275 71.0377Z" fill="#3F444F"/>
<defs>
<linearGradient id="paint0_linear" x1="160.691" y1="70.9262" x2="160.924" y2="130.24" gradientUnits="userSpaceOnUse">
<stop stop-color="#40D5E6"/>
<stop offset="1" stop-color="#5577FF"/>
</linearGradient>
</defs>
</svg>
