<svg width="90" height="90" viewBox="0 0 90 90" fill="none" xmlns="http://www.w3.org/2000/svg">
<g clip-path="url(#clip0)">
<path d="M44.9983 90.0001C69.7538 90.0001 89.8221 69.8925 89.8221 45.0884C89.8221 20.2844 69.7538 0.176781 44.9983 0.176781C20.2429 0.176781 0.174561 20.2844 0.174561 45.0884C0.174561 69.8925 20.2429 90.0001 44.9983 90.0001Z" fill="#DEECF9"/>
<path d="M51.4839 89.5288C54.7552 88.3827 57.1086 85.2607 57.1086 81.5968C57.1086 64.265 57.1086 25.2427 57.1086 8.4008C57.1086 3.7681 53.3468 -0.000999451 48.7231 -0.000999451H17.2425C12.6186 -0.000647889 8.85687 3.76845 8.85687 8.40115C8.85687 11.0488 8.85687 68.8218 8.85687 71.6512V71.6522C18.734 85.1193 35.0612 91.9136 51.4839 89.5288Z" fill="#666666"/>
<path d="M8.85687 8.4028V71.6528C10.2626 73.5699 11.8168 75.3704 13.5021 77.0387V8.4028C13.5021 3.77009 17.2638 0.000999451 21.8875 0.000999451H17.2425C12.6186 0.000999451 8.85687 3.77009 8.85687 8.4028Z" fill="#5A5B5B"/>
<path d="M48.7234 4.65408H44.4039C43.8497 4.65408 43.4005 5.10425 43.4005 5.65937V6.9452C43.4005 8.13805 42.4264 9.11416 41.2358 9.11416H24.7301C23.5396 9.11416 22.5654 8.13823 22.5654 6.9452V6.0561C22.5654 5.28179 21.9389 4.65408 21.166 4.65408H17.2426C15.1772 4.65408 13.503 6.33155 13.503 8.40085V77.0375C16.7957 80.2968 20.5889 83.0495 24.7577 85.1679H48.7234C50.7886 85.1679 52.4627 83.4904 52.4627 81.4211V8.40085C52.4627 6.33155 50.7886 4.65408 48.7234 4.65408Z" fill="#F9F6ED"/>
<path d="M17.2436 4.65494C15.1781 4.65494 13.504 6.33241 13.504 8.40171V77.0384C14.9037 78.4239 16.394 79.7178 17.9651 80.9103V8.40171C17.9651 6.44474 19.4631 4.84039 21.3727 4.67164C21.155 4.63947 21.3862 4.66197 17.2436 4.65494Z" fill="#EAE4D6"/>
<path d="M38.4262 6.00882H31.3622C30.615 6.00882 30.0092 5.40203 30.0092 4.6532C30.0092 3.90437 30.615 3.29758 31.3622 3.29758H38.4262C39.1734 3.29758 39.7792 3.90437 39.7792 4.6532C39.7792 5.40203 39.1734 6.00882 38.4262 6.00882Z" fill="#7F7E7D"/>
<path d="M26.3578 5.78113C25.3893 5.14322 25.6239 3.58387 26.843 3.32477C27.6723 3.15338 28.4612 3.79691 28.4612 4.65314C28.4612 5.28279 28.0276 5.84705 27.3715 5.98345C27.2851 5.9998 26.6331 5.96763 26.3578 5.78113Z" fill="#7F7E7D"/>
<path d="M22.21 81.2426H18.5909C18.2586 81.2426 17.9869 80.9708 17.9869 80.6386V77.0099C17.9869 76.6777 18.2586 76.4059 18.5909 76.4059H22.21C22.5422 76.4059 22.814 76.6777 22.814 77.0099V80.6386C22.814 80.9708 22.5422 81.2426 22.21 81.2426Z" fill="#0EB0FF"/>
<path d="M30.732 81.2426H27.1129C26.7806 81.2426 26.5089 80.9708 26.5089 80.6386V77.0099C26.5089 76.6777 26.7806 76.4059 27.1129 76.4059H30.732C31.0642 76.4059 31.336 76.6777 31.336 77.0099V80.6386C31.336 80.9708 31.0641 81.2426 30.732 81.2426Z" fill="#FFC30A"/>
<path d="M39.2563 81.2426H35.6371C35.3049 81.2426 35.0331 80.9708 35.0331 80.6386V77.0099C35.0331 76.6777 35.3049 76.4059 35.6371 76.4059H39.2563C39.5885 76.4059 39.8603 76.6777 39.8603 77.0099V80.6386C39.8603 80.9708 39.5885 81.2426 39.2563 81.2426Z" fill="#E0D5BD"/>
<path d="M47.7773 81.2426H44.1582C43.8259 81.2426 43.5542 80.9708 43.5542 80.6386V77.0099C43.5542 76.6777 43.8259 76.4059 44.1582 76.4059H47.7773C48.1095 76.4059 48.3813 76.6777 48.3813 77.0099V80.6386C48.3813 80.9708 48.1095 81.2426 47.7773 81.2426Z" fill="#FE3F4E"/>
<path d="M89.8076 60.0947C89.8076 56.5645 89.8076 39.2339 89.8076 36.2818V32.9735V25.4676C89.8076 24.4708 88.992 23.6551 87.9951 23.6551H87.3514C84.7655 23.6551 30.3861 23.6551 27.571 23.6551C26.5741 23.6551 25.7585 24.4708 25.7585 25.4676V32.9735C25.7585 35.2876 25.7585 37.276 25.7585 39.5902V60.0947C25.7585 61.0915 26.5741 61.9072 27.571 61.9072H36.2584H36.967C37.8204 61.9072 86.2352 61.9072 87.9953 61.9072C88.992 61.9072 89.8076 61.0915 89.8076 60.0947Z" fill="#0EB0FF"/>
<path d="M89.8076 60.0947C89.8076 56.5645 89.8076 39.2339 89.8076 36.2818V32.9735V25.4676C89.8076 24.4708 88.992 23.6551 87.9951 23.6551H87.3514C84.7655 23.6551 30.3861 23.6551 27.571 23.6551C26.5741 23.6551 25.7585 24.4708 25.7585 25.4676V32.9735C25.7585 35.2876 25.7585 37.276 25.7585 39.5902V60.0947C25.7585 61.0915 26.5741 61.9072 27.571 61.9072H36.2584H36.967C37.8204 61.9072 86.2352 61.9072 87.9953 61.9072C88.992 61.9072 89.8076 61.0915 89.8076 60.0947Z" fill="#E9E005"/>
<path d="M35.294 60.0955C35.294 55.7441 35.294 29.7983 35.294 25.4686C35.294 24.4718 36.1096 23.6561 37.1065 23.6561C34.2073 23.6561 30.4632 23.6561 27.5732 23.6561C26.5763 23.6561 25.7607 24.4718 25.7607 25.4686C25.7607 27.0348 25.7607 59.3049 25.7607 60.0955C25.7607 61.0924 26.5763 61.908 27.5732 61.908H36.2606H36.9692H37.1065C36.1096 61.908 35.294 61.0924 35.294 60.0955Z" fill="#F0CA00"/>
<path d="M74.8952 53.9773C73.491 51.5453 74.1472 48.491 76.3199 46.8298C74.5998 45.5117 72.1876 45.2784 70.1941 46.4294C67.5514 47.9552 66.6459 51.3344 68.1717 53.9773C69.6975 56.62 73.0767 57.5254 75.7194 55.9996C75.9302 55.878 76.1286 55.7432 76.3171 55.5992C75.7568 55.1701 75.2699 54.6264 74.8952 53.9773Z" fill="#FE3F4E"/>
<path d="M70.9838 53.2748C69.4581 50.6321 70.3635 47.2527 73.0062 45.7269C73.0271 45.7148 73.0489 45.7051 73.07 45.6933C72.0944 45.6721 71.1009 45.9064 70.194 46.43C67.5514 47.9558 66.6459 51.335 68.1717 53.9779C69.6846 56.5983 73.0194 57.5092 75.6519 56.037C73.7856 55.9955 71.9854 55.0096 70.9838 53.2748Z" fill="#FA243A"/>
<path d="M84.4666 48.4514C82.9408 45.8088 79.5616 44.9033 76.9188 46.4291C76.708 46.5507 76.5095 46.6856 76.3211 46.8295C76.8811 47.2588 77.3682 47.8025 77.743 48.4516C79.1471 50.8835 78.4909 53.9379 76.3181 55.599C78.0381 56.9172 80.4504 57.1505 82.4439 55.9995C85.0869 54.4733 85.9924 51.0941 84.4666 48.4514Z" fill="#FFC30A"/>
<path d="M77.7425 48.4525C77.3677 47.8034 76.8806 47.2597 76.3206 46.8304C74.1477 48.4914 73.4917 51.5459 74.8959 53.9779C75.2706 54.627 75.7577 55.1707 76.3178 55.6C78.4904 53.9388 79.1466 50.8845 77.7425 48.4525Z" fill="#FF7110"/>
<path d="M33.175 52.9578C34.5333 52.9578 35.8923 52.9578 37.2479 52.9578C38.2064 52.9578 38.9906 52.1736 38.9906 51.2151C38.9906 50.2567 38.2064 49.4724 37.2479 49.4724C36.0083 49.4724 34.4333 49.4724 33.175 49.4724C32.2167 49.4724 31.4323 50.2566 31.4323 51.2151C31.4325 52.1736 32.2167 52.9578 33.175 52.9578Z" fill="#E6E6E6"/>
<path d="M34.4379 51.2151C34.4379 50.2567 35.2221 49.4724 36.1806 49.4724C35.0103 49.4724 33.6882 49.4724 33.176 49.4724C32.2177 49.4724 31.4333 50.2566 31.4333 51.2151C31.4333 52.1736 32.2175 52.9578 33.176 52.9578C33.6909 52.9578 34.9994 52.9578 36.1806 52.9578C35.2221 52.9578 34.4379 52.1736 34.4379 51.2151Z" fill="#CCCCCC"/>
<path d="M43.6908 52.9578C48.1835 52.9578 47.0656 52.9578 47.7636 52.9578C48.7221 52.9578 49.5063 52.1736 49.5063 51.2151C49.5063 50.2567 48.7221 49.4724 47.7636 49.4724H47.1253C46.4076 49.4724 44.1715 49.4724 43.6908 49.4724C42.7324 49.4724 41.9481 50.2566 41.9481 51.2151C41.9481 52.1736 42.7322 52.9578 43.6908 52.9578Z" fill="#E6E6E6"/>
<path d="M44.9527 51.2151C44.9527 50.2567 45.7368 49.4724 46.6954 49.4724C45.525 49.4724 44.203 49.4724 43.6908 49.4724C42.7324 49.4724 41.9481 50.2566 41.9481 51.2151C41.9481 52.1736 42.7322 52.9578 43.6908 52.9578C44.2056 52.9578 45.5141 52.9578 46.6954 52.9578C45.7368 52.9578 44.9527 52.1736 44.9527 51.2151Z" fill="#CCCCCC"/>
<path d="M54.2065 52.9578H54.5364C55.9321 52.9578 56.9104 52.9578 58.2793 52.9578C59.2379 52.9578 60.022 52.1736 60.022 51.2151C60.022 50.2567 59.2379 49.4724 58.2793 49.4724C56.8193 49.4724 55.6736 49.4724 54.2065 49.4724C53.248 49.4724 52.4638 50.2566 52.4638 51.2151C52.4638 52.1736 53.2481 52.9578 54.2065 52.9578Z" fill="#E6E6E6"/>
<path d="M55.4684 51.2151C55.4684 50.2567 56.2526 49.4724 57.2111 49.4724C56.0408 49.4724 54.7187 49.4724 54.2065 49.4724C53.248 49.4724 52.4638 50.2566 52.4638 51.2151C52.4638 52.1736 53.248 52.9578 54.2065 52.9578C54.7213 52.9578 56.0299 52.9578 57.2111 52.9578C56.2528 52.9578 55.4684 52.1736 55.4684 51.2151Z" fill="#CCCCCC"/>
<path d="M40.4899 38.1813H33.1467C32.2043 38.1813 31.4333 37.4103 31.4333 36.468V32.8147C31.4333 31.8724 32.2043 31.1014 33.1467 31.1014H40.4899C41.4323 31.1014 42.2032 31.8724 42.2032 32.8147V36.468C42.2031 37.4103 41.4321 38.1813 40.4899 38.1813Z" fill="#FFC30A"/>
<path d="M36.1794 36.468V32.8147C36.1794 31.8724 36.9504 31.1014 37.8927 31.1014H33.1467C32.2043 31.1014 31.4333 31.8724 31.4333 32.8147V36.468C31.4333 37.4103 32.2043 38.1813 33.1467 38.1813H37.8927C36.9504 38.1813 36.1794 37.4103 36.1794 36.468Z" fill="#FFA01A"/>
<path d="M85.2069 27.6099C84.5542 27.6099 84.0204 28.1437 84.0204 28.7964V41.013C84.0204 41.6655 84.5542 42.1995 85.2069 42.1995C85.8594 42.1995 86.3934 41.6655 86.3934 41.013V28.7964C86.3932 28.1437 85.8594 27.6099 85.2069 27.6099Z" fill="#CBE7EE"/>
</g>
<defs>
<clipPath id="clip0">
<rect width="90" height="90" fill="white"/>
</clipPath>
</defs>
</svg>
