<svg width="24" height="24" viewBox="0 0 24 24" fill="none" xmlns="http://www.w3.org/2000/svg">
<path d="M7.99999 3.99951C7.4477 3.99951 6.99999 3.55179 6.99999 2.99951C6.99999 2.48667 7.38603 2.064 7.88337 2.00623L7.99999 1.99951H16C16.5523 1.99951 17 2.44722 17 2.99951C17 3.51234 16.6139 3.93501 16.1166 3.99278L16 3.99951H7.99999ZM12.9934 21.6283C12.3 22.1075 11.3586 22.0219 10.7631 21.4256L10.6556 21.3078L2.79064 11.8698C2.52856 11.5553 2.38503 11.1589 2.38503 10.7495C2.38503 9.83133 3.09214 9.07831 3.9915 9.00531L4.13503 8.99951H7.00099L6.99999 6.74951C6.99999 5.88234 7.63071 5.16249 8.45844 5.02368L8.60646 5.00531L8.74999 4.99951H15.25C16.1682 4.99951 16.9212 5.70662 16.9942 6.60598L17 6.74951L17.001 8.99951H19.8649C20.1574 8.99951 20.4432 9.07273 20.6972 9.21009L20.8457 9.30013L20.9853 9.40512C21.6865 9.98948 21.8149 11.0062 21.3058 11.7429L21.2093 11.8698L13.3444 21.3078L13.2374 21.4249L13.1203 21.5318L12.9934 21.6283Z" fill="white"/>
</svg>
