<svg width="28" height="29" viewBox="0 0 28 29" fill="none" xmlns="http://www.w3.org/2000/svg">
<g fill="none" stroke="none" fill-rule="evenodd">
<path d="M6 6.66699C6 5.28628 7.11929 4.16699 8.5 4.16699H20C21.3807 4.16699 22.5 5.28628 22.5 6.66699V20.917C22.5 21.3312 22.1642 21.667 21.75 21.667H7.5C7.5 22.2193 7.94772 22.667 8.5 22.667H21.75C22.1642 22.667 22.5 23.0028 22.5 23.417C22.5 23.8312 22.1642 24.167 21.75 24.167H8.5C7.11929 24.167 6 23.0477 6 21.667V6.66699Z" fill="white"/>
<path d="M11.0604 14.7897C11.1084 14.9217 11.2344 14.9997 11.3664 14.9997C11.4084 14.9997 11.4504 14.9937 11.4804 14.9817C11.6544 14.9157 11.7384 14.7237 11.6784 14.5497L10.3524 11.0157C10.2984 10.8837 10.1724 10.7997 10.0344 10.8057C9.90236 10.7997 9.77036 10.8837 9.71636 11.0157L8.39036 14.5497C8.33036 14.7237 8.41436 14.9157 8.58836 14.9817C8.62436 14.9937 8.66036 14.9997 8.70236 14.9997C8.83436 14.9997 8.96036 14.9217 9.01436 14.7897L9.30836 14.0097H10.7664L11.0604 14.7897ZM9.54836 13.3497L10.0344 12.0597L10.5204 13.3497H9.54836Z" fill="#1995D1"/>
<path d="M12.8333 14.9997C12.8393 14.9997 12.8393 14.9937 12.8513 14.9937C12.8513 14.9937 12.8513 14.9997 12.8573 14.9997H13.9193C14.6273 14.9997 15.2033 14.4237 15.2033 13.7097C15.2033 13.2537 14.9573 12.8517 14.5973 12.6237C14.7413 12.4317 14.8253 12.1977 14.8253 11.9397C14.8253 11.3097 14.3153 10.7997 13.6853 10.7997H12.8573C12.8513 10.7997 12.8513 10.7997 12.8513 10.7997C12.8393 10.7997 12.8393 10.7997 12.8333 10.7997C12.6533 10.7997 12.5033 10.9437 12.5033 11.1297V14.6697C12.5033 14.8497 12.6533 14.9997 12.8333 14.9997ZM13.1693 11.4657H13.6853C13.9493 11.4657 14.1593 11.6757 14.1593 11.9397C14.1593 12.2037 13.9493 12.4257 13.6853 12.4257H13.1693V11.4657ZM13.1693 13.0917H13.9193C14.2613 13.0977 14.5373 13.3677 14.5373 13.7097C14.5373 14.0577 14.2613 14.3277 13.9193 14.3337H13.1693V13.0917Z" fill="#1995D1"/>
<path d="M18.0818 14.9997C18.6098 14.9997 19.0898 14.8257 19.4678 14.5317C19.6118 14.4177 19.6358 14.2017 19.5278 14.0517C19.4078 13.9077 19.1858 13.8837 19.0478 13.9857C18.7778 14.2017 18.4538 14.3157 18.0818 14.3157C17.6678 14.3157 17.2838 14.1477 17.0018 13.8837C16.7318 13.6197 16.5638 13.2477 16.5638 12.8397C16.5638 12.4317 16.7318 12.0717 17.0018 11.7957C17.2838 11.5317 17.6678 11.3637 18.0818 11.3637C18.4538 11.3637 18.7838 11.4777 19.0478 11.6937C19.1858 11.8017 19.4078 11.7777 19.5278 11.6277C19.6358 11.4777 19.6118 11.2677 19.4678 11.1477C19.0898 10.8537 18.6098 10.6797 18.0818 10.6797C16.8818 10.6857 15.8858 11.6517 15.8798 12.8397C15.8858 14.0337 16.8818 14.9997 18.0818 14.9997Z" fill="#1995D1"/>
<path d="M11.0604 14.7897C11.1084 14.9217 11.2344 14.9997 11.3664 14.9997C11.4084 14.9997 11.4504 14.9937 11.4804 14.9817C11.6544 14.9157 11.7384 14.7237 11.6784 14.5497L10.3524 11.0157C10.2984 10.8837 10.1724 10.7997 10.0344 10.8057C9.90236 10.7997 9.77036 10.8837 9.71636 11.0157L8.39036 14.5497C8.33036 14.7237 8.41436 14.9157 8.58836 14.9817C8.62436 14.9937 8.66036 14.9997 8.70236 14.9997C8.83436 14.9997 8.96036 14.9217 9.01436 14.7897L9.30836 14.0097H10.7664L11.0604 14.7897ZM9.54836 13.3497L10.0344 12.0597L10.5204 13.3497H9.54836Z" stroke="#1995D1" stroke-width="0.3"/>
<path d="M12.8333 14.9997C12.8393 14.9997 12.8393 14.9937 12.8513 14.9937C12.8513 14.9937 12.8513 14.9997 12.8573 14.9997H13.9193C14.6273 14.9997 15.2033 14.4237 15.2033 13.7097C15.2033 13.2537 14.9573 12.8517 14.5973 12.6237C14.7413 12.4317 14.8253 12.1977 14.8253 11.9397C14.8253 11.3097 14.3153 10.7997 13.6853 10.7997H12.8573C12.8513 10.7997 12.8513 10.7997 12.8513 10.7997C12.8393 10.7997 12.8393 10.7997 12.8333 10.7997C12.6533 10.7997 12.5033 10.9437 12.5033 11.1297V14.6697C12.5033 14.8497 12.6533 14.9997 12.8333 14.9997ZM13.1693 11.4657H13.6853C13.9493 11.4657 14.1593 11.6757 14.1593 11.9397C14.1593 12.2037 13.9493 12.4257 13.6853 12.4257H13.1693V11.4657ZM13.1693 13.0917H13.9193C14.2613 13.0977 14.5373 13.3677 14.5373 13.7097C14.5373 14.0577 14.2613 14.3277 13.9193 14.3337H13.1693V13.0917Z" stroke="#1995D1" stroke-width="0.3"/>
<path d="M18.0818 14.9997C18.6098 14.9997 19.0898 14.8257 19.4678 14.5317C19.6118 14.4177 19.6358 14.2017 19.5278 14.0517C19.4078 13.9077 19.1858 13.8837 19.0478 13.9857C18.7778 14.2017 18.4538 14.3157 18.0818 14.3157C17.6678 14.3157 17.2838 14.1477 17.0018 13.8837C16.7318 13.6197 16.5638 13.2477 16.5638 12.8397C16.5638 12.4317 16.7318 12.0717 17.0018 11.7957C17.2838 11.5317 17.6678 11.3637 18.0818 11.3637C18.4538 11.3637 18.7838 11.4777 19.0478 11.6937C19.1858 11.8017 19.4078 11.7777 19.5278 11.6277C19.6358 11.4777 19.6118 11.2677 19.4678 11.1477C19.0898 10.8537 18.6098 10.6797 18.0818 10.6797C16.8818 10.6857 15.8858 11.6517 15.8798 12.8397C15.8858 14.0337 16.8818 14.9997 18.0818 14.9997Z" stroke="#1995D1" stroke-width="0.3"/>
</g>
</svg>
