<svg width="21" height="25" viewBox="-5 0 32 23" fill="none" xmlns="http://www.w3.org/2000/svg">
<g fill="none" stroke="none" fill-rule="evenodd">
<path d="M19.9656 16.5155L18.3924 14.5555C17.7476 13.7818 17.4124 12.8018 17.4124 11.796V9.68119C17.4124 6.48325 15.3234 3.77531 12.4607 2.84688V2.04739C12.4607 1.19633 11.7644 0.5 10.9133 0.5H9.49488C8.64382 0.5 7.94749 1.19633 7.94749 2.04739V2.84688C5.05903 3.8011 2.97005 6.50904 2.97005 9.70698V11.8217C2.97005 12.8276 2.63478 13.8076 1.99004 14.5813L0.391066 16.5413C-0.537369 17.676 0.287906 19.4555 1.80951 19.4555H18.5729C20.0945 19.4555 20.9198 17.676 19.9656 16.5155Z" fill="white"/>
<path d="M10.1926 24.9989C12.2043 24.9989 13.829 23.3742 13.829 21.3625H6.55627C6.55627 23.3742 8.18103 24.9989 10.1926 24.9989Z" fill="white"/>
</g>
</svg>
