<svg width="20" height="30" viewBox="0 0 20 30" fill="none" xmlns="http://www.w3.org/2000/svg">
<g fill="none" stroke="none" fill-rule="evenodd">
<path d="M19.9656 24.5155L18.3924 22.5555C17.7476 21.7818 17.4124 20.8018 17.4124 19.796V17.6812C17.4124 14.4832 15.3234 11.7753 12.4607 10.8469V10.0474C12.4607 9.19633 11.7644 8.5 10.9133 8.5H9.49488C8.64382 8.5 7.94749 9.19633 7.94749 10.0474V10.8469C5.05903 11.8011 2.97005 14.509 2.97005 17.707V19.8217C2.97005 20.8276 2.63478 21.8076 1.99004 22.5813L0.391066 24.5413C-0.537369 25.676 0.287906 27.4555 1.80951 27.4555H18.5729C20.0945 27.4555 20.9198 25.676 19.9656 24.5155Z" fill="white"/>
<path d="M10.193 32.9987C12.2046 32.9987 13.8294 31.3739 13.8294 29.3623H6.55664C6.55664 31.3739 8.1814 32.9987 10.193 32.9987Z" fill="white"/>
<!-- <circle cx="20" cy="11" r="6.5" fill="#D83B01" stroke="#1995D1"/> -->
<!-- <path d="M16.6484 13.8945V13.1094C16.9505 13.2865 17.2708 13.375 17.6094 13.375C18.1016 13.375 18.4844 13.1966 18.7578 12.8398C19.0312 12.4805 19.168 11.9714 19.168 11.3125C19.1628 11.3151 19.1576 11.3151 19.1523 11.3125C18.9206 11.7448 18.5169 11.9609 17.9414 11.9609C17.4753 11.9609 17.0911 11.7969 16.7891 11.4688C16.4896 11.138 16.3398 10.7135 16.3398 10.1953C16.3398 9.64323 16.5169 9.1901 16.8711 8.83594C17.2253 8.48177 17.6771 8.30469 18.2266 8.30469C18.8047 8.30469 19.2552 8.52344 19.5781 8.96094C19.9036 9.39583 20.0664 10.0312 20.0664 10.8672C20.0664 11.8984 19.8555 12.694 19.4336 13.2539C19.0117 13.8138 18.4258 14.0938 17.6758 14.0938C17.2799 14.0938 16.9375 14.0273 16.6484 13.8945ZM18.1641 9.02734C17.901 9.02734 17.681 9.13021 17.5039 9.33594C17.3268 9.54167 17.2383 9.80208 17.2383 10.1172C17.2383 10.4661 17.3242 10.7396 17.4961 10.9375C17.6706 11.1354 17.9062 11.2344 18.2031 11.2344C18.4609 11.2344 18.6784 11.1445 18.8555 10.9648C19.0352 10.7826 19.125 10.5599 19.125 10.2969C19.125 9.92448 19.0352 9.61979 18.8555 9.38281C18.6784 9.14583 18.4479 9.02734 18.1641 9.02734ZM21.0938 13.8945V13.1094C21.3958 13.2865 21.7161 13.375 22.0547 13.375C22.5469 13.375 22.9297 13.1966 23.2031 12.8398C23.4766 12.4805 23.6133 11.9714 23.6133 11.3125C23.6081 11.3151 23.6029 11.3151 23.5977 11.3125C23.3659 11.7448 22.9622 11.9609 22.3867 11.9609C21.9206 11.9609 21.5365 11.7969 21.2344 11.4688C20.9349 11.138 20.7852 10.7135 20.7852 10.1953C20.7852 9.64323 20.9622 9.1901 21.3164 8.83594C21.6706 8.48177 22.1224 8.30469 22.6719 8.30469C23.25 8.30469 23.7005 8.52344 24.0234 8.96094C24.349 9.39583 24.5117 10.0312 24.5117 10.8672C24.5117 11.8984 24.3008 12.694 23.8789 13.2539C23.457 13.8138 22.8711 14.0938 22.1211 14.0938C21.7253 14.0938 21.3828 14.0273 21.0938 13.8945ZM22.6094 9.02734C22.3464 9.02734 22.1263 9.13021 21.9492 9.33594C21.7721 9.54167 21.6836 9.80208 21.6836 10.1172C21.6836 10.4661 21.7695 10.7396 21.9414 10.9375C22.1159 11.1354 22.3516 11.2344 22.6484 11.2344C22.9062 11.2344 23.1237 11.1445 23.3008 10.9648C23.4805 10.7826 23.5703 10.5599 23.5703 10.2969C23.5703 9.92448 23.4805 9.61979 23.3008 9.38281C23.1237 9.14583 22.8932 9.02734 22.6094 9.02734Z" fill="white"/> -->
</g>
</svg>