<svg width="28" height="28" viewBox="0 0 28 28" fill="none" xmlns="http://www.w3.org/2000/svg">
<g fill="none" stroke="none" fill-rule="evenodd">
<path d="M14.0122 4.25C14.7462 4.25846 15.4773 4.34326 16.1937 4.50304C16.5064 4.57279 16.7403 4.83351 16.7758 5.15196L16.946 6.67881C17.0231 7.37986 17.615 7.91084 18.3206 7.91158C18.5103 7.91188 18.6979 7.87238 18.8732 7.79483L20.2738 7.17956C20.5651 7.05159 20.9055 7.12136 21.1229 7.35362C22.1351 8.43464 22.8889 9.73115 23.3277 11.1456C23.4223 11.4506 23.3134 11.782 23.0564 11.9715L21.8149 12.8866C21.4607 13.1468 21.2516 13.56 21.2516 13.9995C21.2516 14.4389 21.4607 14.8521 21.8157 15.1129L23.0582 16.0283C23.3153 16.2177 23.4243 16.5492 23.3297 16.8543C22.8911 18.2685 22.1377 19.5649 21.1261 20.6461C20.9089 20.8783 20.5688 20.9483 20.2775 20.8206L18.8712 20.2045C18.4688 20.0284 18.0068 20.0542 17.6265 20.274C17.2463 20.4937 16.9933 20.8812 16.945 21.3177L16.7759 22.8444C16.741 23.1592 16.5122 23.4182 16.204 23.4915C14.7556 23.8361 13.2465 23.8361 11.798 23.4915C11.4899 23.4182 11.261 23.1592 11.2262 22.8444L11.0574 21.32C11.0078 20.8843 10.7543 20.498 10.3744 20.279C9.99451 20.06 9.5332 20.0343 9.1322 20.2094L7.72557 20.8256C7.43422 20.9533 7.09403 20.8833 6.87678 20.6509C5.86462 19.5685 5.11119 18.2705 4.6732 16.8548C4.57886 16.5499 4.68786 16.2186 4.94485 16.0293L6.18818 15.1133C6.54232 14.8531 6.75147 14.4399 6.75147 14.0005C6.75147 13.561 6.54232 13.1478 6.18771 12.8873L4.94516 11.9728C4.6878 11.7834 4.5787 11.4518 4.67337 11.1466C5.11212 9.73215 5.86594 8.43564 6.87813 7.35462C7.09559 7.12236 7.43594 7.05259 7.72724 7.18056L9.12762 7.79572C9.53056 7.97256 9.9938 7.94585 10.3758 7.72269C10.7561 7.50209 11.0093 7.11422 11.0582 6.67764L11.2282 5.15196C11.2638 4.83335 11.4979 4.57254 11.8108 4.50294C12.5281 4.34342 13.26 4.25865 14.0122 4.25ZM13.9997 11C12.3428 11 10.9997 12.3431 10.9997 14C10.9997 15.6568 12.3428 17 13.9997 17C15.6565 17 16.9997 15.6568 16.9997 14C16.9997 12.3431 15.6565 11 13.9997 11Z" fill="white"/>
<g>
</svg>
