<svg width="26" height="26" viewBox="0 0 26 26" fill="none" xmlns="http://www.w3.org/2000/svg">
<path d="M18.4971 16.0246L24.8034 9.74349C25.1566 9.39034 25.3332 8.91106 25.3332 8.43178C25.3332 7.97773 25.1314 7.5489 24.8034 7.2462C24.4503 6.89304 23.9962 6.71647 23.517 6.71647C23.0629 6.71647 22.6341 6.91827 22.3314 7.2462L16.0251 13.5273L9.66831 7.19575C9.31515 6.84259 8.83587 6.66602 8.38182 6.66602C7.92777 6.66602 7.49894 6.86782 7.19623 7.19575C6.84308 7.5489 6.6665 8.02818 6.6665 8.50746C6.6665 8.96151 6.86831 9.39034 7.19623 9.69304L13.5025 15.9741L7.19623 22.3057C6.84308 22.6588 6.6665 23.1381 6.6665 23.6174C6.6665 24.0714 6.86831 24.5003 7.19623 24.803C7.52416 25.1309 8.00344 25.3327 8.43227 25.3327C8.91155 25.3327 9.31515 25.1561 9.66831 24.803L16.0251 18.5219L22.3314 24.803C22.6593 25.1309 23.1386 25.3327 23.5674 25.3327C24.0467 25.3327 24.4503 25.1561 24.8034 24.803C25.1566 24.4498 25.3332 23.9705 25.3332 23.4912C25.3332 23.0372 25.1314 22.6084 24.8034 22.3057L18.4971 16.0246Z" fill="white"/>
</svg>
