<svg width="21" height="27" viewBox="0 0 21 27" fill="none" xmlns="http://www.w3.org/2000/svg">
<path d="M1 12H19C19.5523 12 20 12.4477 20 13C20 13.5128 19.614 13.9355 19.1166 13.9933L19 14H1C0.447715 14 0 13.5523 0 13C0 12.4872 0.38604 12.0645 0.883379 12.0067L1 12ZM0.99988 6L18.9999 5.99783C19.5522 5.99777 20 6.44543 20 6.99771C20 7.51055 19.6141 7.93327 19.1167 7.99109L19.0001 7.99783L1.00012 8C0.447836 8.00007 0 7.5524 0 7.00012C0 6.48728 0.385936 6.06457 0.88326 6.00674L0.99988 6ZM1 0H19C19.5523 0 20 0.447715 20 1C20 1.51284 19.614 1.93551 19.1166 1.99327L19 2H1C0.447715 2 0 1.55228 0 1C0 0.487164 0.38604 0.0644928 0.883379 0.0067277L1 0Z" fill="white"/>
<path d="M5.86865 25H5.06201V21.8281C5.06201 21.5684 5.07796 21.2505 5.10986 20.8745H5.09619C5.04606 21.0887 5.00163 21.2425 4.96289 21.3359L3.5 25H2.93945L1.47314 21.3633C1.43213 21.2562 1.38883 21.0933 1.34326 20.8745H1.32959C1.34782 21.0705 1.35693 21.3906 1.35693 21.835V25H0.60498V20.0986H1.75L3.03857 23.3628C3.13656 23.6134 3.20036 23.8003 3.22998 23.9233H3.24707C3.33138 23.6659 3.39974 23.4744 3.45215 23.3491L4.76465 20.0986H5.86865V25ZM9.83008 25H7.07861V20.0986H9.7207V20.7891H7.89209V22.1768H9.57715V22.8638H7.89209V24.313H9.83008V25ZM14.8579 25H13.9692L11.6279 21.3975C11.5687 21.3063 11.5197 21.2118 11.481 21.1138H11.4604C11.4787 21.2186 11.4878 21.443 11.4878 21.7871V25H10.7017V20.0986H11.6484L13.9111 23.6157C14.0068 23.7616 14.0684 23.8618 14.0957 23.9165H14.1094C14.0866 23.7866 14.0752 23.5667 14.0752 23.2568V20.0986H14.8579V25ZM19.8447 23.0176C19.8447 24.3939 19.193 25.082 17.8896 25.082C16.641 25.082 16.0166 24.4201 16.0166 23.0962V20.0986H16.8301V22.9287C16.8301 23.8903 17.2038 24.3711 17.9512 24.3711C18.6712 24.3711 19.0312 23.9074 19.0312 22.98V20.0986H19.8447V23.0176Z" fill="white"/>
</svg>