<svg width="69" height="24" viewBox="0 0 69 24" fill="none" xmlns="http://www.w3.org/2000/svg">
<path d="M2.62846 20.9119C2.62846 21.1257 2.5932 21.3186 2.52267 21.4905C2.45213 21.6625 2.35074 21.809 2.21849 21.9303C2.08844 22.0515 1.92754 22.1452 1.73578 22.2113C1.54622 22.2774 1.31919 22.3105 1.05469 22.3105H0.568674V23.8512C0.568674 23.8688 0.563164 23.8843 0.552143 23.8975C0.543326 23.9107 0.527897 23.9217 0.505856 23.9305C0.486018 23.9372 0.457364 23.9427 0.419893 23.9471C0.384627 23.9537 0.339441 23.957 0.284337 23.957C0.229233 23.957 0.182946 23.9537 0.145475 23.9471C0.110208 23.9427 0.081554 23.9372 0.0595124 23.9305C0.0374708 23.9217 0.0220416 23.9107 0.013225 23.8975C0.00440833 23.8843 0 23.8688 0 23.8512V19.9035C0 19.8154 0.0231437 19.7526 0.0694311 19.7151C0.115719 19.6776 0.167516 19.6589 0.224825 19.6589H1.14065C1.23323 19.6589 1.3214 19.6633 1.40515 19.6721C1.49112 19.6787 1.59141 19.6952 1.70602 19.7217C1.82284 19.7459 1.94077 19.7933 2.05979 19.8639C2.18102 19.9322 2.28351 20.0171 2.36727 20.1184C2.45103 20.2198 2.51495 20.3378 2.55903 20.4722C2.60532 20.6045 2.62846 20.751 2.62846 20.9119ZM2.03003 20.9582C2.03003 20.7841 1.99697 20.6386 1.93085 20.5218C1.86693 20.405 1.78647 20.3179 1.68949 20.2606C1.59471 20.2033 1.49552 20.1669 1.39193 20.1515C1.29054 20.1361 1.19135 20.1284 1.09437 20.1284H0.568674V21.8443H1.08114C1.25307 21.8443 1.39524 21.8223 1.50765 21.7782C1.62226 21.7341 1.71815 21.6735 1.79529 21.5963C1.87244 21.517 1.93085 21.4233 1.97052 21.3153C2.0102 21.2051 2.03003 21.0861 2.03003 20.9582Z" fill="#00B0F0"/>
<path d="M6.19921 23.7355C6.21684 23.784 6.22566 23.8236 6.22566 23.8545C6.22786 23.8832 6.22015 23.9052 6.20252 23.9206C6.18488 23.9361 6.15513 23.946 6.11325 23.9504C6.07357 23.9548 6.01957 23.957 5.95124 23.957C5.88291 23.957 5.82781 23.9548 5.78593 23.9504C5.74625 23.9482 5.7154 23.9438 5.69335 23.9372C5.67352 23.9283 5.65809 23.9173 5.64707 23.9041C5.63825 23.8909 5.62943 23.8743 5.62062 23.8545L5.25362 22.813H3.47486L3.1244 23.8413C3.11779 23.8611 3.10897 23.8787 3.09795 23.8942C3.08693 23.9074 3.0704 23.9195 3.04836 23.9305C3.02852 23.9394 2.99876 23.946 2.95909 23.9504C2.92162 23.9548 2.87203 23.957 2.81031 23.957C2.74639 23.957 2.69349 23.9537 2.65161 23.9471C2.61193 23.9427 2.58328 23.9328 2.56565 23.9173C2.55022 23.9019 2.5425 23.8799 2.5425 23.8512C2.54471 23.8203 2.55463 23.7807 2.57226 23.7322L4.00717 19.7581C4.01599 19.7338 4.02701 19.714 4.04023 19.6986C4.05566 19.6831 4.0766 19.671 4.10305 19.6622C4.1317 19.6534 4.16697 19.6479 4.20885 19.6457C4.25293 19.6412 4.30804 19.639 4.37416 19.639C4.4447 19.639 4.50311 19.6412 4.54939 19.6457C4.59568 19.6479 4.63315 19.6534 4.66181 19.6622C4.69046 19.671 4.7125 19.6842 4.72793 19.7019C4.74336 19.7173 4.75548 19.7371 4.7643 19.7614L6.19921 23.7355ZM4.35763 20.2276H4.35432L3.61703 22.3601H5.10484L4.35763 20.2276Z" fill="#00B0F0"/>
<path d="M10.1502 23.7024C10.1502 23.7465 10.1425 23.784 10.127 23.8148C10.1138 23.8457 10.0951 23.871 10.0708 23.8909C10.0488 23.9107 10.0234 23.925 9.99478 23.9339C9.96613 23.9427 9.93747 23.9471 9.90882 23.9471H9.72697C9.66967 23.9471 9.61897 23.9416 9.57489 23.9305C9.53301 23.9173 9.49223 23.8953 9.45255 23.8644C9.41508 23.8314 9.37651 23.7873 9.33684 23.7322C9.29937 23.6771 9.25749 23.6065 9.2112 23.5206L7.86225 21.0872C7.79172 20.9615 7.72008 20.8304 7.64735 20.6937C7.57681 20.5549 7.51069 20.4204 7.44897 20.2904H7.44236C7.44677 20.4491 7.45007 20.6111 7.45228 20.7764C7.45448 20.9417 7.45558 21.1059 7.45558 21.269V23.8512C7.45558 23.8666 7.45117 23.8821 7.44236 23.8975C7.43354 23.9107 7.41811 23.9217 7.39607 23.9305C7.37623 23.9372 7.34868 23.9427 7.31341 23.9471C7.28035 23.9537 7.23737 23.957 7.18447 23.957C7.13157 23.957 7.08749 23.9537 7.05222 23.9471C7.01916 23.9427 6.99271 23.9372 6.97287 23.9305C6.95303 23.9217 6.93871 23.9107 6.92989 23.8975C6.92107 23.8821 6.91667 23.8666 6.91667 23.8512V19.9035C6.91667 19.8154 6.94091 19.7526 6.9894 19.7151C7.03789 19.6776 7.09079 19.6589 7.1481 19.6589H7.41921C7.48313 19.6589 7.53604 19.6644 7.57791 19.6754C7.622 19.6864 7.66057 19.7052 7.69363 19.7316C7.7289 19.7559 7.76196 19.7911 7.79282 19.8374C7.82588 19.8815 7.86115 19.9377 7.89862 20.006L8.93678 21.884C9.0007 21.9986 9.06242 22.111 9.12193 22.2212C9.18144 22.3292 9.23875 22.4361 9.29386 22.5419C9.34896 22.6477 9.40296 22.7524 9.45586 22.856C9.51097 22.9574 9.56497 23.0599 9.61787 23.1635H9.62117C9.61677 22.9894 9.61346 22.8086 9.61125 22.6213C9.61125 22.4317 9.61125 22.2499 9.61125 22.0757V19.7548C9.61125 19.7393 9.61566 19.725 9.62448 19.7118C9.6333 19.6986 9.64762 19.6875 9.66746 19.6787C9.6895 19.6677 9.71705 19.66 9.75012 19.6556C9.78538 19.6512 9.83057 19.649 9.88567 19.649C9.93417 19.649 9.97604 19.6512 10.0113 19.6556C10.0466 19.66 10.0741 19.6677 10.094 19.6787C10.1138 19.6875 10.1281 19.6986 10.1369 19.7118C10.1458 19.725 10.1502 19.7393 10.1502 19.7548V23.7024Z" fill="#00B0F0"/>
<path d="M14.5772 21.7352C14.5772 22.1055 14.5298 22.4295 14.4351 22.7072C14.3403 22.9828 14.2014 23.212 14.0185 23.3949C13.8377 23.5757 13.6151 23.7112 13.3506 23.8016C13.0861 23.892 12.7709 23.9372 12.405 23.9372H11.4991C11.4484 23.9372 11.3999 23.9206 11.3536 23.8876C11.3096 23.8523 11.2875 23.7917 11.2875 23.7057V19.8903C11.2875 19.8044 11.3096 19.7448 11.3536 19.7118C11.3999 19.6765 11.4484 19.6589 11.4991 19.6589H12.4679C12.8382 19.6589 13.1511 19.7074 13.4068 19.8044C13.6625 19.8991 13.8763 20.0369 14.0482 20.2176C14.2224 20.3962 14.3535 20.6133 14.4417 20.869C14.5321 21.1246 14.5772 21.4134 14.5772 21.7352ZM13.9788 21.7583C13.9788 21.5269 13.9502 21.312 13.8928 21.1136C13.8355 20.913 13.7452 20.74 13.6217 20.5945C13.5005 20.4491 13.3462 20.3356 13.1589 20.254C12.9715 20.1724 12.7301 20.1317 12.4348 20.1317H11.8562V23.4611H12.4414C12.7147 23.4611 12.9451 23.4269 13.1324 23.3586C13.3198 23.2902 13.4763 23.1855 13.6019 23.0445C13.7275 22.9034 13.8212 22.7271 13.8829 22.5155C13.9468 22.3017 13.9788 22.0493 13.9788 21.7583Z" fill="#00B0F0"/>
<path d="M18.6704 22.3568C18.6704 22.6169 18.6318 22.8494 18.5546 23.0544C18.4797 23.2572 18.3717 23.4291 18.2306 23.5702C18.0896 23.7112 17.9176 23.8181 17.7149 23.8909C17.5121 23.9636 17.2817 24 17.0239 24C16.788 24 16.5731 23.9658 16.3791 23.8975C16.1852 23.8292 16.0188 23.7289 15.8799 23.5966C15.741 23.4622 15.6341 23.2946 15.5592 23.0941C15.4842 22.8935 15.4468 22.6621 15.4468 22.3998V19.7448C15.4468 19.7272 15.4512 19.7118 15.46 19.6986C15.4688 19.6853 15.4842 19.6754 15.5063 19.6688C15.5283 19.66 15.557 19.6534 15.5923 19.649C15.6275 19.6423 15.6738 19.639 15.7311 19.639C15.784 19.639 15.8292 19.6423 15.8667 19.649C15.9041 19.6534 15.9328 19.66 15.9526 19.6688C15.9747 19.6754 15.9901 19.6853 15.9989 19.6986C16.0077 19.7118 16.0121 19.7272 16.0121 19.7448V22.3303C16.0121 22.5287 16.0364 22.7017 16.0849 22.8494C16.1334 22.9971 16.2028 23.1205 16.2932 23.2197C16.3858 23.3167 16.496 23.3905 16.6238 23.4412C16.7538 23.4897 16.8993 23.514 17.0602 23.514C17.2255 23.514 17.3721 23.4897 17.5 23.4412C17.63 23.3927 17.7391 23.32 17.8273 23.223C17.9176 23.126 17.986 23.0059 18.0323 22.8626C18.0808 22.7194 18.105 22.5518 18.105 22.3601V19.7448C18.105 19.7272 18.1094 19.7118 18.1182 19.6986C18.127 19.6853 18.1425 19.6754 18.1645 19.6688C18.1866 19.66 18.2152 19.6534 18.2505 19.649C18.2879 19.6423 18.3342 19.639 18.3893 19.639C18.4422 19.639 18.4863 19.6423 18.5216 19.649C18.5591 19.6534 18.5877 19.66 18.6075 19.6688C18.6296 19.6754 18.645 19.6853 18.6538 19.6986C18.6649 19.7118 18.6704 19.7272 18.6704 19.7448V22.3568Z" fill="#00B0F0"/>
<path d="M22.8495 23.7355C22.8671 23.784 22.8759 23.8236 22.8759 23.8545C22.8781 23.8832 22.8704 23.9052 22.8528 23.9206C22.8351 23.9361 22.8054 23.946 22.7635 23.9504C22.7238 23.9548 22.6698 23.957 22.6015 23.957C22.5332 23.957 22.4781 23.9548 22.4362 23.9504C22.3965 23.9482 22.3656 23.9438 22.3436 23.9372C22.3238 23.9283 22.3083 23.9173 22.2973 23.9041C22.2885 23.8909 22.2797 23.8743 22.2709 23.8545L21.9039 22.813H20.1251L19.7747 23.8413C19.768 23.8611 19.7592 23.8787 19.7482 23.8942C19.7372 23.9074 19.7206 23.9195 19.6986 23.9305C19.6788 23.9394 19.649 23.946 19.6093 23.9504C19.5719 23.9548 19.5223 23.957 19.4606 23.957C19.3966 23.957 19.3437 23.9537 19.3019 23.9471C19.2622 23.9427 19.2335 23.9328 19.2159 23.9173C19.2005 23.9019 19.1928 23.8799 19.1928 23.8512C19.195 23.8203 19.2049 23.7807 19.2225 23.7322L20.6574 19.7581C20.6662 19.7338 20.6773 19.714 20.6905 19.6986C20.7059 19.6831 20.7269 19.671 20.7533 19.6622C20.782 19.6534 20.8172 19.6479 20.8591 19.6457C20.9032 19.6412 20.9583 19.639 21.0244 19.639C21.0949 19.639 21.1534 19.6412 21.1996 19.6457C21.2459 19.6479 21.2834 19.6534 21.3121 19.6622C21.3407 19.671 21.3628 19.6842 21.3782 19.7019C21.3936 19.7173 21.4057 19.7371 21.4146 19.7614L22.8495 23.7355ZM21.0079 20.2276H21.0046L20.2673 22.3601H21.7551L21.0079 20.2276Z" fill="#00B0F0"/>
<path d="M26.8004 23.7024C26.8004 23.7465 26.7927 23.784 26.7773 23.8148C26.7641 23.8457 26.7453 23.871 26.7211 23.8909C26.699 23.9107 26.6737 23.925 26.645 23.9339C26.6164 23.9427 26.5877 23.9471 26.5591 23.9471H26.3772C26.3199 23.9471 26.2692 23.9416 26.2251 23.9305C26.1833 23.9173 26.1425 23.8953 26.1028 23.8644C26.0653 23.8314 26.0268 23.7873 25.9871 23.7322C25.9496 23.6771 25.9077 23.6065 25.8615 23.5206L24.5125 21.0872C24.442 20.9615 24.3703 20.8304 24.2976 20.6937C24.2271 20.5549 24.1609 20.4204 24.0992 20.2904H24.0926C24.097 20.4491 24.1003 20.6111 24.1025 20.7764C24.1047 20.9417 24.1058 21.1059 24.1058 21.269V23.8512C24.1058 23.8666 24.1014 23.8821 24.0926 23.8975C24.0838 23.9107 24.0684 23.9217 24.0463 23.9305C24.0265 23.9372 23.9989 23.9427 23.9637 23.9471C23.9306 23.9537 23.8876 23.957 23.8347 23.957C23.7818 23.957 23.7377 23.9537 23.7025 23.9471C23.6694 23.9427 23.643 23.9372 23.6231 23.9305C23.6033 23.9217 23.589 23.9107 23.5801 23.8975C23.5713 23.8821 23.5669 23.8666 23.5669 23.8512V19.9035C23.5669 19.8154 23.5912 19.7526 23.6397 19.7151C23.6881 19.6776 23.741 19.6589 23.7984 19.6589H24.0695C24.1334 19.6589 24.1863 19.6644 24.2282 19.6754C24.2722 19.6864 24.3108 19.7052 24.3439 19.7316C24.3792 19.7559 24.4122 19.7911 24.4431 19.8374C24.4761 19.8815 24.5114 19.9377 24.5489 20.006L25.587 21.884C25.651 21.9986 25.7127 22.111 25.7722 22.2212C25.8317 22.3292 25.889 22.4361 25.9441 22.5419C25.9992 22.6477 26.0532 22.7524 26.1061 22.856C26.1612 22.9574 26.2152 23.0599 26.2681 23.1635H26.2714C26.267 22.9894 26.2637 22.8086 26.2615 22.6213C26.2615 22.4317 26.2615 22.2499 26.2615 22.0757V19.7548C26.2615 19.7393 26.2659 19.725 26.2747 19.7118C26.2835 19.6986 26.2979 19.6875 26.3177 19.6787C26.3398 19.6677 26.3673 19.66 26.4004 19.6556C26.4356 19.6512 26.4808 19.649 26.5359 19.649C26.5844 19.649 26.6263 19.6512 26.6616 19.6556C26.6968 19.66 26.7244 19.6677 26.7442 19.6787C26.7641 19.6875 26.7784 19.6986 26.7872 19.7118C26.796 19.725 26.8004 19.7393 26.8004 19.7548V23.7024Z" fill="#00B0F0"/>
<path d="M32.2623 23.8446C32.2623 23.8622 32.2579 23.8787 32.2491 23.8942C32.2425 23.9074 32.2282 23.9184 32.2061 23.9272C32.1841 23.9361 32.1543 23.9427 32.1169 23.9471C32.0794 23.9537 32.0309 23.957 31.9714 23.957C31.8942 23.957 31.8314 23.9537 31.7829 23.9471C31.7344 23.9405 31.6981 23.9283 31.6738 23.9107C31.6496 23.8931 31.6297 23.8732 31.6143 23.8512L30.0405 21.7121V23.8512C30.0405 23.8666 30.0361 23.8821 30.0273 23.8975C30.0185 23.9107 30.0031 23.9217 29.981 23.9305C29.959 23.9372 29.9292 23.9427 29.8918 23.9471C29.8565 23.9537 29.8113 23.957 29.7562 23.957C29.7033 23.957 29.6581 23.9537 29.6207 23.9471C29.5832 23.9427 29.5534 23.9372 29.5314 23.9305C29.5093 23.9217 29.4939 23.9107 29.4851 23.8975C29.4763 23.8821 29.4719 23.8666 29.4719 23.8512V19.7448C29.4719 19.7272 29.4763 19.7118 29.4851 19.6986C29.4939 19.6853 29.5093 19.6754 29.5314 19.6688C29.5534 19.66 29.5832 19.6534 29.6207 19.649C29.6581 19.6423 29.7033 19.639 29.7562 19.639C29.8113 19.639 29.8565 19.6423 29.8918 19.649C29.9292 19.6534 29.959 19.66 29.981 19.6688C30.0031 19.6754 30.0185 19.6853 30.0273 19.6986C30.0361 19.7118 30.0405 19.7272 30.0405 19.7448V21.6459L31.5548 19.7448C31.568 19.725 31.5835 19.7085 31.6011 19.6952C31.6187 19.682 31.6397 19.6721 31.6639 19.6655C31.6904 19.6567 31.7212 19.6501 31.7565 19.6457C31.794 19.6412 31.8413 19.639 31.8987 19.639C31.956 19.639 32.0023 19.6423 32.0375 19.649C32.0728 19.6534 32.1003 19.66 32.1202 19.6688C32.1422 19.6776 32.1565 19.6886 32.1632 19.7019C32.172 19.7151 32.1764 19.7294 32.1764 19.7448C32.1764 19.7735 32.1687 19.8021 32.1532 19.8308C32.14 19.8595 32.1136 19.8991 32.0739 19.9498L30.6555 21.6459L32.183 23.676C32.2205 23.7333 32.2425 23.7729 32.2491 23.795C32.2579 23.8148 32.2623 23.8314 32.2623 23.8446Z" fill="#00B0F0"/>
<path d="M35.3702 23.7024C35.3702 23.7421 35.368 23.7774 35.3636 23.8082C35.3592 23.8369 35.3515 23.8611 35.3405 23.881C35.3294 23.9008 35.3162 23.9151 35.3008 23.9239C35.2876 23.9328 35.2721 23.9372 35.2545 23.9372H33.2013C33.1506 23.9372 33.1021 23.9206 33.0558 23.8876C33.0118 23.8523 32.9897 23.7917 32.9897 23.7057V19.8903C32.9897 19.8044 33.0118 19.7448 33.0558 19.7118C33.1021 19.6765 33.1506 19.6589 33.2013 19.6589H35.2313C35.249 19.6589 35.2644 19.6633 35.2776 19.6721C35.2931 19.6809 35.3052 19.6952 35.314 19.7151C35.3228 19.7349 35.3294 19.7603 35.3338 19.7911C35.3405 19.8198 35.3438 19.8562 35.3438 19.9002C35.3438 19.9399 35.3405 19.9752 35.3338 20.006C35.3294 20.0347 35.3228 20.0589 35.314 20.0788C35.3052 20.0964 35.2931 20.1096 35.2776 20.1184C35.2644 20.1273 35.249 20.1317 35.2313 20.1317H33.5584V21.474H34.9933C35.0109 21.474 35.0264 21.4795 35.0396 21.4905C35.055 21.4994 35.0671 21.5126 35.076 21.5302C35.087 21.5478 35.0947 21.5721 35.0991 21.6029C35.1035 21.6338 35.1057 21.6702 35.1057 21.7121C35.1057 21.7517 35.1035 21.7859 35.0991 21.8145C35.0947 21.8432 35.087 21.8663 35.076 21.884C35.0671 21.9016 35.055 21.9148 35.0396 21.9237C35.0264 21.9303 35.0109 21.9336 34.9933 21.9336H33.5584V23.4644H35.2545C35.2721 23.4644 35.2876 23.4688 35.3008 23.4776C35.3162 23.4864 35.3294 23.5007 35.3405 23.5206C35.3515 23.5382 35.3592 23.5625 35.3636 23.5933C35.368 23.622 35.3702 23.6583 35.3702 23.7024Z" fill="#00B0F0"/>
<path d="M39.1493 23.8512C39.1493 23.8688 39.1459 23.8843 39.1393 23.8975C39.1327 23.9107 39.1184 23.9217 39.0963 23.9305C39.0743 23.9394 39.0434 23.946 39.0038 23.9504C38.9641 23.9548 38.9112 23.957 38.8451 23.957C38.7878 23.957 38.7404 23.9548 38.7029 23.9504C38.6676 23.946 38.639 23.9394 38.6169 23.9305C38.5949 23.9195 38.5773 23.9052 38.564 23.8876C38.553 23.8699 38.5431 23.8479 38.5343 23.8214L38.1408 22.813C38.0946 22.6984 38.0461 22.5937 37.9954 22.4989C37.9469 22.402 37.8885 22.3193 37.8201 22.251C37.7518 22.1804 37.6714 22.1264 37.5788 22.089C37.4862 22.0493 37.3749 22.0295 37.2449 22.0295H36.8646V23.8512C36.8646 23.8688 36.8591 23.8843 36.8481 23.8975C36.8393 23.9107 36.8239 23.9217 36.8018 23.9305C36.782 23.9372 36.7533 23.9427 36.7159 23.9471C36.6806 23.9537 36.6354 23.957 36.5803 23.957C36.5252 23.957 36.4789 23.9537 36.4414 23.9471C36.4062 23.9427 36.3775 23.9372 36.3555 23.9305C36.3334 23.9217 36.318 23.9107 36.3092 23.8975C36.3004 23.8843 36.296 23.8688 36.296 23.8512V19.8903C36.296 19.8044 36.318 19.7448 36.3621 19.7118C36.4084 19.6765 36.4569 19.6589 36.5076 19.6589H37.4168C37.5248 19.6589 37.614 19.6622 37.6846 19.6688C37.7573 19.6732 37.8223 19.6787 37.8797 19.6853C38.045 19.714 38.1904 19.7592 38.3161 19.8209C38.4439 19.8826 38.5508 19.9608 38.6368 20.0556C38.7227 20.1504 38.7867 20.2595 38.8285 20.3829C38.8726 20.5042 38.8947 20.6386 38.8947 20.7863C38.8947 20.9296 38.8748 21.0585 38.8352 21.1731C38.7977 21.2856 38.7426 21.3858 38.6698 21.474C38.5971 21.56 38.51 21.6349 38.4086 21.6988C38.3073 21.7628 38.1937 21.8168 38.0681 21.8608C38.1386 21.8917 38.2026 21.9314 38.2599 21.9799C38.3172 22.0261 38.3701 22.0824 38.4186 22.1485C38.4693 22.2146 38.5167 22.2906 38.5607 22.3766C38.6048 22.4626 38.6489 22.5596 38.693 22.6676L39.0765 23.6098C39.1074 23.6892 39.1272 23.7454 39.136 23.7785C39.1448 23.8093 39.1493 23.8336 39.1493 23.8512ZM38.2929 20.8458C38.2929 20.6783 38.2555 20.5372 38.1805 20.4226C38.1056 20.3058 37.9799 20.222 37.8036 20.1713C37.7485 20.1559 37.6857 20.1449 37.6152 20.1383C37.5468 20.1317 37.4565 20.1284 37.344 20.1284H36.8646V21.5699H37.4201C37.57 21.5699 37.6989 21.5523 37.8069 21.517C37.9171 21.4795 38.0086 21.4288 38.0813 21.3649C38.1541 21.2988 38.207 21.2216 38.24 21.1335C38.2753 21.0453 38.2929 20.9494 38.2929 20.8458Z" fill="#00B0F0"/>
<path d="M41.0041 22.8593C41.0041 23.029 40.9886 23.1844 40.9578 23.3255C40.9269 23.4666 40.874 23.5867 40.7991 23.6859C40.7241 23.7851 40.6249 23.8622 40.5015 23.9173C40.3803 23.9702 40.2293 23.9967 40.0485 23.9967C39.9868 23.9967 39.9251 23.9912 39.8634 23.9801C39.8039 23.9713 39.7488 23.9581 39.6981 23.9405C39.6474 23.925 39.6033 23.9085 39.5658 23.8909C39.5284 23.871 39.503 23.8545 39.4898 23.8413C39.4788 23.8281 39.4689 23.8148 39.46 23.8016C39.4534 23.7884 39.4468 23.7729 39.4402 23.7553C39.4358 23.7355 39.4325 23.7123 39.4303 23.6859C39.4281 23.6572 39.427 23.6231 39.427 23.5834C39.427 23.5349 39.4281 23.4952 39.4303 23.4644C39.4347 23.4313 39.4413 23.406 39.4501 23.3883C39.4589 23.3685 39.4689 23.3553 39.4799 23.3486C39.4931 23.3398 39.5085 23.3354 39.5262 23.3354C39.5438 23.3354 39.5658 23.3442 39.5923 23.3619C39.6209 23.3773 39.654 23.3949 39.6915 23.4148C39.7311 23.4346 39.7763 23.4533 39.827 23.471C39.8777 23.4864 39.9372 23.4941 40.0056 23.4941C40.0805 23.4941 40.1444 23.4853 40.1973 23.4677C40.2502 23.4478 40.2943 23.4126 40.3296 23.3619C40.3648 23.3112 40.3913 23.2417 40.4089 23.1536C40.4266 23.0632 40.4354 22.9464 40.4354 22.8031V19.7415C40.4354 19.7261 40.4398 19.7118 40.4486 19.6986C40.4574 19.6853 40.4729 19.6743 40.4949 19.6655C40.5169 19.6567 40.5456 19.6501 40.5809 19.6457C40.6183 19.6412 40.6646 19.639 40.7197 19.639C40.7726 19.639 40.8178 19.6412 40.8553 19.6457C40.8927 19.6501 40.9214 19.6567 40.9412 19.6655C40.9633 19.6743 40.9787 19.6853 40.9875 19.6986C40.9985 19.7118 41.0041 19.7261 41.0041 19.7415V22.8593Z" fill="#00B0F0"/>
<path d="M45.2195 23.7355C45.2371 23.784 45.246 23.8236 45.246 23.8545C45.2482 23.8832 45.2405 23.9052 45.2228 23.9206C45.2052 23.9361 45.1754 23.946 45.1336 23.9504C45.0939 23.9548 45.0399 23.957 44.9715 23.957C44.9032 23.957 44.8481 23.9548 44.8062 23.9504C44.7666 23.9482 44.7357 23.9438 44.7137 23.9372C44.6938 23.9283 44.6784 23.9173 44.6674 23.9041C44.6586 23.8909 44.6497 23.8743 44.6409 23.8545L44.2739 22.813H42.4952L42.1447 23.8413C42.1381 23.8611 42.1293 23.8787 42.1183 23.8942C42.1072 23.9074 42.0907 23.9195 42.0687 23.9305C42.0488 23.9394 42.0191 23.946 41.9794 23.9504C41.9419 23.9548 41.8923 23.957 41.8306 23.957C41.7667 23.957 41.7138 23.9537 41.6719 23.9471C41.6322 23.9427 41.6036 23.9328 41.586 23.9173C41.5705 23.9019 41.5628 23.8799 41.5628 23.8512C41.565 23.8203 41.5749 23.7807 41.5926 23.7322L43.0275 19.7581C43.0363 19.7338 43.0473 19.714 43.0605 19.6986C43.076 19.6831 43.0969 19.671 43.1234 19.6622C43.152 19.6534 43.1873 19.6479 43.2292 19.6457C43.2732 19.6412 43.3283 19.639 43.3945 19.639C43.465 19.639 43.5234 19.6412 43.5697 19.6457C43.616 19.6479 43.6535 19.6534 43.6821 19.6622C43.7108 19.671 43.7328 19.6842 43.7482 19.7019C43.7637 19.7173 43.7758 19.7371 43.7846 19.7614L45.2195 23.7355ZM43.3779 20.2276H43.3746L42.6373 22.3601H44.1251L43.3779 20.2276Z" fill="#00B0F0"/>
<path d="M50.7608 21.7352C50.7608 22.1055 50.7134 22.4295 50.6186 22.7072C50.5238 22.9828 50.385 23.212 50.202 23.3949C50.0213 23.5757 49.7987 23.7112 49.5342 23.8016C49.2697 23.892 48.9545 23.9372 48.5886 23.9372H47.6827C47.632 23.9372 47.5835 23.9206 47.5372 23.8876C47.4931 23.8523 47.4711 23.7917 47.4711 23.7057V19.8903C47.4711 19.8044 47.4931 19.7448 47.5372 19.7118C47.5835 19.6765 47.632 19.6589 47.6827 19.6589H48.6514C49.0217 19.6589 49.3347 19.7074 49.5904 19.8044C49.8461 19.8991 50.0599 20.0369 50.2318 20.2176C50.4059 20.3962 50.5371 20.6133 50.6252 20.869C50.7156 21.1246 50.7608 21.4134 50.7608 21.7352ZM50.1624 21.7583C50.1624 21.5269 50.1337 21.312 50.0764 21.1136C50.0191 20.913 49.9287 20.74 49.8053 20.5945C49.684 20.4491 49.5298 20.3356 49.3424 20.254C49.155 20.1724 48.9137 20.1317 48.6183 20.1317H48.0397V23.4611H48.6249C48.8983 23.4611 49.1286 23.4269 49.316 23.3586C49.5033 23.2902 49.6598 23.1855 49.7854 23.0445C49.9111 22.9034 50.0048 22.7271 50.0665 22.5155C50.1304 22.3017 50.1624 22.0493 50.1624 21.7583Z" fill="#00B0F0"/>
<path d="M52.2056 23.8512C52.2056 23.8688 52.2012 23.8843 52.1924 23.8975C52.1836 23.9107 52.1681 23.9217 52.1461 23.9305C52.1241 23.9372 52.0943 23.9427 52.0568 23.9471C52.0216 23.9537 51.9764 23.957 51.9213 23.957C51.8684 23.957 51.8232 23.9537 51.7857 23.9471C51.7482 23.9427 51.7185 23.9372 51.6964 23.9305C51.6744 23.9217 51.659 23.9107 51.6502 23.8975C51.6413 23.8843 51.6369 23.8688 51.6369 23.8512V19.7448C51.6369 19.7272 51.6413 19.7118 51.6502 19.6986C51.6612 19.6853 51.6777 19.6754 51.6998 19.6688C51.724 19.66 51.7538 19.6534 51.789 19.649C51.8265 19.6423 51.8706 19.639 51.9213 19.639C51.9764 19.639 52.0216 19.6423 52.0568 19.649C52.0943 19.6534 52.1241 19.66 52.1461 19.6688C52.1681 19.6754 52.1836 19.6853 52.1924 19.6986C52.2012 19.7118 52.2056 19.7272 52.2056 19.7448V23.8512Z" fill="#00B0F0"/>
<path d="M56.5566 20.2408C56.5566 20.2827 56.5544 20.3201 56.55 20.3532C56.5456 20.384 56.539 20.4105 56.5302 20.4325C56.5214 20.4524 56.5103 20.4667 56.4971 20.4755C56.4839 20.4843 56.4696 20.4887 56.4541 20.4887C56.4277 20.4887 56.3836 20.4678 56.3219 20.4259C56.2602 20.384 56.1775 20.3378 56.0739 20.2871C55.9703 20.2364 55.8458 20.1901 55.7003 20.1482C55.557 20.1063 55.3862 20.0854 55.1878 20.0854C54.952 20.0854 54.7404 20.1284 54.553 20.2143C54.3657 20.3003 54.207 20.4193 54.0769 20.5714C53.9469 20.7235 53.8466 20.9042 53.7761 21.1136C53.7077 21.323 53.6736 21.55 53.6736 21.7947C53.6736 22.068 53.7111 22.3105 53.786 22.5221C53.8631 22.7337 53.9689 22.9122 54.1034 23.0577C54.2379 23.2032 54.3977 23.3134 54.5828 23.3883C54.7702 23.4633 54.9751 23.5007 55.1978 23.5007C55.33 23.5007 55.4634 23.4853 55.5978 23.4544C55.7345 23.4214 55.8612 23.3729 55.978 23.309V22.0625H54.9862C54.9487 22.0625 54.92 22.0438 54.9002 22.0063C54.8826 21.9688 54.8738 21.9104 54.8738 21.8311C54.8738 21.7892 54.876 21.7539 54.8804 21.7253C54.8848 21.6944 54.8914 21.6702 54.9002 21.6525C54.9112 21.6327 54.9233 21.6184 54.9366 21.6096C54.9498 21.6007 54.9663 21.5963 54.9862 21.5963H56.345C56.3693 21.5963 56.3935 21.6007 56.4178 21.6096C56.442 21.6184 56.4641 21.6316 56.4839 21.6492C56.5037 21.6669 56.5192 21.6911 56.5302 21.722C56.5412 21.7528 56.5467 21.7881 56.5467 21.8278V23.4578C56.5467 23.5151 56.5368 23.5647 56.517 23.6065C56.4971 23.6484 56.4552 23.6859 56.3913 23.7189C56.3274 23.7498 56.2447 23.784 56.1433 23.8214C56.042 23.8589 55.9373 23.8909 55.8293 23.9173C55.7213 23.9438 55.6121 23.9636 55.5019 23.9768C55.3917 23.9901 55.2826 23.9967 55.1746 23.9967C54.844 23.9967 54.5486 23.946 54.2885 23.8446C54.0285 23.741 53.808 23.5944 53.6273 23.4049C53.4488 23.2153 53.3121 22.9883 53.2173 22.7238C53.1225 22.4593 53.0752 22.1639 53.0752 21.8377C53.0752 21.4983 53.1259 21.1908 53.2272 20.9153C53.3308 20.6397 53.4752 20.405 53.6604 20.211C53.8477 20.0171 54.0714 19.8672 54.3315 19.7614C54.5938 19.6534 54.8837 19.5994 55.2011 19.5994C55.3642 19.5994 55.5174 19.6137 55.6606 19.6423C55.8039 19.671 55.9306 19.7052 56.0409 19.7448C56.1533 19.7823 56.2469 19.8242 56.3219 19.8705C56.399 19.9146 56.4519 19.9509 56.4806 19.9796C56.5092 20.0082 56.5291 20.0413 56.5401 20.0788C56.5511 20.1162 56.5566 20.1702 56.5566 20.2408Z" fill="#00B0F0"/>
<path d="M58.1833 23.8512C58.1833 23.8688 58.1789 23.8843 58.1701 23.8975C58.1613 23.9107 58.1458 23.9217 58.1238 23.9305C58.1017 23.9372 58.072 23.9427 58.0345 23.9471C57.9993 23.9537 57.9541 23.957 57.899 23.957C57.8461 23.957 57.8009 23.9537 57.7634 23.9471C57.7259 23.9427 57.6962 23.9372 57.6741 23.9305C57.6521 23.9217 57.6367 23.9107 57.6279 23.8975C57.619 23.8843 57.6146 23.8688 57.6146 23.8512V19.7448C57.6146 19.7272 57.619 19.7118 57.6279 19.6986C57.6389 19.6853 57.6554 19.6754 57.6774 19.6688C57.7017 19.66 57.7314 19.6534 57.7667 19.649C57.8042 19.6423 57.8483 19.639 57.899 19.639C57.9541 19.639 57.9993 19.6423 58.0345 19.649C58.072 19.6534 58.1017 19.66 58.1238 19.6688C58.1458 19.6754 58.1613 19.6853 58.1701 19.6986C58.1789 19.7118 58.1833 19.7272 58.1833 19.7448V23.8512Z" fill="#00B0F0"/>
<path d="M62.002 19.9035C62.002 19.9454 61.9998 19.9818 61.9954 20.0126C61.991 20.0435 61.9833 20.0689 61.9723 20.0887C61.9634 20.1063 61.9513 20.1195 61.9359 20.1284C61.9227 20.1372 61.9072 20.1416 61.8896 20.1416H60.6861V23.8512C60.6861 23.8688 60.6817 23.8843 60.6729 23.8975C60.6641 23.9107 60.6487 23.9217 60.6266 23.9305C60.6046 23.9372 60.5748 23.9427 60.5373 23.9471C60.5021 23.9537 60.4569 23.957 60.4018 23.957C60.3489 23.957 60.3037 23.9537 60.2662 23.9471C60.2288 23.9427 60.199 23.9372 60.177 23.9305C60.1549 23.9217 60.1395 23.9107 60.1307 23.8975C60.1219 23.8843 60.1175 23.8688 60.1175 23.8512V20.1416H58.914C58.8964 20.1416 58.8798 20.1372 58.8644 20.1284C58.8512 20.1195 58.8401 20.1063 58.8313 20.0887C58.8225 20.0689 58.8148 20.0435 58.8082 20.0126C58.8038 19.9818 58.8016 19.9454 58.8016 19.9035C58.8016 19.8617 58.8038 19.8253 58.8082 19.7944C58.8148 19.7614 58.8225 19.7349 58.8313 19.7151C58.8401 19.6952 58.8512 19.6809 58.8644 19.6721C58.8798 19.6633 58.8964 19.6589 58.914 19.6589H61.8896C61.9072 19.6589 61.9227 19.6633 61.9359 19.6721C61.9513 19.6809 61.9634 19.6952 61.9723 19.7151C61.9833 19.7349 61.991 19.7614 61.9954 19.7944C61.9998 19.8253 62.002 19.8617 62.002 19.9035Z" fill="#00B0F0"/>
<path d="M65.295 23.7355C65.3127 23.784 65.3215 23.8236 65.3215 23.8545C65.3237 23.8832 65.316 23.9052 65.2983 23.9206C65.2807 23.9361 65.251 23.946 65.2091 23.9504C65.1694 23.9548 65.1154 23.957 65.0471 23.957C64.9787 23.957 64.9236 23.9548 64.8818 23.9504C64.8421 23.9482 64.8112 23.9438 64.7892 23.9372C64.7693 23.9283 64.7539 23.9173 64.7429 23.9041C64.7341 23.8909 64.7253 23.8743 64.7164 23.8545L64.3494 22.813H62.5707L62.2202 23.8413C62.2136 23.8611 62.2048 23.8787 62.1938 23.8942C62.1828 23.9074 62.1662 23.9195 62.1442 23.9305C62.1243 23.9394 62.0946 23.946 62.0549 23.9504C62.0174 23.9548 61.9679 23.957 61.9061 23.957C61.8422 23.957 61.7893 23.9537 61.7474 23.9471C61.7078 23.9427 61.6791 23.9328 61.6615 23.9173C61.646 23.9019 61.6383 23.8799 61.6383 23.8512C61.6405 23.8203 61.6505 23.7807 61.6681 23.7322L63.103 19.7581C63.1118 19.7338 63.1228 19.714 63.1361 19.6986C63.1515 19.6831 63.1724 19.671 63.1989 19.6622C63.2275 19.6534 63.2628 19.6479 63.3047 19.6457C63.3488 19.6412 63.4039 19.639 63.47 19.639C63.5405 19.639 63.5989 19.6412 63.6452 19.6457C63.6915 19.6479 63.729 19.6534 63.7576 19.6622C63.7863 19.671 63.8083 19.6842 63.8238 19.7019C63.8392 19.7173 63.8513 19.7371 63.8601 19.7614L65.295 23.7355ZM63.4535 20.2276H63.4502L62.7129 22.3601H64.2007L63.4535 20.2276Z" fill="#00B0F0"/>
<path d="M68.231 23.6892C68.231 23.7333 68.2288 23.7707 68.2244 23.8016C68.22 23.8303 68.2122 23.8556 68.2012 23.8776C68.1924 23.8975 68.1803 23.9129 68.1649 23.9239C68.1516 23.9328 68.1351 23.9372 68.1153 23.9372H66.2241C66.1734 23.9372 66.1249 23.9206 66.0786 23.8876C66.0345 23.8523 66.0125 23.7917 66.0125 23.7057V19.7448C66.0125 19.7272 66.0169 19.7118 66.0257 19.6986C66.0345 19.6853 66.05 19.6754 66.072 19.6688C66.094 19.66 66.1238 19.6534 66.1613 19.649C66.1987 19.6423 66.2439 19.639 66.2968 19.639C66.3519 19.639 66.3971 19.6423 66.4324 19.649C66.4699 19.6534 66.4996 19.66 66.5217 19.6688C66.5437 19.6754 66.5591 19.6853 66.5679 19.6986C66.5768 19.7118 66.5812 19.7272 66.5812 19.7448V23.4445H68.1153C68.1351 23.4445 68.1516 23.45 68.1649 23.4611C68.1803 23.4699 68.1924 23.4842 68.2012 23.504C68.2122 23.5217 68.22 23.5459 68.2244 23.5768C68.2288 23.6076 68.231 23.6451 68.231 23.6892Z" fill="#00B0F0"/>
<path d="M12.7618 3.8445C12.7618 4.28886 12.7102 4.75306 12.6071 5.23709C12.5118 5.72113 12.3531 6.19723 12.131 6.66539C11.9088 7.12562 11.6192 7.56601 11.2621 7.98657C10.9129 8.39919 10.4805 8.76816 9.96472 9.0935C9.45688 9.4109 8.86572 9.66482 8.19125 9.85526C7.51677 10.0378 6.72327 10.129 5.81075 10.129H4.20392L3.21601 15.0566C3.20014 15.136 3.16046 15.2074 3.09698 15.2709C3.0335 15.3344 2.93432 15.3859 2.79942 15.4256C2.66453 15.4653 2.49392 15.4931 2.28762 15.5089C2.08131 15.5327 1.82739 15.5446 1.52586 15.5446C1.23226 15.5446 0.986277 15.5327 0.787902 15.5089C0.597463 15.4931 0.446698 15.4653 0.335608 15.4256C0.224518 15.3859 0.149136 15.3383 0.109461 15.2828C0.0697859 15.2193 0.061851 15.1439 0.0856559 15.0566L2.85893 1.19025C2.93035 0.817304 3.08508 0.539579 3.32313 0.357074C3.56118 0.166635 3.85478 0.0714149 4.20392 0.0714149H7.57232C7.98494 0.0714149 8.35391 0.0872849 8.67925 0.119025C9.00458 0.14283 9.32595 0.186472 9.64335 0.249952C10.1274 0.345172 10.5598 0.491969 10.9407 0.690344C11.3295 0.888719 11.6588 1.13867 11.9286 1.4402C12.1984 1.7338 12.4047 2.08293 12.5476 2.48762C12.6904 2.88437 12.7618 3.33666 12.7618 3.8445ZM9.46481 4.20158C9.46481 3.8207 9.37356 3.4914 9.19106 3.21367C9.00855 2.93595 8.72686 2.74154 8.34598 2.63045C8.17934 2.5749 7.99287 2.5392 7.78656 2.52333C7.58025 2.49952 7.35014 2.48762 7.09622 2.48762H5.71553L4.69192 7.71281H6.12021C6.57251 7.71281 6.95736 7.66123 7.27476 7.55808C7.60009 7.44699 7.88178 7.30416 8.11983 7.12959C8.36582 6.95502 8.57213 6.74871 8.73876 6.51066C8.91333 6.27261 9.05219 6.02266 9.15535 5.7608C9.26644 5.49895 9.34579 5.23709 9.3934 4.97524C9.44101 4.70545 9.46481 4.44756 9.46481 4.20158Z" fill="#0070C0"/>
<path d="M24.7648 14.3068C24.8045 14.5924 24.8203 14.8186 24.8124 14.9852C24.8124 15.1519 24.7569 15.2788 24.6458 15.3661C24.5426 15.4455 24.368 15.4931 24.1221 15.5089C23.8761 15.5327 23.5388 15.5446 23.1103 15.5446C22.8088 15.5446 22.5628 15.5367 22.3724 15.5208C22.182 15.5129 22.0352 15.4931 21.932 15.4613C21.8288 15.4296 21.7574 15.382 21.7178 15.3185C21.6781 15.255 21.6543 15.1677 21.6463 15.0566L21.2298 11.962H15.4451L13.8502 14.9852C13.7947 15.0963 13.7312 15.1915 13.6598 15.2709C13.5884 15.3423 13.4852 15.3978 13.3503 15.4375C13.2154 15.4772 13.0329 15.505 12.8028 15.5208C12.5806 15.5367 12.2989 15.5446 11.9577 15.5446C11.5927 15.5446 11.311 15.5327 11.1126 15.5089C10.9063 15.4851 10.7714 15.4296 10.708 15.3423C10.6365 15.2471 10.6286 15.1162 10.6842 14.9495C10.7318 14.7829 10.831 14.5607 10.9817 14.283L18.4565 0.618929C18.5358 0.484034 18.6152 0.376912 18.6945 0.297562C18.7739 0.210277 18.885 0.146797 19.0278 0.107122C19.1786 0.0595124 19.3769 0.03174 19.6229 0.023805C19.8768 0.00793499 20.2061 0 20.6108 0C21.079 0 21.448 0.00793499 21.7178 0.023805C21.9955 0.03174 22.2097 0.0595124 22.3605 0.107122C22.5113 0.146797 22.6104 0.210277 22.6581 0.297562C22.7057 0.384847 22.7374 0.503872 22.7533 0.654637L24.7648 14.3068ZM20.0871 3.01133H20.0752L16.6354 9.55769H20.9679L20.0871 3.01133Z" fill="#0070C0"/>
<path d="M41.0408 0.499904C41.0408 0.642734 40.9892 0.793499 40.886 0.952199C40.7829 1.1109 40.6163 1.31721 40.3861 1.57113L34.9348 7.34383L38.1723 14.2116C38.2358 14.3703 38.2834 14.5091 38.3151 14.6282C38.3468 14.7392 38.3627 14.8424 38.3627 14.9376C38.3627 15.0487 38.3349 15.1439 38.2794 15.2233C38.2318 15.2947 38.1445 15.3542 38.0175 15.4018C37.8906 15.4494 37.716 15.4851 37.4938 15.5089C37.2796 15.5327 37.0058 15.5446 36.6726 15.5446C36.3393 15.5446 36.0695 15.5327 35.8632 15.5089C35.6569 15.4931 35.4942 15.4653 35.3752 15.4256C35.2562 15.3859 35.1689 15.3304 35.1133 15.259C35.0578 15.1876 35.0142 15.1043 34.9824 15.009L31.7211 7.71281L30.2809 15.0447C30.2651 15.132 30.2254 15.2074 30.1619 15.2709C30.0984 15.3264 29.9992 15.378 29.8643 15.4256C29.7374 15.4653 29.5708 15.4931 29.3644 15.5089C29.1661 15.5327 28.9161 15.5446 28.6146 15.5446C28.3051 15.5446 28.0512 15.5327 27.8528 15.5089C27.6624 15.4931 27.5116 15.4653 27.4005 15.4256C27.2894 15.378 27.2141 15.3264 27.1744 15.2709C27.1347 15.2074 27.1268 15.132 27.1506 15.0447L30.0548 0.488002C30.0627 0.400717 30.0984 0.329302 30.1619 0.273757C30.2254 0.210277 30.3206 0.1587 30.4476 0.119025C30.5825 0.0793499 30.7491 0.0515774 30.9475 0.0357075C31.1538 0.0119025 31.4117 0 31.7211 0C32.0227 0 32.2686 0.0119025 32.4591 0.0357075C32.6575 0.0515774 32.8122 0.0793499 32.9233 0.119025C33.0344 0.1587 33.1098 0.210277 33.1494 0.273757C33.1891 0.329302 33.201 0.400717 33.1851 0.488002L31.8759 7.07008L37.5891 0.535612C37.6684 0.440392 37.7517 0.357074 37.839 0.28566C37.9342 0.214245 38.0533 0.1587 38.1961 0.119025C38.3389 0.0793499 38.5135 0.0515774 38.7198 0.0357075C38.9261 0.0119025 39.184 0 39.4935 0C39.8109 0 40.0687 0.0119025 40.2671 0.0357075C40.4734 0.0515774 40.6321 0.0833174 40.7432 0.130927C40.8543 0.170602 40.9297 0.22218 40.9694 0.28566C41.017 0.341205 41.0408 0.412619 41.0408 0.499904Z" fill="#0070C0"/>
<path d="M53.5556 14.3068C53.5952 14.5924 53.6111 14.8186 53.6032 14.9852C53.6032 15.1519 53.5476 15.2788 53.4366 15.3661C53.3334 15.4455 53.1588 15.4931 52.9128 15.5089C52.6669 15.5327 52.3296 15.5446 51.9011 15.5446C51.5996 15.5446 51.3536 15.5367 51.1632 15.5208C50.9727 15.5129 50.8259 15.4931 50.7228 15.4613C50.6196 15.4296 50.5482 15.382 50.5085 15.3185C50.4689 15.255 50.4451 15.1677 50.4371 15.0566L50.0205 11.962H44.2359L42.641 14.9852C42.5855 15.0963 42.522 15.1915 42.4506 15.2709C42.3791 15.3423 42.276 15.3978 42.1411 15.4375C42.0062 15.4772 41.8237 15.505 41.5936 15.5208C41.3714 15.5367 41.0897 15.5446 40.7485 15.5446C40.3835 15.5446 40.1018 15.5327 39.9034 15.5089C39.6971 15.4851 39.5622 15.4296 39.4987 15.3423C39.4273 15.2471 39.4194 15.1162 39.4749 14.9495C39.5225 14.7829 39.6217 14.5607 39.7725 14.283L47.2473 0.618929C47.3266 0.484034 47.406 0.376912 47.4853 0.297562C47.5647 0.210277 47.6758 0.146797 47.8186 0.107122C47.9693 0.0595124 48.1677 0.03174 48.4137 0.023805C48.6676 0.00793499 48.9969 0 49.4016 0C49.8698 0 50.2388 0.00793499 50.5085 0.023805C50.7863 0.03174 51.0005 0.0595124 51.1513 0.107122C51.302 0.146797 51.4012 0.210277 51.4488 0.297562C51.4964 0.384847 51.5282 0.503872 51.5441 0.654637L53.5556 14.3068ZM48.8779 3.01133H48.866L45.4262 9.55769H49.7587L48.8779 3.01133Z" fill="#0070C0"/>
<path d="M68.7841 3.42792C68.7841 3.93575 68.7127 4.43963 68.5699 4.93953C68.435 5.43944 68.2168 5.91157 67.9153 6.35593C67.6137 6.80029 67.2209 7.201 66.7369 7.55808C66.2608 7.91515 65.6776 8.20081 64.9873 8.41506C65.3681 8.56582 65.6855 8.86735 65.9394 9.31964C66.2013 9.764 66.4156 10.375 66.5822 11.1526L67.213 14.283C67.2448 14.4576 67.2686 14.6163 67.2844 14.7591C67.3082 14.894 67.3201 15.009 67.3201 15.1043C67.3201 15.1836 67.2924 15.251 67.2368 15.3066C67.1892 15.3621 67.098 15.4097 66.9631 15.4494C66.8282 15.4812 66.6417 15.505 66.4036 15.5208C66.1735 15.5367 65.8799 15.5446 65.5229 15.5446C65.1896 15.5446 64.9198 15.5327 64.7135 15.5089C64.5151 15.4931 64.3604 15.4653 64.2493 15.4256C64.1382 15.378 64.0628 15.3185 64.0231 15.2471C63.9914 15.1757 63.9676 15.0923 63.9517 14.9971L63.3566 11.5811C63.2931 11.1844 63.2058 10.8352 63.0948 10.5337C62.9916 10.2322 62.8567 9.98222 62.6901 9.78384C62.5234 9.57753 62.3171 9.42677 62.0711 9.33155C61.8331 9.22839 61.5474 9.17682 61.2142 9.17682H60.2382L59.0598 15.0566C59.0439 15.136 59.0043 15.2074 58.9408 15.2709C58.8773 15.3344 58.7781 15.3859 58.6432 15.4256C58.5163 15.4653 58.3496 15.4931 58.1433 15.5089C57.937 15.5327 57.6831 15.5446 57.3816 15.5446C57.08 15.5446 56.8301 15.5327 56.6317 15.5089C56.4413 15.4931 56.2905 15.4653 56.1794 15.4256C56.0683 15.3859 55.9929 15.3383 55.9533 15.2828C55.9136 15.2193 55.9057 15.1439 55.9295 15.0566L58.7384 1.05932C58.8019 0.710182 58.9408 0.460229 59.155 0.309465C59.3772 0.150765 59.6311 0.0714149 59.9168 0.0714149H64.047C64.769 0.0714149 65.4197 0.138862 65.999 0.273757C66.5862 0.408652 67.0861 0.614962 67.4987 0.892686C67.9113 1.17041 68.2287 1.51955 68.4509 1.9401C68.673 2.36066 68.7841 2.8566 68.7841 3.42792ZM65.4276 4.01114C65.4276 3.78896 65.388 3.58265 65.3086 3.39221C65.2372 3.20177 65.1182 3.0391 64.9515 2.90421C64.7849 2.76138 64.5667 2.65425 64.2969 2.58284C64.035 2.50349 63.7177 2.46381 63.3447 2.46381H61.5712L60.7024 6.83203H62.1902C62.7853 6.83203 63.2892 6.74871 63.7018 6.58207C64.1144 6.4075 64.4477 6.18532 64.7016 5.91553C64.9555 5.64574 65.138 5.34818 65.2491 5.02285C65.3681 4.68958 65.4276 4.35234 65.4276 4.01114Z" fill="#0070C0"/>
</svg>
