<svg width="72" height="32" viewBox="0 0 72 32" fill="none" xmlns="http://www.w3.org/2000/svg">
<path d="M3.30518 26.8726C3.30518 27.0936 3.26872 27.293 3.1958 27.4707C3.12288 27.6484 3.01807 27.8 2.88135 27.9253C2.74691 28.0506 2.58057 28.1475 2.38232 28.2158C2.18636 28.2842 1.95166 28.3184 1.67822 28.3184H1.17578V29.9111C1.17578 29.9294 1.17008 29.9453 1.15869 29.959C1.14958 29.9727 1.13363 29.984 1.11084 29.9932C1.09033 30 1.06071 30.0057 1.02197 30.0103C0.985514 30.0171 0.938802 30.0205 0.881836 30.0205C0.82487 30.0205 0.777018 30.0171 0.738281 30.0103C0.701823 30.0057 0.672201 30 0.649414 29.9932C0.626628 29.984 0.610677 29.9727 0.601562 29.959C0.592448 29.9453 0.587891 29.9294 0.587891 29.9111V25.8301C0.587891 25.7389 0.611816 25.674 0.659668 25.6353C0.70752 25.5965 0.761068 25.5771 0.820312 25.5771H1.76709C1.86279 25.5771 1.95394 25.5817 2.04053 25.5908C2.12939 25.5977 2.23307 25.6147 2.35156 25.6421C2.47233 25.6672 2.59424 25.7161 2.71729 25.7891C2.84261 25.8597 2.94857 25.9474 3.03516 26.0522C3.12174 26.1571 3.18783 26.279 3.2334 26.418C3.28125 26.5547 3.30518 26.7062 3.30518 26.8726ZM2.68652 26.9204C2.68652 26.7404 2.65234 26.59 2.58398 26.4692C2.5179 26.3485 2.43473 26.2585 2.33447 26.1992C2.23649 26.14 2.13395 26.1024 2.02686 26.0864C1.92204 26.0705 1.8195 26.0625 1.71924 26.0625H1.17578V27.8364H1.70557C1.8833 27.8364 2.03027 27.8136 2.14648 27.7681C2.26497 27.7225 2.3641 27.6598 2.44385 27.5801C2.5236 27.498 2.58398 27.4012 2.625 27.2896C2.66602 27.1756 2.68652 27.0526 2.68652 26.9204ZM6.99658 29.7915C7.01481 29.8416 7.02393 29.8826 7.02393 29.9146C7.0262 29.9442 7.01823 29.967 7 29.9829C6.98177 29.9989 6.95101 30.0091 6.90771 30.0137C6.8667 30.0182 6.81087 30.0205 6.74023 30.0205C6.6696 30.0205 6.61263 30.0182 6.56934 30.0137C6.52832 30.0114 6.49642 30.0068 6.47363 30C6.45312 29.9909 6.43717 29.9795 6.42578 29.9658C6.41667 29.9521 6.40755 29.9351 6.39844 29.9146L6.01904 28.8379H4.18018L3.81787 29.9009C3.81104 29.9214 3.80192 29.9396 3.79053 29.9556C3.77913 29.9692 3.76204 29.9818 3.73926 29.9932C3.71875 30.0023 3.68799 30.0091 3.64697 30.0137C3.60824 30.0182 3.55697 30.0205 3.49316 30.0205C3.42708 30.0205 3.3724 30.0171 3.3291 30.0103C3.28809 30.0057 3.25846 29.9954 3.24023 29.9795C3.22428 29.9635 3.21631 29.9408 3.21631 29.9111C3.21859 29.8792 3.22884 29.8382 3.24707 29.7881L4.73047 25.6797C4.73958 25.6546 4.75098 25.6341 4.76465 25.6182C4.7806 25.6022 4.80225 25.5897 4.82959 25.5806C4.85921 25.5715 4.89567 25.5658 4.93896 25.5635C4.98454 25.5589 5.0415 25.5566 5.10986 25.5566C5.18278 25.5566 5.24316 25.5589 5.29102 25.5635C5.33887 25.5658 5.3776 25.5715 5.40723 25.5806C5.43685 25.5897 5.45964 25.6034 5.47559 25.6216C5.49154 25.6375 5.50407 25.658 5.51318 25.6831L6.99658 29.7915ZM5.09277 26.165H5.08936L4.32715 28.3696H5.86523L5.09277 26.165ZM11.0811 29.7573C11.0811 29.8029 11.0731 29.8416 11.0571 29.8735C11.0435 29.9054 11.0241 29.9316 10.999 29.9521C10.9762 29.9727 10.95 29.9875 10.9204 29.9966C10.8908 30.0057 10.8612 30.0103 10.8315 30.0103H10.6436C10.5843 30.0103 10.5319 30.0046 10.4863 29.9932C10.443 29.9795 10.4009 29.9567 10.3599 29.9248C10.3211 29.8906 10.2812 29.8451 10.2402 29.7881C10.2015 29.7311 10.1582 29.6582 10.1104 29.5693L8.71582 27.0537C8.6429 26.9238 8.56885 26.7882 8.49365 26.647C8.42074 26.5034 8.35238 26.3644 8.28857 26.23H8.28174C8.2863 26.394 8.28971 26.5615 8.29199 26.7324C8.29427 26.9033 8.29541 27.0731 8.29541 27.2417V29.9111C8.29541 29.9271 8.29085 29.943 8.28174 29.959C8.27262 29.9727 8.25667 29.984 8.23389 29.9932C8.21338 30 8.1849 30.0057 8.14844 30.0103C8.11426 30.0171 8.06982 30.0205 8.01514 30.0205C7.96045 30.0205 7.91488 30.0171 7.87842 30.0103C7.84424 30.0057 7.81689 30 7.79639 29.9932C7.77588 29.984 7.76107 29.9727 7.75195 29.959C7.74284 29.943 7.73828 29.9271 7.73828 29.9111V25.8301C7.73828 25.7389 7.76335 25.674 7.81348 25.6353C7.86361 25.5965 7.91829 25.5771 7.97754 25.5771H8.25781C8.32389 25.5771 8.37858 25.5828 8.42188 25.5942C8.46745 25.6056 8.50732 25.625 8.5415 25.6523C8.57796 25.6774 8.61214 25.7139 8.64404 25.7617C8.67822 25.8073 8.71468 25.8654 8.75342 25.936L9.82666 27.8774C9.89274 27.9959 9.95654 28.1121 10.0181 28.2261C10.0796 28.3377 10.1388 28.4482 10.1958 28.5576C10.2528 28.667 10.3086 28.7752 10.3633 28.8823C10.4202 28.9871 10.4761 29.0931 10.5308 29.2002H10.5342C10.5296 29.0202 10.5262 28.8333 10.5239 28.6396C10.5239 28.4437 10.5239 28.2557 10.5239 28.0757V25.6763C10.5239 25.6603 10.5285 25.6455 10.5376 25.6318C10.5467 25.6182 10.5615 25.6068 10.582 25.5977C10.6048 25.5863 10.6333 25.5783 10.6675 25.5737C10.7039 25.5692 10.7507 25.5669 10.8076 25.5669C10.8577 25.5669 10.901 25.5692 10.9375 25.5737C10.974 25.5783 11.0024 25.5863 11.0229 25.5977C11.0435 25.6068 11.0583 25.6182 11.0674 25.6318C11.0765 25.6455 11.0811 25.6603 11.0811 25.6763V29.7573ZM15.6577 27.7236C15.6577 28.1064 15.6087 28.4414 15.5107 28.7285C15.4128 29.0133 15.2692 29.2503 15.0801 29.4395C14.8932 29.6263 14.6631 29.7664 14.3896 29.8599C14.1162 29.9533 13.7904 30 13.4121 30H12.4756C12.4232 30 12.373 29.9829 12.3252 29.9487C12.2796 29.9123 12.2568 29.8496 12.2568 29.7607V25.8164C12.2568 25.7275 12.2796 25.666 12.3252 25.6318C12.373 25.5954 12.4232 25.5771 12.4756 25.5771H13.4771C13.8599 25.5771 14.1834 25.6273 14.4478 25.7275C14.7121 25.8255 14.9331 25.9679 15.1108 26.1548C15.2909 26.3394 15.4264 26.5638 15.5176 26.8281C15.611 27.0924 15.6577 27.391 15.6577 27.7236ZM15.0391 27.7476C15.0391 27.5083 15.0094 27.2861 14.9502 27.0811C14.891 26.8737 14.7975 26.6948 14.6699 26.5444C14.5446 26.394 14.3851 26.2767 14.1914 26.1924C13.9977 26.1081 13.7482 26.0659 13.4429 26.0659H12.8447V29.5078H13.4497C13.7323 29.5078 13.9704 29.4725 14.1641 29.4019C14.3577 29.3312 14.5195 29.223 14.6494 29.0771C14.7793 28.9313 14.8761 28.749 14.9399 28.5303C15.006 28.3092 15.0391 28.0483 15.0391 27.7476ZM19.8892 28.3662C19.8892 28.6351 19.8493 28.8755 19.7695 29.0874C19.6921 29.297 19.5804 29.4748 19.4346 29.6206C19.2887 29.7664 19.111 29.877 18.9014 29.9521C18.6917 30.0273 18.4536 30.0649 18.187 30.0649C17.9432 30.0649 17.721 30.0296 17.5205 29.959C17.32 29.8883 17.1479 29.7847 17.0044 29.6479C16.8608 29.509 16.7503 29.3358 16.6729 29.1284C16.5954 28.9211 16.5566 28.6818 16.5566 28.4106V25.666C16.5566 25.6478 16.5612 25.6318 16.5703 25.6182C16.5794 25.6045 16.5954 25.5942 16.6182 25.5874C16.641 25.5783 16.6706 25.5715 16.707 25.5669C16.7435 25.5601 16.7913 25.5566 16.8506 25.5566C16.9053 25.5566 16.952 25.5601 16.9907 25.5669C17.0295 25.5715 17.0591 25.5783 17.0796 25.5874C17.1024 25.5942 17.1183 25.6045 17.1274 25.6182C17.1366 25.6318 17.1411 25.6478 17.1411 25.666V28.3389C17.1411 28.5439 17.1662 28.7228 17.2163 28.8755C17.2664 29.0282 17.3382 29.1558 17.4316 29.2583C17.5273 29.3586 17.6413 29.4349 17.7734 29.4873C17.9079 29.5374 18.0583 29.5625 18.2246 29.5625C18.3955 29.5625 18.547 29.5374 18.6792 29.4873C18.8136 29.4372 18.9264 29.362 19.0176 29.2617C19.111 29.1615 19.1816 29.0373 19.2295 28.8892C19.2796 28.741 19.3047 28.5679 19.3047 28.3696V25.666C19.3047 25.6478 19.3092 25.6318 19.3184 25.6182C19.3275 25.6045 19.3434 25.5942 19.3662 25.5874C19.389 25.5783 19.4186 25.5715 19.4551 25.5669C19.4938 25.5601 19.5417 25.5566 19.5986 25.5566C19.6533 25.5566 19.6989 25.5601 19.7354 25.5669C19.7741 25.5715 19.8037 25.5783 19.8242 25.5874C19.847 25.5942 19.863 25.6045 19.8721 25.6182C19.8835 25.6318 19.8892 25.6478 19.8892 25.666V28.3662ZM24.2095 29.7915C24.2277 29.8416 24.2368 29.8826 24.2368 29.9146C24.2391 29.9442 24.2311 29.967 24.2129 29.9829C24.1947 29.9989 24.1639 30.0091 24.1206 30.0137C24.0796 30.0182 24.0238 30.0205 23.9531 30.0205C23.8825 30.0205 23.8255 30.0182 23.7822 30.0137C23.7412 30.0114 23.7093 30.0068 23.6865 30C23.666 29.9909 23.6501 29.9795 23.6387 29.9658C23.6296 29.9521 23.6204 29.9351 23.6113 29.9146L23.2319 28.8379H21.3931L21.0308 29.9009C21.0239 29.9214 21.0148 29.9396 21.0034 29.9556C20.992 29.9692 20.9749 29.9818 20.9521 29.9932C20.9316 30.0023 20.9009 30.0091 20.8599 30.0137C20.8211 30.0182 20.7699 30.0205 20.7061 30.0205C20.64 30.0205 20.5853 30.0171 20.542 30.0103C20.501 30.0057 20.4714 29.9954 20.4531 29.9795C20.4372 29.9635 20.4292 29.9408 20.4292 29.9111C20.4315 29.8792 20.4417 29.8382 20.46 29.7881L21.9434 25.6797C21.9525 25.6546 21.9639 25.6341 21.9775 25.6182C21.9935 25.6022 22.0151 25.5897 22.0425 25.5806C22.0721 25.5715 22.1086 25.5658 22.1519 25.5635C22.1974 25.5589 22.2544 25.5566 22.3228 25.5566C22.3957 25.5566 22.4561 25.5589 22.5039 25.5635C22.5518 25.5658 22.5905 25.5715 22.6201 25.5806C22.6497 25.5897 22.6725 25.6034 22.6885 25.6216C22.7044 25.6375 22.717 25.658 22.7261 25.6831L24.2095 29.7915ZM22.3057 26.165H22.3022L21.54 28.3696H23.0781L22.3057 26.165ZM28.2939 29.7573C28.2939 29.8029 28.286 29.8416 28.27 29.8735C28.2563 29.9054 28.237 29.9316 28.2119 29.9521C28.1891 29.9727 28.1629 29.9875 28.1333 29.9966C28.1037 30.0057 28.0741 30.0103 28.0444 30.0103H27.8564C27.7972 30.0103 27.7448 30.0046 27.6992 29.9932C27.6559 29.9795 27.6138 29.9567 27.5728 29.9248C27.534 29.8906 27.4941 29.8451 27.4531 29.7881C27.4144 29.7311 27.3711 29.6582 27.3232 29.5693L25.9287 27.0537C25.8558 26.9238 25.7817 26.7882 25.7065 26.647C25.6336 26.5034 25.5653 26.3644 25.5015 26.23H25.4946C25.4992 26.394 25.5026 26.5615 25.5049 26.7324C25.5072 26.9033 25.5083 27.0731 25.5083 27.2417V29.9111C25.5083 29.9271 25.5037 29.943 25.4946 29.959C25.4855 29.9727 25.4696 29.984 25.4468 29.9932C25.4263 30 25.3978 30.0057 25.3613 30.0103C25.3271 30.0171 25.2827 30.0205 25.228 30.0205C25.1733 30.0205 25.1278 30.0171 25.0913 30.0103C25.0571 30.0057 25.0298 30 25.0093 29.9932C24.9888 29.984 24.974 29.9727 24.9648 29.959C24.9557 29.943 24.9512 29.9271 24.9512 29.9111V25.8301C24.9512 25.7389 24.9762 25.674 25.0264 25.6353C25.0765 25.5965 25.1312 25.5771 25.1904 25.5771H25.4707C25.5368 25.5771 25.5915 25.5828 25.6348 25.5942C25.6803 25.6056 25.7202 25.625 25.7544 25.6523C25.7909 25.6774 25.825 25.7139 25.8569 25.7617C25.8911 25.8073 25.9276 25.8654 25.9663 25.936L27.0396 27.8774C27.1056 27.9959 27.1694 28.1121 27.231 28.2261C27.2925 28.3377 27.3517 28.4482 27.4087 28.5576C27.4657 28.667 27.5215 28.7752 27.5762 28.8823C27.6331 28.9871 27.689 29.0931 27.7437 29.2002H27.7471C27.7425 29.0202 27.7391 28.8333 27.7368 28.6396C27.7368 28.4437 27.7368 28.2557 27.7368 28.0757V25.6763C27.7368 25.6603 27.7414 25.6455 27.7505 25.6318C27.7596 25.6182 27.7744 25.6068 27.7949 25.5977C27.8177 25.5863 27.8462 25.5783 27.8804 25.5737C27.9168 25.5692 27.9635 25.5669 28.0205 25.5669C28.0706 25.5669 28.1139 25.5692 28.1504 25.5737C28.1868 25.5783 28.2153 25.5863 28.2358 25.5977C28.2563 25.6068 28.2712 25.6182 28.2803 25.6318C28.2894 25.6455 28.2939 25.6603 28.2939 25.6763V29.7573ZM33.9404 29.9043C33.9404 29.9225 33.9359 29.9396 33.9268 29.9556C33.9199 29.9692 33.9051 29.9806 33.8823 29.9897C33.8595 29.9989 33.8288 30.0057 33.79 30.0103C33.7513 30.0171 33.7012 30.0205 33.6396 30.0205C33.5599 30.0205 33.495 30.0171 33.4448 30.0103C33.3947 30.0034 33.3571 29.9909 33.332 29.9727C33.307 29.9544 33.2865 29.9339 33.2705 29.9111L31.6436 27.6997V29.9111C31.6436 29.9271 31.639 29.943 31.6299 29.959C31.6208 29.9727 31.6048 29.984 31.582 29.9932C31.5592 30 31.5285 30.0057 31.4897 30.0103C31.4533 30.0171 31.4066 30.0205 31.3496 30.0205C31.2949 30.0205 31.2482 30.0171 31.2095 30.0103C31.1707 30.0057 31.14 30 31.1172 29.9932C31.0944 29.984 31.0785 29.9727 31.0693 29.959C31.0602 29.943 31.0557 29.9271 31.0557 29.9111V25.666C31.0557 25.6478 31.0602 25.6318 31.0693 25.6182C31.0785 25.6045 31.0944 25.5942 31.1172 25.5874C31.14 25.5783 31.1707 25.5715 31.2095 25.5669C31.2482 25.5601 31.2949 25.5566 31.3496 25.5566C31.4066 25.5566 31.4533 25.5601 31.4897 25.5669C31.5285 25.5715 31.5592 25.5783 31.582 25.5874C31.6048 25.5942 31.6208 25.6045 31.6299 25.6182C31.639 25.6318 31.6436 25.6478 31.6436 25.666V27.6313L33.209 25.666C33.2227 25.6455 33.2386 25.6284 33.2568 25.6147C33.2751 25.6011 33.2967 25.5908 33.3218 25.584C33.3491 25.5749 33.381 25.568 33.4175 25.5635C33.4562 25.5589 33.5052 25.5566 33.5645 25.5566C33.6237 25.5566 33.6715 25.5601 33.708 25.5669C33.7445 25.5715 33.7729 25.5783 33.7935 25.5874C33.8162 25.5965 33.8311 25.6079 33.8379 25.6216C33.847 25.6353 33.8516 25.6501 33.8516 25.666C33.8516 25.6956 33.8436 25.7253 33.8276 25.7549C33.814 25.7845 33.7866 25.8255 33.7456 25.8779L32.2793 27.6313L33.8584 29.73C33.8971 29.7892 33.9199 29.8302 33.9268 29.853C33.9359 29.8735 33.9404 29.8906 33.9404 29.9043ZM37.1533 29.7573C37.1533 29.7983 37.151 29.8348 37.1465 29.8667C37.1419 29.8963 37.134 29.9214 37.1226 29.9419C37.1112 29.9624 37.0975 29.9772 37.0815 29.9863C37.0679 29.9954 37.0519 30 37.0337 30H34.9111C34.8587 30 34.8086 29.9829 34.7607 29.9487C34.7152 29.9123 34.6924 29.8496 34.6924 29.7607V25.8164C34.6924 25.7275 34.7152 25.666 34.7607 25.6318C34.8086 25.5954 34.8587 25.5771 34.9111 25.5771H37.0098C37.028 25.5771 37.0439 25.5817 37.0576 25.5908C37.0736 25.5999 37.0861 25.6147 37.0952 25.6353C37.1043 25.6558 37.1112 25.682 37.1157 25.7139C37.1226 25.7435 37.126 25.7811 37.126 25.8267C37.126 25.8677 37.1226 25.9041 37.1157 25.936C37.1112 25.9657 37.1043 25.9907 37.0952 26.0112C37.0861 26.0295 37.0736 26.0431 37.0576 26.0522C37.0439 26.0614 37.028 26.0659 37.0098 26.0659H35.2803V27.4536H36.7637C36.7819 27.4536 36.7979 27.4593 36.8115 27.4707C36.8275 27.4798 36.84 27.4935 36.8491 27.5117C36.8605 27.5299 36.8685 27.555 36.873 27.5869C36.8776 27.6188 36.8799 27.6564 36.8799 27.6997C36.8799 27.7407 36.8776 27.776 36.873 27.8057C36.8685 27.8353 36.8605 27.8592 36.8491 27.8774C36.84 27.8957 36.8275 27.9093 36.8115 27.9185C36.7979 27.9253 36.7819 27.9287 36.7637 27.9287H35.2803V29.5112H37.0337C37.0519 29.5112 37.0679 29.5158 37.0815 29.5249C37.0975 29.534 37.1112 29.5488 37.1226 29.5693C37.134 29.5876 37.1419 29.6126 37.1465 29.6445C37.151 29.6742 37.1533 29.7118 37.1533 29.7573ZM41.0601 29.9111C41.0601 29.9294 41.0566 29.9453 41.0498 29.959C41.043 29.9727 41.0282 29.984 41.0054 29.9932C40.9826 30.0023 40.9507 30.0091 40.9097 30.0137C40.8687 30.0182 40.814 30.0205 40.7456 30.0205C40.6864 30.0205 40.6374 30.0182 40.5986 30.0137C40.5622 30.0091 40.5326 30.0023 40.5098 29.9932C40.487 29.9818 40.4688 29.967 40.4551 29.9487C40.4437 29.9305 40.4334 29.9077 40.4243 29.8804L40.0176 28.8379C39.9697 28.7194 39.9196 28.6112 39.8672 28.5132C39.8171 28.4129 39.7567 28.3275 39.686 28.2568C39.6154 28.1839 39.5322 28.1281 39.4365 28.0894C39.3408 28.0483 39.2257 28.0278 39.0913 28.0278H38.6982V29.9111C38.6982 29.9294 38.6925 29.9453 38.6812 29.959C38.672 29.9727 38.6561 29.984 38.6333 29.9932C38.6128 30 38.5832 30.0057 38.5444 30.0103C38.508 30.0171 38.4613 30.0205 38.4043 30.0205C38.3473 30.0205 38.2995 30.0171 38.2607 30.0103C38.2243 30.0057 38.1947 30 38.1719 29.9932C38.1491 29.984 38.1331 29.9727 38.124 29.959C38.1149 29.9453 38.1104 29.9294 38.1104 29.9111V25.8164C38.1104 25.7275 38.1331 25.666 38.1787 25.6318C38.2266 25.5954 38.2767 25.5771 38.3291 25.5771H39.269C39.3807 25.5771 39.473 25.5806 39.5459 25.5874C39.6211 25.592 39.6883 25.5977 39.7476 25.6045C39.9185 25.6341 40.0688 25.6808 40.1987 25.7446C40.3309 25.8084 40.4414 25.8893 40.5303 25.9873C40.6191 26.0853 40.6852 26.1981 40.7285 26.3257C40.7741 26.451 40.7969 26.59 40.7969 26.7427C40.7969 26.8908 40.7764 27.0241 40.7354 27.1426C40.6966 27.2588 40.6396 27.3625 40.5645 27.4536C40.4893 27.5425 40.3993 27.62 40.2944 27.686C40.1896 27.7521 40.0723 27.8079 39.9424 27.8535C40.0153 27.8854 40.0814 27.9264 40.1406 27.9766C40.1999 28.0244 40.2546 28.0825 40.3047 28.1509C40.3571 28.2192 40.4061 28.2979 40.4517 28.3867C40.4972 28.4756 40.5428 28.5758 40.5884 28.6875L40.9849 29.6616C41.0168 29.7437 41.0373 29.8018 41.0464 29.8359C41.0555 29.8678 41.0601 29.8929 41.0601 29.9111ZM40.1748 26.8042C40.1748 26.631 40.1361 26.4852 40.0586 26.3667C39.9811 26.2459 39.8512 26.1593 39.6689 26.1069C39.612 26.091 39.547 26.0796 39.4741 26.0728C39.4035 26.0659 39.3101 26.0625 39.1938 26.0625H38.6982V27.5527H39.2725C39.4274 27.5527 39.5607 27.5345 39.6724 27.498C39.7863 27.4593 39.8809 27.4069 39.9561 27.3408C40.0312 27.2725 40.0859 27.1927 40.1201 27.1016C40.1566 27.0104 40.1748 26.9113 40.1748 26.8042ZM42.9775 28.8857C42.9775 29.0612 42.9616 29.2218 42.9297 29.3677C42.8978 29.5135 42.8431 29.6377 42.7656 29.7402C42.6882 29.8428 42.5856 29.9225 42.458 29.9795C42.3327 30.0342 42.1766 30.0615 41.9897 30.0615C41.9259 30.0615 41.8621 30.0558 41.7983 30.0444C41.7368 30.0353 41.6799 30.0216 41.6274 30.0034C41.575 29.9875 41.5295 29.9704 41.4907 29.9521C41.452 29.9316 41.4258 29.9146 41.4121 29.9009C41.4007 29.8872 41.3905 29.8735 41.3813 29.8599C41.3745 29.8462 41.3677 29.8302 41.3608 29.812C41.3563 29.7915 41.3529 29.7676 41.3506 29.7402C41.3483 29.7106 41.3472 29.6753 41.3472 29.6343C41.3472 29.5841 41.3483 29.5431 41.3506 29.5112C41.3551 29.4771 41.362 29.4508 41.3711 29.4326C41.3802 29.4121 41.3905 29.3984 41.4019 29.3916C41.4155 29.3825 41.4315 29.3779 41.4497 29.3779C41.4679 29.3779 41.4907 29.387 41.5181 29.4053C41.5477 29.4212 41.5819 29.4395 41.6206 29.46C41.6616 29.4805 41.7083 29.4998 41.7607 29.5181C41.8132 29.534 41.8747 29.542 41.9453 29.542C42.0228 29.542 42.0889 29.5329 42.1436 29.5146C42.1982 29.4941 42.2438 29.4577 42.2803 29.4053C42.3167 29.3529 42.3441 29.2811 42.3623 29.1899C42.3805 29.0965 42.3896 28.9757 42.3896 28.8276V25.6626C42.3896 25.6466 42.3942 25.6318 42.4033 25.6182C42.4124 25.6045 42.4284 25.5931 42.4512 25.584C42.474 25.5749 42.5036 25.568 42.54 25.5635C42.5788 25.5589 42.6266 25.5566 42.6836 25.5566C42.7383 25.5566 42.785 25.5589 42.8237 25.5635C42.8625 25.568 42.8921 25.5749 42.9126 25.584C42.9354 25.5931 42.9513 25.6045 42.9604 25.6182C42.9718 25.6318 42.9775 25.6466 42.9775 25.6626V28.8857ZM47.3354 29.7915C47.3537 29.8416 47.3628 29.8826 47.3628 29.9146C47.3651 29.9442 47.3571 29.967 47.3389 29.9829C47.3206 29.9989 47.2899 30.0091 47.2466 30.0137C47.2056 30.0182 47.1497 30.0205 47.0791 30.0205C47.0085 30.0205 46.9515 30.0182 46.9082 30.0137C46.8672 30.0114 46.8353 30.0068 46.8125 30C46.792 29.9909 46.776 29.9795 46.7646 29.9658C46.7555 29.9521 46.7464 29.9351 46.7373 29.9146L46.3579 28.8379H44.519L44.1567 29.9009C44.1499 29.9214 44.1408 29.9396 44.1294 29.9556C44.118 29.9692 44.1009 29.9818 44.0781 29.9932C44.0576 30.0023 44.0269 30.0091 43.9858 30.0137C43.9471 30.0182 43.8958 30.0205 43.832 30.0205C43.766 30.0205 43.7113 30.0171 43.668 30.0103C43.627 30.0057 43.5973 29.9954 43.5791 29.9795C43.5632 29.9635 43.5552 29.9408 43.5552 29.9111C43.5575 29.8792 43.5677 29.8382 43.5859 29.7881L45.0693 25.6797C45.0785 25.6546 45.0898 25.6341 45.1035 25.6182C45.1195 25.6022 45.1411 25.5897 45.1685 25.5806C45.1981 25.5715 45.2345 25.5658 45.2778 25.5635C45.3234 25.5589 45.3804 25.5566 45.4487 25.5566C45.5216 25.5566 45.582 25.5589 45.6299 25.5635C45.6777 25.5658 45.7165 25.5715 45.7461 25.5806C45.7757 25.5897 45.7985 25.6034 45.8145 25.6216C45.8304 25.6375 45.8429 25.658 45.8521 25.6831L47.3354 29.7915ZM45.4316 26.165H45.4282L44.666 28.3696H46.2041L45.4316 26.165ZM53.064 27.7236C53.064 28.1064 53.015 28.4414 52.917 28.7285C52.819 29.0133 52.6755 29.2503 52.4863 29.4395C52.2995 29.6263 52.0693 29.7664 51.7959 29.8599C51.5225 29.9533 51.1966 30 50.8184 30H49.8818C49.8294 30 49.7793 29.9829 49.7314 29.9487C49.6859 29.9123 49.6631 29.8496 49.6631 29.7607V25.8164C49.6631 25.7275 49.6859 25.666 49.7314 25.6318C49.7793 25.5954 49.8294 25.5771 49.8818 25.5771H50.8833C51.2661 25.5771 51.5897 25.6273 51.854 25.7275C52.1183 25.8255 52.3394 25.9679 52.5171 26.1548C52.6971 26.3394 52.8327 26.5638 52.9238 26.8281C53.0173 27.0924 53.064 27.391 53.064 27.7236ZM52.4453 27.7476C52.4453 27.5083 52.4157 27.2861 52.3564 27.0811C52.2972 26.8737 52.2038 26.6948 52.0762 26.5444C51.9508 26.394 51.7913 26.2767 51.5977 26.1924C51.404 26.1081 51.1545 26.0659 50.8491 26.0659H50.251V29.5078H50.856C51.1385 29.5078 51.3766 29.4725 51.5703 29.4019C51.764 29.3312 51.9258 29.223 52.0557 29.0771C52.1855 28.9313 52.2824 28.749 52.3462 28.5303C52.4123 28.3092 52.4453 28.0483 52.4453 27.7476ZM54.5576 29.9111C54.5576 29.9294 54.5531 29.9453 54.5439 29.959C54.5348 29.9727 54.5189 29.984 54.4961 29.9932C54.4733 30 54.4425 30.0057 54.4038 30.0103C54.3674 30.0171 54.3206 30.0205 54.2637 30.0205C54.209 30.0205 54.1623 30.0171 54.1235 30.0103C54.0848 30.0057 54.054 30 54.0312 29.9932C54.0085 29.984 53.9925 29.9727 53.9834 29.959C53.9743 29.9453 53.9697 29.9294 53.9697 29.9111V25.666C53.9697 25.6478 53.9743 25.6318 53.9834 25.6182C53.9948 25.6045 54.0119 25.5942 54.0347 25.5874C54.0597 25.5783 54.0905 25.5715 54.127 25.5669C54.1657 25.5601 54.2113 25.5566 54.2637 25.5566C54.3206 25.5566 54.3674 25.5601 54.4038 25.5669C54.4425 25.5715 54.4733 25.5783 54.4961 25.5874C54.5189 25.5942 54.5348 25.6045 54.5439 25.6182C54.5531 25.6318 54.5576 25.6478 54.5576 25.666V29.9111ZM59.0557 26.1787C59.0557 26.222 59.0534 26.2607 59.0488 26.2949C59.0443 26.3268 59.0374 26.3542 59.0283 26.377C59.0192 26.3975 59.0078 26.4123 58.9941 26.4214C58.9805 26.4305 58.9657 26.4351 58.9497 26.4351C58.9224 26.4351 58.8768 26.4134 58.813 26.3701C58.7492 26.3268 58.6637 26.279 58.5566 26.2266C58.4495 26.1742 58.3208 26.1263 58.1704 26.083C58.0223 26.0397 57.8457 26.0181 57.6406 26.0181C57.3968 26.0181 57.1781 26.0625 56.9844 26.1514C56.7907 26.2402 56.6266 26.3633 56.4922 26.5205C56.3577 26.6777 56.2541 26.8646 56.1812 27.0811C56.1105 27.2975 56.0752 27.5322 56.0752 27.7852C56.0752 28.0677 56.1139 28.3184 56.1914 28.5371C56.2712 28.7559 56.3805 28.9404 56.5195 29.0908C56.6585 29.2412 56.8237 29.3551 57.0151 29.4326C57.2088 29.5101 57.4207 29.5488 57.6509 29.5488C57.7876 29.5488 57.9255 29.5329 58.0645 29.501C58.2057 29.4668 58.3368 29.4167 58.4575 29.3506V28.062H57.4321C57.3934 28.062 57.3638 28.0426 57.3433 28.0039C57.325 27.9652 57.3159 27.9048 57.3159 27.8228C57.3159 27.7795 57.3182 27.743 57.3228 27.7134C57.3273 27.6815 57.3341 27.6564 57.3433 27.6382C57.3547 27.6177 57.3672 27.6029 57.3809 27.5938C57.3945 27.5846 57.4116 27.5801 57.4321 27.5801H58.8369C58.862 27.5801 58.887 27.5846 58.9121 27.5938C58.9372 27.6029 58.96 27.6165 58.9805 27.6348C59.001 27.653 59.0169 27.6781 59.0283 27.71C59.0397 27.7419 59.0454 27.7783 59.0454 27.8193V29.5044C59.0454 29.5636 59.0352 29.6149 59.0146 29.6582C58.9941 29.7015 58.9508 29.7402 58.8848 29.7744C58.8187 29.8063 58.7332 29.8416 58.6284 29.8804C58.5236 29.9191 58.4154 29.9521 58.3037 29.9795C58.1921 30.0068 58.0793 30.0273 57.9653 30.041C57.8514 30.0547 57.7386 30.0615 57.627 30.0615C57.2852 30.0615 56.9798 30.0091 56.7109 29.9043C56.4421 29.7972 56.2142 29.6457 56.0273 29.4497C55.8428 29.2537 55.7015 29.019 55.6035 28.7456C55.5055 28.4722 55.4565 28.1668 55.4565 27.8296C55.4565 27.4787 55.509 27.1608 55.6138 26.876C55.7209 26.5911 55.8701 26.3485 56.0615 26.1479C56.2552 25.9474 56.4865 25.7925 56.7554 25.6831C57.0265 25.5715 57.3262 25.5156 57.6543 25.5156C57.8229 25.5156 57.9813 25.5304 58.1294 25.5601C58.2775 25.5897 58.4085 25.625 58.5225 25.666C58.6387 25.7048 58.7355 25.748 58.813 25.7959C58.8927 25.8415 58.9474 25.8791 58.9771 25.9087C59.0067 25.9383 59.0272 25.9725 59.0386 26.0112C59.05 26.05 59.0557 26.1058 59.0557 26.1787ZM60.7373 29.9111C60.7373 29.9294 60.7327 29.9453 60.7236 29.959C60.7145 29.9727 60.6986 29.984 60.6758 29.9932C60.653 30 60.6222 30.0057 60.5835 30.0103C60.547 30.0171 60.5003 30.0205 60.4434 30.0205C60.3887 30.0205 60.342 30.0171 60.3032 30.0103C60.2645 30.0057 60.2337 30 60.2109 29.9932C60.1882 29.984 60.1722 29.9727 60.1631 29.959C60.154 29.9453 60.1494 29.9294 60.1494 29.9111V25.666C60.1494 25.6478 60.154 25.6318 60.1631 25.6182C60.1745 25.6045 60.1916 25.5942 60.2144 25.5874C60.2394 25.5783 60.2702 25.5715 60.3066 25.5669C60.3454 25.5601 60.391 25.5566 60.4434 25.5566C60.5003 25.5566 60.547 25.5601 60.5835 25.5669C60.6222 25.5715 60.653 25.5783 60.6758 25.5874C60.6986 25.5942 60.7145 25.6045 60.7236 25.6182C60.7327 25.6318 60.7373 25.6478 60.7373 25.666V29.9111ZM64.6851 25.8301C64.6851 25.8734 64.6828 25.911 64.6782 25.9429C64.6737 25.9748 64.6657 26.001 64.6543 26.0215C64.6452 26.0397 64.6326 26.0534 64.6167 26.0625C64.603 26.0716 64.5871 26.0762 64.5688 26.0762H63.3247V29.9111C63.3247 29.9294 63.3201 29.9453 63.311 29.959C63.3019 29.9727 63.286 29.984 63.2632 29.9932C63.2404 30 63.2096 30.0057 63.1709 30.0103C63.1344 30.0171 63.0877 30.0205 63.0308 30.0205C62.9761 30.0205 62.9294 30.0171 62.8906 30.0103C62.8519 30.0057 62.8211 30 62.7983 29.9932C62.7756 29.984 62.7596 29.9727 62.7505 29.959C62.7414 29.9453 62.7368 29.9294 62.7368 29.9111V26.0762H61.4927C61.4744 26.0762 61.4574 26.0716 61.4414 26.0625C61.4277 26.0534 61.4163 26.0397 61.4072 26.0215C61.3981 26.001 61.3901 25.9748 61.3833 25.9429C61.3787 25.911 61.3765 25.8734 61.3765 25.8301C61.3765 25.7868 61.3787 25.7492 61.3833 25.7173C61.3901 25.6831 61.3981 25.6558 61.4072 25.6353C61.4163 25.6147 61.4277 25.5999 61.4414 25.5908C61.4574 25.5817 61.4744 25.5771 61.4927 25.5771H64.5688C64.5871 25.5771 64.603 25.5817 64.6167 25.5908C64.6326 25.5999 64.6452 25.6147 64.6543 25.6353C64.6657 25.6558 64.6737 25.6831 64.6782 25.7173C64.6828 25.7492 64.6851 25.7868 64.6851 25.8301ZM68.0894 29.7915C68.1076 29.8416 68.1167 29.8826 68.1167 29.9146C68.119 29.9442 68.111 29.967 68.0928 29.9829C68.0745 29.9989 68.0438 30.0091 68.0005 30.0137C67.9595 30.0182 67.9036 30.0205 67.833 30.0205C67.7624 30.0205 67.7054 30.0182 67.6621 30.0137C67.6211 30.0114 67.5892 30.0068 67.5664 30C67.5459 29.9909 67.5299 29.9795 67.5186 29.9658C67.5094 29.9521 67.5003 29.9351 67.4912 29.9146L67.1118 28.8379H65.2729L64.9106 29.9009C64.9038 29.9214 64.8947 29.9396 64.8833 29.9556C64.8719 29.9692 64.8548 29.9818 64.832 29.9932C64.8115 30.0023 64.7808 30.0091 64.7397 30.0137C64.701 30.0182 64.6497 30.0205 64.5859 30.0205C64.5199 30.0205 64.4652 30.0171 64.4219 30.0103C64.3809 30.0057 64.3512 29.9954 64.333 29.9795C64.3171 29.9635 64.3091 29.9408 64.3091 29.9111C64.3114 29.8792 64.3216 29.8382 64.3398 29.7881L65.8232 25.6797C65.8324 25.6546 65.8438 25.6341 65.8574 25.6182C65.8734 25.6022 65.895 25.5897 65.9224 25.5806C65.952 25.5715 65.9884 25.5658 66.0317 25.5635C66.0773 25.5589 66.1343 25.5566 66.2026 25.5566C66.2756 25.5566 66.3359 25.5589 66.3838 25.5635C66.4316 25.5658 66.4704 25.5715 66.5 25.5806C66.5296 25.5897 66.5524 25.6034 66.5684 25.6216C66.5843 25.6375 66.5968 25.658 66.606 25.6831L68.0894 29.7915ZM66.1855 26.165H66.1821L65.4199 28.3696H66.958L66.1855 26.165ZM71.1245 29.7437C71.1245 29.7892 71.1222 29.828 71.1177 29.8599C71.1131 29.8895 71.1051 29.9157 71.0938 29.9385C71.0846 29.959 71.0721 29.9749 71.0562 29.9863C71.0425 29.9954 71.0254 30 71.0049 30H69.0498C68.9974 30 68.9473 29.9829 68.8994 29.9487C68.8538 29.9123 68.8311 29.8496 68.8311 29.7607V25.666C68.8311 25.6478 68.8356 25.6318 68.8447 25.6182C68.8538 25.6045 68.8698 25.5942 68.8926 25.5874C68.9154 25.5783 68.9461 25.5715 68.9849 25.5669C69.0236 25.5601 69.0703 25.5566 69.125 25.5566C69.182 25.5566 69.2287 25.5601 69.2651 25.5669C69.3039 25.5715 69.3346 25.5783 69.3574 25.5874C69.3802 25.5942 69.3962 25.6045 69.4053 25.6182C69.4144 25.6318 69.4189 25.6478 69.4189 25.666V29.4907H71.0049C71.0254 29.4907 71.0425 29.4964 71.0562 29.5078C71.0721 29.5169 71.0846 29.5317 71.0938 29.5522C71.1051 29.5705 71.1131 29.5955 71.1177 29.6274C71.1222 29.6593 71.1245 29.6981 71.1245 29.7437Z" fill="white"/>
<path d="M13.125 9.55078C13.125 9.98828 13.0742 10.4453 12.9727 10.9219C12.8789 11.3984 12.7227 11.8672 12.5039 12.3281C12.2852 12.7812 12 13.2148 11.6484 13.6289C11.3047 14.0352 10.8789 14.3984 10.3711 14.7188C9.87109 15.0312 9.28906 15.2812 8.625 15.4688C7.96094 15.6484 7.17969 15.7383 6.28125 15.7383H4.69922L3.72656 20.5898C3.71094 20.668 3.67188 20.7383 3.60938 20.8008C3.54688 20.8633 3.44922 20.9141 3.31641 20.9531C3.18359 20.9922 3.01562 21.0195 2.8125 21.0352C2.60938 21.0586 2.35938 21.0703 2.0625 21.0703C1.77344 21.0703 1.53125 21.0586 1.33594 21.0352C1.14844 21.0195 1 20.9922 0.890625 20.9531C0.78125 20.9141 0.707031 20.8672 0.667969 20.8125C0.628906 20.75 0.621094 20.6758 0.644531 20.5898L3.375 6.9375C3.44531 6.57031 3.59766 6.29687 3.83203 6.11719C4.06641 5.92969 4.35547 5.83594 4.69922 5.83594H8.01562C8.42188 5.83594 8.78516 5.85156 9.10547 5.88281C9.42578 5.90625 9.74219 5.94922 10.0547 6.01172C10.5312 6.10547 10.957 6.25 11.332 6.44531C11.7148 6.64063 12.0391 6.88672 12.3047 7.18359C12.5703 7.47266 12.7734 7.81641 12.9141 8.21484C13.0547 8.60547 13.125 9.05078 13.125 9.55078ZM9.87891 9.90234C9.87891 9.52734 9.78906 9.20312 9.60938 8.92969C9.42969 8.65625 9.15234 8.46484 8.77734 8.35547C8.61328 8.30078 8.42969 8.26562 8.22656 8.25C8.02344 8.22656 7.79688 8.21484 7.54688 8.21484H6.1875L5.17969 13.3594H6.58594C7.03125 13.3594 7.41016 13.3086 7.72266 13.207C8.04297 13.0977 8.32031 12.957 8.55469 12.7852C8.79688 12.6133 9 12.4102 9.16406 12.1758C9.33594 11.9414 9.47266 11.6953 9.57422 11.4375C9.68359 11.1797 9.76172 10.9219 9.80859 10.6641C9.85547 10.3984 9.87891 10.1445 9.87891 9.90234ZM25.6094 19.8516C25.6484 20.1328 25.6641 20.3555 25.6562 20.5195C25.6562 20.6836 25.6016 20.8086 25.4922 20.8945C25.3906 20.9727 25.2188 21.0195 24.9766 21.0352C24.7344 21.0586 24.4023 21.0703 23.9805 21.0703C23.6836 21.0703 23.4414 21.0625 23.2539 21.0469C23.0664 21.0391 22.9219 21.0195 22.8203 20.9883C22.7188 20.957 22.6484 20.9102 22.6094 20.8477C22.5703 20.7852 22.5469 20.6992 22.5391 20.5898L22.1289 17.543H16.4336L14.8633 20.5195C14.8086 20.6289 14.7461 20.7227 14.6758 20.8008C14.6055 20.8711 14.5039 20.9258 14.3711 20.9648C14.2383 21.0039 14.0586 21.0312 13.832 21.0469C13.6133 21.0625 13.3359 21.0703 13 21.0703C12.6406 21.0703 12.3633 21.0586 12.168 21.0352C11.9648 21.0117 11.832 20.957 11.7695 20.8711C11.6992 20.7773 11.6914 20.6484 11.7461 20.4844C11.793 20.3203 11.8906 20.1016 12.0391 19.8281L19.3984 6.375C19.4766 6.24219 19.5547 6.13672 19.6328 6.05859C19.7109 5.97266 19.8203 5.91016 19.9609 5.87109C20.1094 5.82422 20.3047 5.79688 20.5469 5.78906C20.7969 5.77344 21.1211 5.76562 21.5195 5.76562C21.9805 5.76562 22.3438 5.77344 22.6094 5.78906C22.8828 5.79688 23.0938 5.82422 23.2422 5.87109C23.3906 5.91016 23.4883 5.97266 23.5352 6.05859C23.582 6.14453 23.6133 6.26172 23.6289 6.41016L25.6094 19.8516ZM21.0039 8.73047H20.9922L17.6055 15.1758H21.8711L21.0039 8.73047ZM42.3008 6.25781C42.3008 6.39844 42.25 6.54688 42.1484 6.70312C42.0469 6.85937 41.8828 7.0625 41.6562 7.3125L36.2891 12.9961L39.4766 19.7578C39.5391 19.9141 39.5859 20.0508 39.6172 20.168C39.6484 20.2773 39.6641 20.3789 39.6641 20.4727C39.6641 20.582 39.6367 20.6758 39.582 20.7539C39.5352 20.8242 39.4492 20.8828 39.3242 20.9297C39.1992 20.9766 39.0273 21.0117 38.8086 21.0352C38.5977 21.0586 38.3281 21.0703 38 21.0703C37.6719 21.0703 37.4062 21.0586 37.2031 21.0352C37 21.0195 36.8398 20.9922 36.7227 20.9531C36.6055 20.9141 36.5195 20.8594 36.4648 20.7891C36.4102 20.7188 36.3672 20.6367 36.3359 20.543L33.125 13.3594L31.707 20.5781C31.6914 20.6641 31.6523 20.7383 31.5898 20.8008C31.5273 20.8555 31.4297 20.9062 31.2969 20.9531C31.1719 20.9922 31.0078 21.0195 30.8047 21.0352C30.6094 21.0586 30.3633 21.0703 30.0664 21.0703C29.7617 21.0703 29.5117 21.0586 29.3164 21.0352C29.1289 21.0195 28.9805 20.9922 28.8711 20.9531C28.7617 20.9062 28.6875 20.8555 28.6484 20.8008C28.6094 20.7383 28.6016 20.6641 28.625 20.5781L31.4844 6.24609C31.4922 6.16016 31.5273 6.08984 31.5898 6.03516C31.6523 5.97266 31.7461 5.92187 31.8711 5.88281C32.0039 5.84375 32.168 5.81641 32.3633 5.80078C32.5664 5.77734 32.8203 5.76562 33.125 5.76562C33.4219 5.76562 33.6641 5.77734 33.8516 5.80078C34.0469 5.81641 34.1992 5.84375 34.3086 5.88281C34.418 5.92187 34.4922 5.97266 34.5312 6.03516C34.5703 6.08984 34.582 6.16016 34.5664 6.24609L33.2773 12.7266L38.9023 6.29297C38.9805 6.19922 39.0625 6.11719 39.1484 6.04688C39.2422 5.97656 39.3594 5.92187 39.5 5.88281C39.6406 5.84375 39.8125 5.81641 40.0156 5.80078C40.2188 5.77734 40.4727 5.76562 40.7773 5.76562C41.0898 5.76562 41.3438 5.77734 41.5391 5.80078C41.7422 5.81641 41.8984 5.84766 42.0078 5.89453C42.1172 5.93359 42.1914 5.98438 42.2305 6.04688C42.2773 6.10156 42.3008 6.17188 42.3008 6.25781ZM55.2891 19.8516C55.3281 20.1328 55.3438 20.3555 55.3359 20.5195C55.3359 20.6836 55.2812 20.8086 55.1719 20.8945C55.0703 20.9727 54.8984 21.0195 54.6562 21.0352C54.4141 21.0586 54.082 21.0703 53.6602 21.0703C53.3633 21.0703 53.1211 21.0625 52.9336 21.0469C52.7461 21.0391 52.6016 21.0195 52.5 20.9883C52.3984 20.957 52.3281 20.9102 52.2891 20.8477C52.25 20.7852 52.2266 20.6992 52.2188 20.5898L51.8086 17.543H46.1133L44.543 20.5195C44.4883 20.6289 44.4258 20.7227 44.3555 20.8008C44.2852 20.8711 44.1836 20.9258 44.0508 20.9648C43.918 21.0039 43.7383 21.0312 43.5117 21.0469C43.293 21.0625 43.0156 21.0703 42.6797 21.0703C42.3203 21.0703 42.043 21.0586 41.8477 21.0352C41.6445 21.0117 41.5117 20.957 41.4492 20.8711C41.3789 20.7773 41.3711 20.6484 41.4258 20.4844C41.4727 20.3203 41.5703 20.1016 41.7188 19.8281L49.0781 6.375C49.1562 6.24219 49.2344 6.13672 49.3125 6.05859C49.3906 5.97266 49.5 5.91016 49.6406 5.87109C49.7891 5.82422 49.9844 5.79688 50.2266 5.78906C50.4766 5.77344 50.8008 5.76562 51.1992 5.76562C51.6602 5.76562 52.0234 5.77344 52.2891 5.78906C52.5625 5.79688 52.7734 5.82422 52.9219 5.87109C53.0703 5.91016 53.168 5.97266 53.2148 6.05859C53.2617 6.14453 53.293 6.26172 53.3086 6.41016L55.2891 19.8516ZM50.6836 8.73047H50.6719L47.2852 15.1758H51.5508L50.6836 8.73047ZM70.9492 9.14062C70.9492 9.64062 70.8789 10.1367 70.7383 10.6289C70.6055 11.1211 70.3906 11.5859 70.0938 12.0234C69.7969 12.4609 69.4102 12.8555 68.9336 13.207C68.4648 13.5586 67.8906 13.8398 67.2109 14.0508C67.5859 14.1992 67.8984 14.4961 68.1484 14.9414C68.4062 15.3789 68.6172 15.9805 68.7812 16.7461L69.4023 19.8281C69.4336 20 69.457 20.1562 69.4727 20.2969C69.4961 20.4297 69.5078 20.543 69.5078 20.6367C69.5078 20.7148 69.4805 20.7812 69.4258 20.8359C69.3789 20.8906 69.2891 20.9375 69.1562 20.9766C69.0234 21.0078 68.8398 21.0312 68.6055 21.0469C68.3789 21.0625 68.0898 21.0703 67.7383 21.0703C67.4102 21.0703 67.1445 21.0586 66.9414 21.0352C66.7461 21.0195 66.5938 20.9922 66.4844 20.9531C66.375 20.9062 66.3008 20.8477 66.2617 20.7773C66.2305 20.707 66.207 20.625 66.1914 20.5312L65.6055 17.168C65.543 16.7773 65.457 16.4336 65.3477 16.1367C65.2461 15.8398 65.1133 15.5938 64.9492 15.3984C64.7852 15.1953 64.582 15.0469 64.3398 14.9531C64.1055 14.8516 63.8242 14.8008 63.4961 14.8008H62.5352L61.375 20.5898C61.3594 20.668 61.3203 20.7383 61.2578 20.8008C61.1953 20.8633 61.0977 20.9141 60.9648 20.9531C60.8398 20.9922 60.6758 21.0195 60.4727 21.0352C60.2695 21.0586 60.0195 21.0703 59.7227 21.0703C59.4258 21.0703 59.1797 21.0586 58.9844 21.0352C58.7969 21.0195 58.6484 20.9922 58.5391 20.9531C58.4297 20.9141 58.3555 20.8672 58.3164 20.8125C58.2773 20.75 58.2695 20.6758 58.293 20.5898L61.0586 6.80859C61.1211 6.46484 61.2578 6.21875 61.4688 6.07031C61.6875 5.91406 61.9375 5.83594 62.2188 5.83594H66.2852C66.9961 5.83594 67.6367 5.90234 68.207 6.03516C68.7852 6.16797 69.2773 6.37109 69.6836 6.64453C70.0898 6.91797 70.4023 7.26172 70.6211 7.67578C70.8398 8.08984 70.9492 8.57812 70.9492 9.14062ZM67.6445 9.71484C67.6445 9.49609 67.6055 9.29297 67.5273 9.10547C67.457 8.91797 67.3398 8.75781 67.1758 8.625C67.0117 8.48438 66.7969 8.37891 66.5312 8.30859C66.2734 8.23047 65.9609 8.19141 65.5938 8.19141H63.8477L62.9922 12.4922H64.457C65.043 12.4922 65.5391 12.4102 65.9453 12.2461C66.3516 12.0742 66.6797 11.8555 66.9297 11.5898C67.1797 11.3242 67.3594 11.0312 67.4688 10.7109C67.5859 10.3828 67.6445 10.0508 67.6445 9.71484Z" fill="white"/>
</svg>
