<svg width="137" height="51" viewBox="0 0 137 51" fill="none" xmlns="http://www.w3.org/2000/svg">
<path d="M5.26624 43.8144C5.26624 44.2427 5.19558 44.6292 5.05427 44.9736C4.91295 45.3181 4.70981 45.6117 4.44484 45.8546C4.18429 46.0975 3.86191 46.2852 3.47771 46.4177C3.09792 46.5502 2.64306 46.6164 2.11312 46.6164H1.13936V49.7033C1.13936 49.7386 1.12832 49.7695 1.10624 49.796C1.08858 49.8225 1.05766 49.8446 1.0135 49.8623C0.973758 49.8755 0.916348 49.8866 0.841274 49.8954C0.770616 49.9086 0.680085 49.9153 0.569682 49.9153C0.459278 49.9153 0.366539 49.9086 0.291465 49.8954C0.220807 49.8866 0.163397 49.8755 0.119236 49.8623C0.0750743 49.8446 0.0441614 49.8225 0.0264968 49.796C0.00883227 49.7695 0 49.7386 0 49.7033V41.794C0 41.6174 0.0463694 41.4915 0.139108 41.4164C0.231847 41.3413 0.335626 41.3038 0.450446 41.3038H2.28535C2.47083 41.3038 2.64747 41.3126 2.81529 41.3303C2.98752 41.3436 3.18845 41.3767 3.41809 41.4297C3.65215 41.4782 3.88841 41.5732 4.12688 41.7145C4.36977 41.8514 4.57512 42.0214 4.74293 42.2246C4.91074 42.4277 5.03881 42.664 5.12713 42.9334C5.21987 43.1983 5.26624 43.492 5.26624 43.8144ZM4.06726 43.9071C4.06726 43.5582 4.00102 43.2668 3.86854 43.0327C3.74047 42.7987 3.57928 42.6242 3.38497 42.5094C3.19507 42.3946 2.99635 42.3217 2.78879 42.2908C2.58565 42.2599 2.38692 42.2444 2.19261 42.2444H1.13936V45.6824H2.16612C2.51057 45.6824 2.79541 45.6382 3.02064 45.5499C3.25028 45.4616 3.44238 45.3402 3.59694 45.1856C3.75151 45.0266 3.86854 44.8389 3.94803 44.6225C4.02752 44.4017 4.06726 44.1633 4.06726 43.9071Z" fill="#00B0F0"/>
<path d="M12.4204 49.4714C12.4557 49.5686 12.4734 49.6481 12.4734 49.7099C12.4778 49.7673 12.4623 49.8115 12.427 49.8424C12.3917 49.8733 12.3321 49.8932 12.2482 49.902C12.1687 49.9109 12.0605 49.9153 11.9236 49.9153C11.7867 49.9153 11.6763 49.9109 11.5924 49.902C11.5129 49.8976 11.451 49.8888 11.4069 49.8755C11.3671 49.8579 11.3362 49.8358 11.3141 49.8093C11.2965 49.7828 11.2788 49.7497 11.2611 49.7099L10.5259 47.6233H6.96204L6.25987 49.6834C6.24663 49.7232 6.22896 49.7585 6.20688 49.7894C6.1848 49.8159 6.15168 49.8402 6.10752 49.8623C6.06777 49.8799 6.00815 49.8932 5.92866 49.902C5.85359 49.9109 5.75423 49.9153 5.63057 49.9153C5.50251 49.9153 5.39652 49.9086 5.31261 49.8954C5.23312 49.8866 5.17571 49.8667 5.14038 49.8358C5.10947 49.8049 5.09401 49.7607 5.09401 49.7033C5.09843 49.6415 5.1183 49.562 5.15363 49.4648L8.02854 41.5025C8.0462 41.454 8.06828 41.4142 8.09478 41.3833C8.12569 41.3524 8.16764 41.3281 8.22064 41.3104C8.27805 41.2928 8.34871 41.2817 8.43261 41.2773C8.52094 41.2685 8.63134 41.2641 8.76382 41.2641C8.90514 41.2641 9.02217 41.2685 9.11491 41.2773C9.20765 41.2817 9.28272 41.2928 9.34013 41.3104C9.39754 41.3281 9.4417 41.3546 9.47261 41.3899C9.50353 41.4208 9.52781 41.4606 9.54548 41.5092L12.4204 49.4714ZM8.7307 42.4432H8.72408L7.24688 46.7158H10.2278L8.7307 42.4432Z" fill="#00B0F0"/>
<path d="M20.3363 49.4052C20.3363 49.4935 20.3209 49.5686 20.2899 49.6304C20.2634 49.6923 20.2259 49.743 20.1773 49.7828C20.1332 49.8225 20.0824 49.8512 20.025 49.8689C19.9676 49.8866 19.9102 49.8954 19.8527 49.8954H19.4884C19.3736 49.8954 19.272 49.8844 19.1837 49.8623C19.0998 49.8358 19.0181 49.7916 18.9386 49.7298C18.8635 49.6636 18.7862 49.5752 18.7068 49.4648C18.6317 49.3544 18.5478 49.2131 18.455 49.0409L15.7524 44.1655C15.611 43.9137 15.4675 43.651 15.3218 43.3772C15.1805 43.099 15.048 42.8296 14.9243 42.569H14.9111C14.9199 42.887 14.9265 43.2116 14.931 43.5428C14.9354 43.874 14.9376 44.203 14.9376 44.5298V49.7033C14.9376 49.7342 14.9288 49.7651 14.9111 49.796C14.8934 49.8225 14.8625 49.8446 14.8183 49.8623C14.7786 49.8755 14.7234 49.8866 14.6527 49.8954C14.5865 49.9086 14.5004 49.9153 14.3944 49.9153C14.2884 49.9153 14.2001 49.9086 14.1294 49.8954C14.0632 49.8866 14.0102 49.8755 13.9704 49.8623C13.9307 49.8446 13.902 49.8225 13.8843 49.796C13.8667 49.7651 13.8578 49.7342 13.8578 49.7033V41.794C13.8578 41.6174 13.9064 41.4915 14.0036 41.4164C14.1007 41.3413 14.2067 41.3038 14.3215 41.3038H14.8647C14.9928 41.3038 15.0988 41.3148 15.1827 41.3369C15.271 41.359 15.3483 41.3965 15.4145 41.4495C15.4852 41.4981 15.5514 41.5688 15.6133 41.6615C15.6795 41.7498 15.7502 41.8624 15.8252 41.9993L17.9052 45.7619C18.0333 45.9915 18.1569 46.2168 18.2762 46.4376C18.3954 46.654 18.5102 46.8681 18.6206 47.0801C18.731 47.2921 18.8392 47.5019 18.9452 47.7094C19.0556 47.9126 19.1638 48.1179 19.2698 48.3255H19.2764C19.2676 47.9766 19.261 47.6145 19.2566 47.2391C19.2566 46.8593 19.2566 46.495 19.2566 46.1461V41.4959C19.2566 41.465 19.2654 41.4363 19.2831 41.4098C19.3007 41.3833 19.3294 41.3612 19.3692 41.3436C19.4133 41.3215 19.4685 41.306 19.5348 41.2972C19.6054 41.2883 19.696 41.2839 19.8064 41.2839C19.9035 41.2839 19.9874 41.2883 20.0581 41.2972C20.1288 41.306 20.184 41.3215 20.2237 41.3436C20.2634 41.3612 20.2921 41.3833 20.3098 41.4098C20.3275 41.4363 20.3363 41.465 20.3363 41.4959V49.4052Z" fill="#00B0F0"/>
<path d="M29.2061 45.4638C29.2061 46.2057 29.1112 46.8549 28.9213 47.4113C28.7314 47.9633 28.4532 48.4226 28.0866 48.7892C27.7245 49.1513 27.2785 49.4229 26.7485 49.6039C26.2186 49.785 25.5871 49.8755 24.854 49.8755H23.039C22.9374 49.8755 22.8403 49.8424 22.7475 49.7762C22.6592 49.7055 22.615 49.5841 22.615 49.4118V41.7675C22.615 41.5953 22.6592 41.476 22.7475 41.4098C22.8403 41.3391 22.9374 41.3038 23.039 41.3038H24.9799C25.7218 41.3038 26.3489 41.401 26.8612 41.5953C27.3734 41.7852 27.8018 42.0612 28.1462 42.4233C28.4951 42.781 28.7579 43.216 28.9345 43.7283C29.1156 44.2405 29.2061 44.8191 29.2061 45.4638ZM28.0071 45.5102C28.0071 45.0465 27.9497 44.6159 27.8349 44.2185C27.7201 43.8166 27.539 43.4699 27.2917 43.1785C27.0488 42.887 26.7397 42.6596 26.3643 42.4962C25.989 42.3328 25.5054 42.2511 24.9136 42.2511H23.7544V48.9216H24.9269C25.4745 48.9216 25.936 48.8532 26.3113 48.7163C26.6867 48.5794 27.0003 48.3696 27.252 48.087C27.5037 47.8044 27.6914 47.4511 27.815 47.0271C27.9431 46.5988 28.0071 46.0931 28.0071 45.5102Z" fill="#00B0F0"/>
<path d="M37.4069 46.7092C37.4069 47.2303 37.3296 47.6962 37.175 48.1069C37.0249 48.5131 36.8085 48.8576 36.5259 49.1402C36.2432 49.4229 35.8988 49.6371 35.4925 49.7828C35.0862 49.9285 34.6247 50.0014 34.108 50.0014C33.6355 50.0014 33.2049 49.9329 32.8163 49.796C32.4277 49.6591 32.0943 49.4582 31.8161 49.1932C31.5378 48.9238 31.3237 48.5882 31.1735 48.1864C31.0234 47.7845 30.9483 47.3208 30.9483 46.7953V41.476C30.9483 41.4407 30.9571 41.4098 30.9748 41.3833C30.9924 41.3568 31.0234 41.3369 31.0675 41.3237C31.1117 41.306 31.1691 41.2928 31.2398 41.2839C31.3104 41.2707 31.4031 41.2641 31.518 41.2641C31.624 41.2641 31.7145 41.2707 31.7896 41.2839C31.8646 41.2928 31.922 41.306 31.9618 41.3237C32.006 41.3369 32.0369 41.3568 32.0545 41.3833C32.0722 41.4098 32.081 41.4407 32.081 41.476V46.6562C32.081 47.0536 32.1296 47.4003 32.2268 47.6962C32.3239 47.992 32.463 48.2393 32.6441 48.4381C32.8296 48.6324 33.0504 48.7803 33.3065 48.8819C33.5671 48.9791 33.8585 49.0276 34.1809 49.0276C34.5121 49.0276 34.8058 48.9791 35.0619 48.8819C35.3225 48.7847 35.5411 48.639 35.7177 48.4447C35.8988 48.2504 36.0357 48.0097 36.1284 47.7227C36.2256 47.4356 36.2741 47.1 36.2741 46.7158V41.476C36.2741 41.4407 36.283 41.4098 36.3006 41.3833C36.3183 41.3568 36.3492 41.3369 36.3934 41.3237C36.4375 41.306 36.495 41.2928 36.5656 41.2839C36.6407 41.2707 36.7334 41.2641 36.8438 41.2641C36.9498 41.2641 37.0381 41.2707 37.1088 41.2839C37.1839 41.2928 37.2413 41.306 37.281 41.3237C37.3252 41.3369 37.3561 41.3568 37.3738 41.3833C37.3958 41.4098 37.4069 41.4407 37.4069 41.476V46.7092Z" fill="#00B0F0"/>
<path d="M45.7799 49.4714C45.8152 49.5686 45.8329 49.6481 45.8329 49.7099C45.8373 49.7673 45.8218 49.8115 45.7865 49.8424C45.7512 49.8733 45.6916 49.8932 45.6077 49.902C45.5282 49.9109 45.42 49.9153 45.2831 49.9153C45.1462 49.9153 45.0358 49.9109 44.9519 49.902C44.8724 49.8976 44.8105 49.8888 44.7664 49.8755C44.7266 49.8579 44.6957 49.8358 44.6736 49.8093C44.656 49.7828 44.6383 49.7497 44.6206 49.7099L43.8854 47.6233H40.3215L39.6194 49.6834C39.6061 49.7232 39.5885 49.7585 39.5664 49.7894C39.5443 49.8159 39.5112 49.8402 39.467 49.8623C39.4273 49.8799 39.3676 49.8932 39.2882 49.902C39.2131 49.9109 39.1137 49.9153 38.9901 49.9153C38.862 49.9153 38.756 49.9086 38.6721 49.8954C38.5926 49.8866 38.5352 49.8667 38.4999 49.8358C38.469 49.8049 38.4535 49.7607 38.4535 49.7033C38.4579 49.6415 38.4778 49.562 38.5131 49.4648L41.388 41.5025C41.4057 41.454 41.4278 41.4142 41.4543 41.3833C41.4852 41.3524 41.5271 41.3281 41.5801 41.3104C41.6375 41.2928 41.7082 41.2817 41.7921 41.2773C41.8804 41.2685 41.9908 41.2641 42.1233 41.2641C42.2646 41.2641 42.3817 41.2685 42.4744 41.2773C42.5671 41.2817 42.6422 41.2928 42.6996 41.3104C42.757 41.3281 42.8012 41.3546 42.8321 41.3899C42.863 41.4208 42.8873 41.4606 42.905 41.5092L45.7799 49.4714ZM42.0902 42.4432H42.0836L40.6064 46.7158H43.5873L42.0902 42.4432Z" fill="#00B0F0"/>
<path d="M53.6958 49.4052C53.6958 49.4935 53.6804 49.5686 53.6494 49.6304C53.6229 49.6923 53.5854 49.743 53.5368 49.7828C53.4927 49.8225 53.4419 49.8512 53.3845 49.8689C53.3271 49.8866 53.2696 49.8954 53.2122 49.8954H52.8479C52.7331 49.8954 52.6315 49.8844 52.5432 49.8623C52.4593 49.8358 52.3776 49.7916 52.2981 49.7298C52.223 49.6636 52.1457 49.5752 52.0662 49.4648C51.9912 49.3544 51.9073 49.2131 51.8145 49.0409L49.1119 44.1655C48.9705 43.9137 48.827 43.651 48.6813 43.3772C48.54 43.099 48.4075 42.8296 48.2838 42.569H48.2706C48.2794 42.887 48.286 43.2116 48.2905 43.5428C48.2949 43.874 48.2971 44.203 48.2971 44.5298V49.7033C48.2971 49.7342 48.2882 49.7651 48.2706 49.796C48.2529 49.8225 48.222 49.8446 48.1778 49.8623C48.1381 49.8755 48.0829 49.8866 48.0122 49.8954C47.946 49.9086 47.8599 49.9153 47.7539 49.9153C47.6479 49.9153 47.5596 49.9086 47.4889 49.8954C47.4227 49.8866 47.3697 49.8755 47.3299 49.8623C47.2902 49.8446 47.2615 49.8225 47.2438 49.796C47.2262 49.7651 47.2173 49.7342 47.2173 49.7033V41.794C47.2173 41.6174 47.2659 41.4915 47.3631 41.4164C47.4602 41.3413 47.5662 41.3038 47.681 41.3038H48.2242C48.3523 41.3038 48.4583 41.3148 48.5422 41.3369C48.6305 41.359 48.7078 41.3965 48.774 41.4495C48.8447 41.4981 48.9109 41.5688 48.9727 41.6615C49.039 41.7498 49.1096 41.8624 49.1847 41.9993L51.2647 45.7619C51.3928 45.9915 51.5164 46.2168 51.6357 46.4376C51.7549 46.654 51.8697 46.8681 51.9801 47.0801C52.0905 47.2921 52.1987 47.5019 52.3047 47.7094C52.4151 47.9126 52.5233 48.1179 52.6293 48.3255H52.6359C52.6271 47.9766 52.6205 47.6145 52.6161 47.2391C52.6161 46.8593 52.6161 46.495 52.6161 46.1461V41.4959C52.6161 41.465 52.6249 41.4363 52.6426 41.4098C52.6602 41.3833 52.6889 41.3612 52.7287 41.3436C52.7728 41.3215 52.828 41.306 52.8943 41.2972C52.9649 41.2883 53.0555 41.2839 53.1659 41.2839C53.263 41.2839 53.3469 41.2883 53.4176 41.2972C53.4882 41.306 53.5434 41.3215 53.5832 41.3436C53.6229 41.3612 53.6516 41.3833 53.6693 41.4098C53.687 41.4363 53.6958 41.465 53.6958 41.4959V49.4052Z" fill="#00B0F0"/>
<path d="M64.639 49.69C64.639 49.7254 64.6302 49.7585 64.6125 49.7894C64.5993 49.8159 64.5705 49.838 64.5264 49.8557C64.4822 49.8733 64.4226 49.8866 64.3475 49.8954C64.2725 49.9086 64.1753 49.9153 64.0561 49.9153C63.9015 49.9153 63.7756 49.9086 63.6785 49.8954C63.5813 49.8822 63.5085 49.8579 63.4599 49.8225C63.4113 49.7872 63.3716 49.7475 63.3406 49.7033L60.1875 45.4174V49.7033C60.1875 49.7342 60.1787 49.7651 60.161 49.796C60.1434 49.8225 60.1125 49.8446 60.0683 49.8623C60.0241 49.8755 59.9645 49.8866 59.8894 49.8954C59.8188 49.9086 59.7282 49.9153 59.6178 49.9153C59.5119 49.9153 59.4213 49.9086 59.3463 49.8954C59.2712 49.8866 59.2116 49.8755 59.1674 49.8623C59.1232 49.8446 59.0923 49.8225 59.0747 49.796C59.057 49.7651 59.0482 49.7342 59.0482 49.7033V41.476C59.0482 41.4407 59.057 41.4098 59.0747 41.3833C59.0923 41.3568 59.1232 41.3369 59.1674 41.3237C59.2116 41.306 59.2712 41.2928 59.3463 41.2839C59.4213 41.2707 59.5119 41.2641 59.6178 41.2641C59.7282 41.2641 59.8188 41.2707 59.8894 41.2839C59.9645 41.2928 60.0241 41.306 60.0683 41.3237C60.1125 41.3369 60.1434 41.3568 60.161 41.3833C60.1787 41.4098 60.1875 41.4407 60.1875 41.476V45.285L63.2214 41.476C63.2479 41.4363 63.2788 41.4032 63.3142 41.3767C63.3495 41.3502 63.3914 41.3303 63.44 41.3171C63.493 41.2994 63.5548 41.2861 63.6255 41.2773C63.7006 41.2685 63.7955 41.2641 63.9103 41.2641C64.0251 41.2641 64.1179 41.2707 64.1885 41.2839C64.2592 41.2928 64.3144 41.306 64.3541 41.3237C64.3983 41.3413 64.427 41.3634 64.4403 41.3899C64.4579 41.4164 64.4668 41.4451 64.4668 41.476C64.4668 41.5334 64.4513 41.5909 64.4204 41.6483C64.3939 41.7057 64.3409 41.7852 64.2614 41.8867L61.4196 45.285L64.48 49.3522C64.5551 49.467 64.5993 49.5465 64.6125 49.5907C64.6302 49.6304 64.639 49.6636 64.639 49.69Z" fill="#00B0F0"/>
<path d="M70.8657 49.4052C70.8657 49.4847 70.8613 49.5554 70.8525 49.6172C70.8437 49.6746 70.8282 49.7232 70.8061 49.7629C70.784 49.8027 70.7576 49.8314 70.7266 49.849C70.7001 49.8667 70.6692 49.8755 70.6339 49.8755H66.5203C66.4187 49.8755 66.3215 49.8424 66.2288 49.7762C66.1405 49.7055 66.0963 49.5841 66.0963 49.4118V41.7675C66.0963 41.5953 66.1405 41.476 66.2288 41.4098C66.3215 41.3391 66.4187 41.3038 66.5203 41.3038H70.5875C70.6229 41.3038 70.6538 41.3126 70.6803 41.3303C70.7112 41.348 70.7355 41.3767 70.7531 41.4164C70.7708 41.4562 70.784 41.5069 70.7929 41.5688C70.8061 41.6262 70.8128 41.6991 70.8128 41.7874C70.8128 41.8669 70.8061 41.9375 70.7929 41.9993C70.784 42.0568 70.7708 42.1053 70.7531 42.1451C70.7355 42.1804 70.7112 42.2069 70.6803 42.2246C70.6538 42.2422 70.6229 42.2511 70.5875 42.2511H67.2357V44.9405H70.1106C70.1459 44.9405 70.1768 44.9515 70.2033 44.9736C70.2342 44.9913 70.2585 45.0178 70.2762 45.0531C70.2983 45.0884 70.3137 45.137 70.3226 45.1988C70.3314 45.2607 70.3358 45.3335 70.3358 45.4174C70.3358 45.4969 70.3314 45.5654 70.3226 45.6228C70.3137 45.6802 70.2983 45.7266 70.2762 45.7619C70.2585 45.7972 70.2342 45.8237 70.2033 45.8414C70.1768 45.8546 70.1459 45.8613 70.1106 45.8613H67.2357V48.9283H70.6339C70.6692 48.9283 70.7001 48.9371 70.7266 48.9548C70.7576 48.9724 70.784 49.0011 70.8061 49.0409C70.8282 49.0762 70.8437 49.1248 70.8525 49.1866C70.8613 49.244 70.8657 49.3169 70.8657 49.4052Z" fill="#00B0F0"/>
<path d="M78.4372 49.7033C78.4372 49.7386 78.4306 49.7695 78.4173 49.796C78.4041 49.8225 78.3754 49.8446 78.3312 49.8623C78.2871 49.8799 78.2252 49.8932 78.1457 49.902C78.0663 49.9109 77.9603 49.9153 77.8278 49.9153C77.713 49.9153 77.618 49.9109 77.5429 49.902C77.4723 49.8932 77.4149 49.8799 77.3707 49.8623C77.3266 49.8402 77.2912 49.8115 77.2647 49.7762C77.2426 49.7408 77.2228 49.6967 77.2051 49.6437L76.4168 47.6233C76.3241 47.3937 76.2269 47.1839 76.1254 46.994C76.0282 46.7997 75.9112 46.6341 75.7743 46.4972C75.6374 46.3559 75.4762 46.2477 75.2907 46.1726C75.1052 46.0931 74.8822 46.0534 74.6217 46.0534H73.8599V49.7033C73.8599 49.7386 73.8488 49.7695 73.8268 49.796C73.8091 49.8225 73.7782 49.8446 73.734 49.8623C73.6943 49.8755 73.6369 49.8866 73.5618 49.8954C73.4911 49.9086 73.4006 49.9153 73.2902 49.9153C73.1798 49.9153 73.0871 49.9086 73.012 49.8954C72.9413 49.8866 72.8839 49.8755 72.8398 49.8623C72.7956 49.8446 72.7647 49.8225 72.747 49.796C72.7294 49.7695 72.7205 49.7386 72.7205 49.7033V41.7675C72.7205 41.5953 72.7647 41.476 72.853 41.4098C72.9457 41.3391 73.0429 41.3038 73.1445 41.3038H74.9661C75.1825 41.3038 75.3614 41.3104 75.5027 41.3237C75.6484 41.3325 75.7787 41.3436 75.8935 41.3568C76.2247 41.4142 76.5162 41.5047 76.7679 41.6284C77.024 41.752 77.2382 41.9088 77.4105 42.0987C77.5827 42.2886 77.7108 42.5072 77.7947 42.7545C77.883 42.9974 77.9271 43.2668 77.9271 43.5627C77.9271 43.8497 77.8874 44.1081 77.8079 44.3377C77.7328 44.5629 77.6224 44.7638 77.4767 44.9405C77.331 45.1127 77.1565 45.2629 76.9534 45.3909C76.7502 45.519 76.5228 45.6272 76.2711 45.7155C76.4124 45.7774 76.5405 45.8568 76.6553 45.954C76.7701 46.0467 76.8761 46.1593 76.9733 46.2918C77.0748 46.4243 77.1698 46.5767 77.2581 46.7489C77.3464 46.9211 77.4347 47.1154 77.5231 47.3318L78.2915 49.2197C78.3533 49.3787 78.3931 49.4913 78.4107 49.5576C78.4284 49.6194 78.4372 49.668 78.4372 49.7033ZM76.7215 43.6819C76.7215 43.3463 76.6465 43.0636 76.4963 42.834C76.3462 42.5999 76.0945 42.4321 75.7412 42.3306C75.6308 42.2996 75.5049 42.2776 75.3636 42.2643C75.2267 42.2511 75.0456 42.2444 74.8204 42.2444H73.8599V45.1326H74.9728C75.273 45.1326 75.5314 45.0973 75.7478 45.0266C75.9686 44.9515 76.1519 44.85 76.2976 44.7219C76.4433 44.5894 76.5493 44.4348 76.6156 44.2582C76.6862 44.0816 76.7215 43.8895 76.7215 43.6819Z" fill="#00B0F0"/>
<path d="M82.1534 47.716C82.1534 48.0561 82.1225 48.3674 82.0607 48.65C81.9988 48.9327 81.8928 49.1734 81.7427 49.3721C81.5925 49.5708 81.3938 49.7254 81.1465 49.8358C80.9036 49.9418 80.6011 49.9948 80.239 49.9948C80.1153 49.9948 79.9917 49.9837 79.868 49.9616C79.7488 49.944 79.6384 49.9175 79.5368 49.8822C79.4353 49.8512 79.3469 49.8181 79.2719 49.7828C79.1968 49.743 79.146 49.7099 79.1195 49.6834C79.0974 49.6569 79.0776 49.6304 79.0599 49.6039C79.0466 49.5774 79.0334 49.5465 79.0201 49.5112C79.0113 49.4714 79.0047 49.4251 79.0003 49.3721C78.9958 49.3147 78.9936 49.2462 78.9936 49.1667C78.9936 49.0696 78.9958 48.9901 79.0003 48.9283C79.0091 48.862 79.0223 48.8112 79.04 48.7759C79.0577 48.7362 79.0776 48.7097 79.0996 48.6964C79.1261 48.6788 79.157 48.6699 79.1924 48.6699C79.2277 48.6699 79.2719 48.6876 79.3249 48.7229C79.3823 48.7538 79.4485 48.7892 79.5236 48.8289C79.6031 48.8686 79.6936 48.9062 79.7952 48.9415C79.8967 48.9724 80.016 48.9879 80.1529 48.9879C80.303 48.9879 80.4311 48.9702 80.5371 48.9349C80.6431 48.8951 80.7314 48.8245 80.8021 48.7229C80.8727 48.6213 80.9257 48.4822 80.961 48.3056C80.9964 48.1245 81.014 47.8905 81.014 47.6034V41.4694C81.014 41.4385 81.0229 41.4098 81.0405 41.3833C81.0582 41.3568 81.0891 41.3347 81.1333 41.3171C81.1774 41.2994 81.2348 41.2861 81.3055 41.2773C81.3806 41.2685 81.4733 41.2641 81.5837 41.2641C81.6897 41.2641 81.7802 41.2685 81.8553 41.2773C81.9304 41.2861 81.9878 41.2994 82.0275 41.3171C82.0717 41.3347 82.1026 41.3568 82.1203 41.3833C82.1423 41.4098 82.1534 41.4385 82.1534 41.4694V47.716Z" fill="#00B0F0"/>
<path d="M90.5993 49.4714C90.6346 49.5686 90.6522 49.6481 90.6522 49.7099C90.6567 49.7673 90.6412 49.8115 90.6059 49.8424C90.5705 49.8733 90.5109 49.8932 90.427 49.902C90.3475 49.9109 90.2393 49.9153 90.1024 49.9153C89.9655 49.9153 89.8551 49.9109 89.7712 49.902C89.6917 49.8976 89.6299 49.8888 89.5857 49.8755C89.546 49.8579 89.5151 49.8358 89.493 49.8093C89.4753 49.7828 89.4577 49.7497 89.44 49.7099L88.7047 47.6233H85.1409L84.4387 49.6834C84.4255 49.7232 84.4078 49.7585 84.3857 49.7894C84.3637 49.8159 84.3305 49.8402 84.2864 49.8623C84.2466 49.8799 84.187 49.8932 84.1075 49.902C84.0325 49.9109 83.9331 49.9153 83.8094 49.9153C83.6814 49.9153 83.5754 49.9086 83.4915 49.8954C83.412 49.8866 83.3546 49.8667 83.3193 49.8358C83.2883 49.8049 83.2729 49.7607 83.2729 49.7033C83.2773 49.6415 83.2972 49.562 83.3325 49.4648L86.2074 41.5025C86.2251 41.454 86.2471 41.4142 86.2736 41.3833C86.3046 41.3524 86.3465 41.3281 86.3995 41.3104C86.4569 41.2928 86.5276 41.2817 86.6115 41.2773C86.6998 41.2685 86.8102 41.2641 86.9427 41.2641C87.084 41.2641 87.201 41.2685 87.2938 41.2773C87.3865 41.2817 87.4616 41.2928 87.519 41.3104C87.5764 41.3281 87.6206 41.3546 87.6515 41.3899C87.6824 41.4208 87.7067 41.4606 87.7243 41.5092L90.5993 49.4714ZM86.9096 42.4432H86.9029L85.4258 46.7158H88.4066L86.9096 42.4432Z" fill="#00B0F0"/>
<path d="M101.701 45.4638C101.701 46.2057 101.606 46.8549 101.417 47.4113C101.227 47.9633 100.948 48.4226 100.582 48.7892C100.22 49.1513 99.7738 49.4229 99.2438 49.6039C98.7139 49.785 98.0824 49.8755 97.3493 49.8755H95.5343C95.4327 49.8755 95.3356 49.8424 95.2428 49.7762C95.1545 49.7055 95.1103 49.5841 95.1103 49.4118V41.7675C95.1103 41.5953 95.1545 41.476 95.2428 41.4098C95.3356 41.3391 95.4327 41.3038 95.5343 41.3038H97.4752C98.2171 41.3038 98.8442 41.401 99.3565 41.5953C99.8687 41.7852 100.297 42.0612 100.642 42.4233C100.99 42.781 101.253 43.216 101.43 43.7283C101.611 44.2405 101.701 44.8191 101.701 45.4638ZM100.502 45.5102C100.502 45.0465 100.445 44.6159 100.33 44.2185C100.215 43.8166 100.034 43.4699 99.787 43.1785C99.5441 42.887 99.235 42.6596 98.8596 42.4962C98.4843 42.3328 98.0007 42.2511 97.4089 42.2511H96.2497V48.9216H97.4222C97.9698 48.9216 98.4313 48.8532 98.8066 48.7163C99.182 48.5794 99.4956 48.3696 99.7473 48.087C99.999 47.8044 100.187 47.4511 100.31 47.0271C100.438 46.5988 100.502 46.0931 100.502 45.5102Z" fill="#00B0F0"/>
<path d="M104.596 49.7033C104.596 49.7386 104.587 49.7695 104.57 49.796C104.552 49.8225 104.521 49.8446 104.477 49.8623C104.433 49.8755 104.373 49.8866 104.298 49.8954C104.227 49.9086 104.137 49.9153 104.027 49.9153C103.921 49.9153 103.83 49.9086 103.755 49.8954C103.68 49.8866 103.62 49.8755 103.576 49.8623C103.532 49.8446 103.501 49.8225 103.483 49.796C103.466 49.7695 103.457 49.7386 103.457 49.7033V41.476C103.457 41.4407 103.466 41.4098 103.483 41.3833C103.505 41.3568 103.539 41.3369 103.583 41.3237C103.631 41.306 103.691 41.2928 103.762 41.2839C103.837 41.2707 103.925 41.2641 104.027 41.2641C104.137 41.2641 104.227 41.2707 104.298 41.2839C104.373 41.2928 104.433 41.306 104.477 41.3237C104.521 41.3369 104.552 41.3568 104.57 41.3833C104.587 41.4098 104.596 41.4407 104.596 41.476V49.7033Z" fill="#00B0F0"/>
<path d="M113.314 42.4697C113.314 42.5536 113.309 42.6286 113.3 42.6949C113.292 42.7567 113.278 42.8097 113.261 42.8539C113.243 42.8936 113.221 42.9223 113.194 42.94C113.168 42.9576 113.139 42.9665 113.108 42.9665C113.055 42.9665 112.967 42.9245 112.843 42.8406C112.72 42.7567 112.554 42.664 112.347 42.5624C112.139 42.4608 111.889 42.3681 111.598 42.2842C111.311 42.2003 110.969 42.1583 110.571 42.1583C110.099 42.1583 109.675 42.2444 109.299 42.4167C108.924 42.5889 108.606 42.8274 108.345 43.1321C108.085 43.4368 107.884 43.7989 107.743 44.2185C107.606 44.638 107.537 45.0929 107.537 45.583C107.537 46.1306 107.612 46.6164 107.763 47.0404C107.917 47.4643 108.129 47.822 108.398 48.1135C108.668 48.405 108.988 48.6258 109.359 48.7759C109.734 48.9261 110.145 49.0011 110.591 49.0011C110.856 49.0011 111.123 48.9702 111.393 48.9084C111.666 48.8422 111.92 48.745 112.154 48.6169V46.1196H110.167C110.092 46.1196 110.035 46.0821 109.995 46.007C109.96 45.9319 109.942 45.8149 109.942 45.6559C109.942 45.572 109.946 45.5013 109.955 45.4439C109.964 45.3821 109.977 45.3335 109.995 45.2982C110.017 45.2585 110.041 45.2298 110.068 45.2121C110.094 45.1944 110.127 45.1856 110.167 45.1856H112.89C112.938 45.1856 112.987 45.1944 113.035 45.2121C113.084 45.2298 113.128 45.2562 113.168 45.2916C113.208 45.3269 113.239 45.3755 113.261 45.4373C113.283 45.4991 113.294 45.5698 113.294 45.6493V48.915C113.294 49.0298 113.274 49.1292 113.234 49.2131C113.194 49.297 113.111 49.3721 112.982 49.4383C112.854 49.5002 112.689 49.5686 112.486 49.6437C112.282 49.7188 112.073 49.7828 111.856 49.8358C111.64 49.8888 111.421 49.9285 111.201 49.955C110.98 49.9815 110.761 49.9948 110.545 49.9948C109.882 49.9948 109.291 49.8932 108.769 49.69C108.248 49.4825 107.807 49.1888 107.445 48.809C107.087 48.4292 106.813 47.9744 106.623 47.4444C106.433 46.9145 106.338 46.3227 106.338 45.6692C106.338 44.9891 106.44 44.373 106.643 43.821C106.851 43.269 107.14 42.7987 107.511 42.41C107.886 42.0214 108.334 41.7211 108.856 41.5092C109.381 41.2928 109.962 41.1846 110.598 41.1846C110.925 41.1846 111.231 41.2133 111.518 41.2707C111.806 41.3281 112.059 41.3965 112.28 41.476C112.506 41.5511 112.693 41.635 112.843 41.7278C112.998 41.8161 113.104 41.8889 113.161 41.9464C113.219 42.0038 113.258 42.07 113.281 42.1451C113.303 42.2202 113.314 42.3283 113.314 42.4697Z" fill="#00B0F0"/>
<path d="M116.573 49.7033C116.573 49.7386 116.564 49.7695 116.546 49.796C116.529 49.8225 116.498 49.8446 116.454 49.8623C116.409 49.8755 116.35 49.8866 116.275 49.8954C116.204 49.9086 116.113 49.9153 116.003 49.9153C115.897 49.9153 115.807 49.9086 115.731 49.8954C115.656 49.8866 115.597 49.8755 115.553 49.8623C115.508 49.8446 115.478 49.8225 115.46 49.796C115.442 49.7695 115.433 49.7386 115.433 49.7033V41.476C115.433 41.4407 115.442 41.4098 115.46 41.3833C115.482 41.3568 115.515 41.3369 115.559 41.3237C115.608 41.306 115.667 41.2928 115.738 41.2839C115.813 41.2707 115.902 41.2641 116.003 41.2641C116.113 41.2641 116.204 41.2707 116.275 41.2839C116.35 41.2928 116.409 41.306 116.454 41.3237C116.498 41.3369 116.529 41.3568 116.546 41.3833C116.564 41.4098 116.573 41.4407 116.573 41.476V49.7033Z" fill="#00B0F0"/>
<path d="M124.224 41.794C124.224 41.8779 124.219 41.9508 124.21 42.0126C124.202 42.0744 124.186 42.1252 124.164 42.165C124.146 42.2003 124.122 42.2268 124.091 42.2444C124.065 42.2621 124.034 42.2709 123.998 42.2709H121.587V49.7033C121.587 49.7386 121.578 49.7695 121.561 49.796C121.543 49.8225 121.512 49.8446 121.468 49.8623C121.424 49.8755 121.364 49.8866 121.289 49.8954C121.219 49.9086 121.128 49.9153 121.018 49.9153C120.912 49.9153 120.821 49.9086 120.746 49.8954C120.671 49.8866 120.611 49.8755 120.567 49.8623C120.523 49.8446 120.492 49.8225 120.474 49.796C120.457 49.7695 120.448 49.7386 120.448 49.7033V42.2709H118.037C118.001 42.2709 117.968 42.2621 117.937 42.2444C117.911 42.2268 117.889 42.2003 117.871 42.165C117.853 42.1252 117.838 42.0744 117.825 42.0126C117.816 41.9508 117.811 41.8779 117.811 41.794C117.811 41.7101 117.816 41.6372 117.825 41.5754C117.838 41.5092 117.853 41.4562 117.871 41.4164C117.889 41.3767 117.911 41.348 117.937 41.3303C117.968 41.3126 118.001 41.3038 118.037 41.3038H123.998C124.034 41.3038 124.065 41.3126 124.091 41.3303C124.122 41.348 124.146 41.3767 124.164 41.4164C124.186 41.4562 124.202 41.5092 124.21 41.5754C124.219 41.6372 124.224 41.7101 124.224 41.794Z" fill="#00B0F0"/>
<path d="M130.821 49.4714C130.857 49.5686 130.874 49.6481 130.874 49.7099C130.879 49.7673 130.863 49.8115 130.828 49.8424C130.793 49.8733 130.733 49.8932 130.649 49.902C130.57 49.9109 130.462 49.9153 130.325 49.9153C130.188 49.9153 130.077 49.9109 129.993 49.902C129.914 49.8976 129.852 49.8888 129.808 49.8755C129.768 49.8579 129.737 49.8358 129.715 49.8093C129.698 49.7828 129.68 49.7497 129.662 49.7099L128.927 47.6233H125.363L124.661 49.6834C124.648 49.7232 124.63 49.7585 124.608 49.7894C124.586 49.8159 124.553 49.8402 124.509 49.8623C124.469 49.8799 124.409 49.8932 124.33 49.902C124.255 49.9109 124.155 49.9153 124.032 49.9153C123.904 49.9153 123.798 49.9086 123.714 49.8954C123.634 49.8866 123.577 49.8667 123.541 49.8358C123.511 49.8049 123.495 49.7607 123.495 49.7033C123.499 49.6415 123.519 49.562 123.555 49.4648L126.43 41.5025C126.447 41.454 126.469 41.4142 126.496 41.3833C126.527 41.3524 126.569 41.3281 126.622 41.3104C126.679 41.2928 126.75 41.2817 126.834 41.2773C126.922 41.2685 127.032 41.2641 127.165 41.2641C127.306 41.2641 127.423 41.2685 127.516 41.2773C127.609 41.2817 127.684 41.2928 127.741 41.3104C127.799 41.3281 127.843 41.3546 127.874 41.3899C127.905 41.4208 127.929 41.4606 127.947 41.5092L130.821 49.4714ZM127.132 42.4432H127.125L125.648 46.7158H128.629L127.132 42.4432Z" fill="#00B0F0"/>
<path d="M136.704 49.3787C136.704 49.467 136.699 49.5421 136.69 49.6039C136.682 49.6613 136.666 49.7121 136.644 49.7563C136.626 49.796 136.602 49.8269 136.571 49.849C136.545 49.8667 136.512 49.8755 136.472 49.8755H132.683C132.581 49.8755 132.484 49.8424 132.391 49.7762C132.303 49.7055 132.259 49.5841 132.259 49.4118V41.476C132.259 41.4407 132.268 41.4098 132.285 41.3833C132.303 41.3568 132.334 41.3369 132.378 41.3237C132.422 41.306 132.482 41.2928 132.557 41.2839C132.632 41.2707 132.723 41.2641 132.829 41.2641C132.939 41.2641 133.029 41.2707 133.1 41.2839C133.175 41.2928 133.235 41.306 133.279 41.3237C133.323 41.3369 133.354 41.3568 133.372 41.3833C133.389 41.4098 133.398 41.4407 133.398 41.476V48.8885H136.472C136.512 48.8885 136.545 48.8996 136.571 48.9216C136.602 48.9393 136.626 48.968 136.644 49.0078C136.666 49.0431 136.682 49.0917 136.69 49.1535C136.699 49.2153 136.704 49.2904 136.704 49.3787Z" fill="#00B0F0"/>
<path d="M24.2979 7.33583C24.2979 8.18373 24.1995 9.06948 24.0026 9.99309C23.821 10.9167 23.5181 11.8252 23.0942 12.7185C22.6702 13.5967 22.1176 14.437 21.4362 15.2395C20.77 16.0268 19.9448 16.7309 18.9607 17.3516C17.9917 17.9573 16.8636 18.4418 15.5767 18.8052C14.2897 19.1534 12.7756 19.3275 11.0343 19.3275H7.96828L6.08322 28.7301C6.05294 28.8815 5.97724 29.0178 5.85611 29.1389C5.73498 29.2601 5.54572 29.3585 5.28832 29.4342C5.03092 29.5099 4.70539 29.5629 4.31172 29.5932C3.91806 29.6386 3.43354 29.6613 2.85818 29.6613C2.29796 29.6613 1.82859 29.6386 1.45007 29.5932C1.08668 29.5629 0.799001 29.5099 0.587027 29.4342C0.375052 29.3585 0.231213 29.2676 0.155507 29.1616C0.0798021 29.0405 0.0646611 28.8967 0.110084 28.7301L5.40188 2.27116C5.53815 1.55953 5.8334 1.02959 6.28763 0.681347C6.74186 0.317962 7.30208 0.136269 7.96828 0.136269H14.3957C15.183 0.136269 15.887 0.166551 16.5078 0.227116C17.1286 0.272539 17.7418 0.355814 18.3475 0.476943C19.2711 0.658635 20.0963 0.938745 20.823 1.31727C21.5649 1.6958 22.1933 2.17274 22.7081 2.7481C23.2229 3.30832 23.6165 3.97452 23.8891 4.74672C24.1616 5.50377 24.2979 6.36681 24.2979 7.33583ZM18.0068 8.01718C18.0068 7.29041 17.8327 6.66206 17.4844 6.13212C17.1362 5.60219 16.5987 5.23123 15.8719 5.01926C15.5539 4.91327 15.1981 4.84513 14.8045 4.81485C14.4108 4.76943 13.9717 4.74672 13.4872 4.74672H10.8527L8.89946 14.7171H11.6248C12.4879 14.7171 13.2222 14.6187 13.8279 14.4218C14.4486 14.2099 14.9862 13.9373 15.4404 13.6042C15.9098 13.2711 16.3034 12.8775 16.6214 12.4232C16.9545 11.969 17.2195 11.4921 17.4163 10.9924C17.6283 10.4927 17.7797 9.99309 17.8705 9.49343C17.9614 8.97864 18.0068 8.48655 18.0068 8.01718Z" fill="#0070C0"/>
<path d="M47.5243 27.2993C47.6 27.8444 47.6302 28.2759 47.6151 28.5939C47.6151 28.9118 47.5091 29.1541 47.2971 29.3206C47.1003 29.472 46.7672 29.5629 46.2978 29.5932C45.8285 29.6386 45.185 29.6613 44.3673 29.6613C43.792 29.6613 43.3226 29.6462 42.9592 29.6159C42.5958 29.6007 42.3157 29.5629 42.1189 29.5023C41.9221 29.4418 41.7858 29.3509 41.7101 29.2298C41.6344 29.1087 41.589 28.9421 41.5738 28.7301L40.7789 22.8251H29.7411L26.6977 28.5939C26.5918 28.8058 26.4706 28.9875 26.3344 29.1389C26.1981 29.2752 26.0013 29.3812 25.7439 29.4569C25.4865 29.5326 25.1382 29.5856 24.6991 29.6159C24.2752 29.6462 23.7377 29.6613 23.0866 29.6613C22.3901 29.6613 21.8526 29.6386 21.4741 29.5932C21.0804 29.5477 20.823 29.4418 20.7019 29.2752C20.5656 29.0935 20.5505 28.8437 20.6565 28.5257C20.7473 28.2078 20.9366 27.7838 21.2243 27.2539L35.4871 1.181C35.6385 0.923603 35.7899 0.719199 35.9414 0.567789C36.0928 0.401238 36.3047 0.280109 36.5773 0.204404C36.865 0.113558 37.2435 0.0605642 37.7129 0.0454231C38.1974 0.015141 38.8257 0 39.5979 0C40.4912 0 41.1953 0.015141 41.7101 0.0454231C42.24 0.0605642 42.6488 0.113558 42.9365 0.204404C43.2242 0.280109 43.4135 0.401238 43.5043 0.567789C43.5951 0.73434 43.6557 0.961456 43.686 1.24914L47.5243 27.2993ZM38.5986 5.74603H38.5759L32.0123 18.2374H40.2793L38.5986 5.74603Z" fill="#0070C0"/>
<path d="M78.9041 0.953886C78.9041 1.22642 78.8056 1.5141 78.6088 1.81692C78.412 2.11975 78.094 2.51341 77.6549 2.99793L67.253 14.013L73.4306 27.1176C73.5517 27.4204 73.6425 27.6854 73.7031 27.9125C73.7637 28.1245 73.794 28.3213 73.794 28.503C73.794 28.715 73.741 28.8967 73.635 29.0481C73.5441 29.1844 73.3776 29.2979 73.1353 29.3888C72.8931 29.4796 72.56 29.5477 72.136 29.5932C71.7272 29.6386 71.2048 29.6613 70.5689 29.6613C69.933 29.6613 69.4182 29.6386 69.0245 29.5932C68.6309 29.5629 68.3205 29.5099 68.0934 29.4342C67.8662 29.3585 67.6997 29.2525 67.5937 29.1162C67.4877 28.98 67.4044 28.821 67.3439 28.6393L61.1209 14.7171L58.3728 28.7074C58.3425 28.874 58.2668 29.0178 58.1457 29.1389C58.0246 29.2449 57.8353 29.3433 57.5779 29.4342C57.3356 29.5099 57.0177 29.5629 56.624 29.5932C56.2455 29.6386 55.7685 29.6613 55.1932 29.6613C54.6027 29.6613 54.1182 29.6386 53.7396 29.5932C53.3763 29.5629 53.0886 29.5099 52.8766 29.4342C52.6646 29.3433 52.5208 29.2449 52.4451 29.1389C52.3694 29.0178 52.3542 28.874 52.3997 28.7074L57.9413 0.931174C57.9564 0.764623 58.0246 0.628353 58.1457 0.522366C58.2668 0.401238 58.4485 0.302821 58.6908 0.227116C58.9482 0.15141 59.2661 0.0984168 59.6446 0.0681347C60.0383 0.0227116 60.5304 0 61.1209 0C61.6963 0 62.1656 0.0227116 62.529 0.0681347C62.9075 0.0984168 63.2028 0.15141 63.4148 0.227116C63.6267 0.302821 63.7706 0.401238 63.8463 0.522366C63.922 0.628353 63.9447 0.764623 63.9144 0.931174L61.4162 13.4907L72.3177 1.02202C72.4691 0.840328 72.6281 0.681347 72.7946 0.545078C72.9763 0.408808 73.2035 0.302821 73.476 0.227116C73.7485 0.15141 74.0816 0.0984168 74.4753 0.0681347C74.869 0.0227116 75.361 0 75.9515 0C76.5572 0 77.0493 0.0227116 77.4278 0.0681347C77.8215 0.0984168 78.1243 0.158981 78.3363 0.249827C78.5482 0.325532 78.6921 0.423949 78.7678 0.545078C78.8586 0.651065 78.9041 0.787334 78.9041 0.953886Z" fill="#0070C0"/>
<path d="M103.107 27.2993C103.183 27.8444 103.213 28.2759 103.198 28.5939C103.198 28.9118 103.092 29.1541 102.88 29.3206C102.683 29.472 102.35 29.5629 101.881 29.5932C101.411 29.6386 100.768 29.6613 99.9501 29.6613C99.3747 29.6613 98.9054 29.6462 98.542 29.6159C98.1786 29.6007 97.8985 29.5629 97.7017 29.5023C97.5048 29.4418 97.3685 29.3509 97.2928 29.2298C97.2171 29.1087 97.1717 28.9421 97.1566 28.7301L96.3617 22.8251H85.3239L82.2805 28.5939C82.1745 28.8058 82.0534 28.9875 81.9171 29.1389C81.7808 29.2752 81.584 29.3812 81.3266 29.4569C81.0692 29.5326 80.721 29.5856 80.2819 29.6159C79.8579 29.6462 79.3204 29.6613 78.6694 29.6613C77.9729 29.6613 77.4354 29.6386 77.0568 29.5932C76.6632 29.5477 76.4058 29.4418 76.2847 29.2752C76.1484 29.0935 76.1332 28.8437 76.2392 28.5257C76.3301 28.2078 76.5193 27.7838 76.807 27.2539L91.0699 1.181C91.2213 0.923603 91.3727 0.719199 91.5241 0.567789C91.6755 0.401238 91.8875 0.280109 92.16 0.204404C92.4477 0.113558 92.8262 0.0605642 93.2956 0.0454231C93.7801 0.015141 94.4085 0 95.1807 0C96.074 0 96.778 0.015141 97.2928 0.0454231C97.8228 0.0605642 98.2316 0.113558 98.5193 0.204404C98.8069 0.280109 98.9962 0.401238 99.0871 0.567789C99.1779 0.73434 99.2385 0.961456 99.2688 1.24914L103.107 27.2993ZM94.1814 5.74603H94.1586L87.595 18.2374H95.862L94.1814 5.74603Z" fill="#0070C0"/>
<path d="M132.488 6.54093C132.488 7.50996 132.352 8.47141 132.079 9.4253C131.822 10.3792 131.406 11.2801 130.83 12.128C130.255 12.9759 129.505 13.7405 128.582 14.4218C127.673 15.1032 126.56 15.6483 125.243 16.0571C125.97 16.3448 126.576 16.9201 127.06 17.7832C127.56 18.6311 127.969 19.7969 128.287 21.2807L129.49 27.2539C129.551 27.587 129.596 27.8898 129.627 28.1623C129.672 28.4197 129.695 28.6393 129.695 28.821C129.695 28.9724 129.642 29.1011 129.536 29.2071C129.445 29.3131 129.271 29.4039 129.013 29.4796C128.756 29.5402 128.4 29.5856 127.946 29.6159C127.507 29.6462 126.947 29.6613 126.265 29.6613C125.629 29.6613 125.115 29.6386 124.721 29.5932C124.342 29.5629 124.047 29.5099 123.835 29.4342C123.623 29.3433 123.479 29.2298 123.404 29.0935C123.343 28.9572 123.298 28.7983 123.267 28.6166L122.132 22.0983C122.011 21.3413 121.844 20.6751 121.632 20.0997C121.435 19.5244 121.178 19.0474 120.86 18.6689C120.542 18.2752 120.148 17.9876 119.679 17.8059C119.225 17.609 118.68 17.5106 118.044 17.5106H116.181L113.933 28.7301C113.903 28.8815 113.827 29.0178 113.706 29.1389C113.585 29.2601 113.395 29.3585 113.138 29.4342C112.896 29.5099 112.578 29.5629 112.184 29.5932C111.79 29.6386 111.306 29.6613 110.731 29.6613C110.155 29.6613 109.678 29.6386 109.3 29.5932C108.936 29.5629 108.649 29.5099 108.437 29.4342C108.225 29.3585 108.081 29.2676 108.005 29.1616C107.929 29.0405 107.914 28.8967 107.96 28.7301L113.32 2.02133C113.441 1.35512 113.706 0.87818 114.115 0.590501C114.538 0.28768 115.023 0.136269 115.568 0.136269H123.449C124.827 0.136269 126.068 0.264968 127.174 0.522366C128.294 0.779764 129.248 1.17343 130.035 1.70337C130.823 2.2333 131.428 2.89951 131.852 3.70198C132.276 4.50446 132.488 5.45077 132.488 6.54093ZM126.084 7.6538C126.084 7.22985 126.008 6.83618 125.856 6.4728C125.72 6.10941 125.493 5.79902 125.175 5.54162C124.857 5.26908 124.441 5.06468 123.926 4.92841C123.426 4.777 122.821 4.70129 122.109 4.70129H118.725L117.067 13.0364H119.906C121.042 13.0364 122.003 12.8775 122.79 12.5595C123.578 12.2264 124.214 11.8024 124.698 11.2876C125.183 10.7729 125.531 10.2051 125.743 9.58428C125.97 8.94836 126.084 8.30486 126.084 7.6538Z" fill="#0070C0"/>
</svg>
