<svg width="20" height="20" viewBox="0 0 20 20" fill="none" xmlns="http://www.w3.org/2000/svg">
<path d="M12.5137 6.92383L11.9863 7.45117L10.0059 5.47656L10 16H9.25L9.25586 5.45898L7.26367 7.45117L6.73633 6.92383L9.625 4.03516L12.5137 6.92383Z" fill="#0078D4"/>
<path d="M12.5137 6.92383L12.6904 7.1006L12.8672 6.92383L12.6904 6.74705L12.5137 6.92383ZM11.9863 7.45117L11.8098 7.62821L11.9866 7.80446L12.1631 7.62795L11.9863 7.45117ZM10.0059 5.47656L10.1824 5.29952L9.75619 4.87461L9.75586 5.47642L10.0059 5.47656ZM10 16V16.25H10.2499L10.25 16.0001L10 16ZM9.25 16L9 15.9999L8.99986 16.25H9.25V16ZM9.25586 5.45898L9.50586 5.45912L9.5062 4.8551L9.07908 5.28221L9.25586 5.45898ZM7.26367 7.45117L7.0869 7.62795L7.26367 7.80473L7.44045 7.62795L7.26367 7.45117ZM6.73633 6.92383L6.55955 6.74705L6.38277 6.92383L6.55955 7.1006L6.73633 6.92383ZM9.625 4.03516L9.80178 3.85838L9.625 3.6816L9.44822 3.85838L9.625 4.03516ZM12.3369 6.74705L11.8096 7.2744L12.1631 7.62795L12.6904 7.1006L12.3369 6.74705ZM12.1628 7.27413L10.1824 5.29952L9.82934 5.6536L11.8098 7.62821L12.1628 7.27413ZM9.75586 5.47642L9.75 15.9999L10.25 16.0001L10.2559 5.4767L9.75586 5.47642ZM10 15.75H9.25V16.25H10V15.75ZM9.5 16.0001L9.50586 5.45912L9.00586 5.45885L9 15.9999L9.5 16.0001ZM9.07908 5.28221L7.0869 7.2744L7.44045 7.62795L9.43264 5.63576L9.07908 5.28221ZM7.44045 7.2744L6.9131 6.74705L6.55955 7.1006L7.0869 7.62795L7.44045 7.2744ZM6.9131 7.1006L9.80178 4.21193L9.44822 3.85838L6.55955 6.74705L6.9131 7.1006ZM9.44822 4.21193L12.3369 7.1006L12.6904 6.74705L9.80178 3.85838L9.44822 4.21193Z" fill="#0078D4"/>
</svg>