<svg width="16" height="16" viewBox="0 0 16 16" fill="none" xmlns="http://www.w3.org/2000/svg">
<path d="M9.86667 3.8H1.5C1.22386 3.8 1 4.02386 1 4.3V11.7C1 11.9761 1.22386 12.2 1.5 12.2H3.8H9.36667C9.64281 12.2 9.86667 11.9761 9.86667 11.7V11.2667V7.53333V3.8Z" fill="#0098BD"/>
<path d="M3.8 3.33333V1.5C3.8 1.22386 4.02386 1 4.3 1H14.5C14.7761 1 15 1.22386 15 1.5V3.8M15 3.8H9.86667M15 3.8V7.53333M9.86667 3.8H1.5C1.22386 3.8 1 4.02386 1 4.3V11.7C1 11.9761 1.22386 12.2 1.5 12.2H3.8M9.86667 3.8V7.53333M9.86667 7.53333H15M9.86667 7.53333V11.2667M15 7.53333V11.2667M15 11.2667H9.86667M15 11.2667V14.5C15 14.7761 14.7761 15 14.5 15H4.3C4.02386 15 3.8 14.7761 3.8 14.5V12.2M9.86667 11.2667V11.7C9.86667 11.9761 9.64281 12.2 9.36667 12.2H3.8" stroke="#0098BD"/>
<g style="mix-blend-mode:screen">
<path d="M8.42059 10.8672H7.04559L6.64715 9.62109H4.65496L4.26043 10.8672H2.89325L4.93231 5.26562H6.4284L8.42059 10.8672ZM6.35809 8.65234L5.75653 6.76953C5.71226 6.62891 5.68101 6.46094 5.66278 6.26562H5.63153C5.61851 6.42969 5.58595 6.59245 5.53387 6.75391L4.9245 8.65234H6.35809Z" fill="white"/>
</g>
</svg>
