<svg width="22" height="22" viewBox="0 0 22 22" fill="none" xmlns="http://www.w3.org/2000/svg">
<path d="M13.6667 5H1.5C1.22386 5 1 5.22386 1 5.5V16.5C1 16.7761 1.22386 17 1.5 17H5H13.1667C13.4428 17 13.6667 16.7761 13.6667 16.5V15.6667V10.3333V5Z" fill="#0098BD"/>
<path d="M5 4.33333V1.5C5 1.22386 5.22386 1 5.5 1H20.5C20.7761 1 21 1.22386 21 1.5V5M21 5H13.6667M21 5V10.3333M13.6667 5H1.5C1.22386 5 1 5.22386 1 5.5V16.5C1 16.7761 1.22386 17 1.5 17H5M13.6667 5V10.3333M13.6667 10.3333H21M13.6667 10.3333V15.6667M21 10.3333V15.6667M21 15.6667H13.6667M21 15.6667V20.5C21 20.7761 20.7761 21 20.5 21H5.5C5.22386 21 5 20.7761 5 20.5V17M13.6667 15.6667V16.5C13.6667 16.7761 13.4428 17 13.1667 17H5" stroke="#0098BD"/>
<g style="mix-blend-mode:screen">
<path d="M10.7758 13.667H9.05701L8.55896 12.1094H6.06873L5.57556 13.667H3.86658L6.41541 6.66504H8.28552L10.7758 13.667ZM8.19763 10.8984L7.44568 8.54492C7.39034 8.36914 7.35128 8.15918 7.32849 7.91504H7.28943C7.27315 8.12012 7.23246 8.32357 7.16736 8.52539L6.40564 10.8984H8.19763Z" fill="white"/>
</g>
</svg>
