<svg width="25" height="25" viewBox="0 0 25 25" fill="none" xmlns="http://www.w3.org/2000/svg">
<path d="M5.00253 22.2451C5.00253 22.8563 5.69441 23.2109 6.19055 22.8539L12.0017 18.673L17.8129 22.8539C18.309 23.2109 19.0009 22.8563 19.0009 22.2451V11.5002H17.5009V20.7816L12.4397 17.1402C12.1781 16.952 11.8254 16.952 11.5637 17.1402L6.50253 20.7816V7.24921C6.50253 6.28271 7.28603 5.49921 8.25253 5.49921H13.5V3.99921H8.25253C6.45761 3.99921 5.00253 5.45428 5.00253 7.24921V22.2451Z" fill="#0F5EA9"/>
<path d="M24.25 6.5C24.25 9.67564 21.6756 12.25 18.5 12.25C15.3244 12.25 12.75 9.67564 12.75 6.5C12.75 3.32436 15.3244 0.75 18.5 0.75C21.6756 0.75 24.25 3.32436 24.25 6.5Z" stroke="#0F5EA9" stroke-width="1.5"/>
<path d="M18.4546 3.00262L18.5 3C18.6994 3 18.8638 3.15013 18.8863 3.34354L18.8889 3.38889V6.11111H21.6111C21.8105 6.11111 21.9749 6.26124 21.9974 6.45465L22 6.5C22 6.69944 21.8499 6.86381 21.6565 6.88627L21.6111 6.88889H18.8889V9.61111C18.8889 9.81055 18.7388 9.97492 18.5454 9.99738L18.5 10C18.3006 10 18.1362 9.84987 18.1137 9.65646L18.1111 9.61111V6.88889H15.3889C15.1895 6.88889 15.0251 6.73876 15.0026 6.54535L15 6.5C15 6.30056 15.1501 6.13619 15.3435 6.11373L15.3889 6.11111H18.1111V3.38889C18.1111 3.18945 18.2612 3.02508 18.4546 3.00262Z" fill="#0F5EA9" stroke="#0F5EA9" stroke-width="0.5"/>
</svg>
