<svg width="16" height="17" viewBox="0 0 16 17" fill="#0078D4" xmlns="http://www.w3.org/2000/svg">
<path d="M8 0C3.58804 0 0 3.58804 0 8C0 12.412 3.58804 16 8 16C12.412 16 16 12.412 16 8C16 3.58804 12.412 0 8 0ZM8 1.06667C11.8355 1.06667 14.9333 4.16451 14.9333 8C14.9333 11.8355 11.8355 14.9333 8 14.9333C4.16451 14.9333 1.06667 11.8355 1.06667 8C1.06667 4.16451 4.16451 1.06667 8 1.06667ZM4.91667 4.43889C4.81616 4.44966 4.72079 4.48878 4.64165 4.55167C4.56252 4.61456 4.50289 4.69865 4.4697 4.79413C4.43652 4.88961 4.43115 4.99255 4.45421 5.09097C4.47728 5.18938 4.52784 5.27921 4.6 5.35L7.24444 8L4.6 10.6444C4.54543 10.6928 4.50136 10.7518 4.4705 10.8179C4.43965 10.884 4.42267 10.9557 4.42061 11.0285C4.41855 11.1014 4.43145 11.174 4.45853 11.2417C4.4856 11.3094 4.52627 11.3708 4.57801 11.4222C4.62976 11.4735 4.69149 11.5138 4.75939 11.5403C4.82729 11.5669 4.89992 11.5793 4.97279 11.5767C5.04566 11.5741 5.11722 11.5566 5.18305 11.5252C5.24889 11.4939 5.3076 11.4494 5.35556 11.3944L8 8.75L10.6444 11.3944C10.6924 11.4494 10.7511 11.4939 10.8169 11.5252C10.8828 11.5566 10.9543 11.5741 11.0272 11.5767C11.1001 11.5793 11.1727 11.5669 11.2406 11.5403C11.3085 11.5138 11.3702 11.4735 11.422 11.4222C11.4737 11.3708 11.5144 11.3094 11.5415 11.2417C11.5685 11.174 11.5815 11.1014 11.5794 11.0285C11.5773 10.9557 11.5604 10.884 11.5295 10.8179C11.4986 10.7518 11.4546 10.6928 11.4 10.6444L8.75556 8L11.4 5.35C11.48 5.27198 11.5335 5.1708 11.5529 5.06074C11.5723 4.95069 11.5567 4.83732 11.5082 4.73663C11.4597 4.63595 11.3808 4.55304 11.2826 4.49962C11.1845 4.4462 11.072 4.42495 10.9611 4.43889C10.8402 4.45483 10.7285 4.51169 10.6444 4.6L8 7.24444L5.35556 4.6C5.29944 4.54158 5.23075 4.49671 5.1547 4.4688C5.07866 4.44088 4.99725 4.43065 4.91667 4.43889Z"/>
</svg>