<svg width="10" height="10" viewBox="0 0 10 10" fill="none" xmlns="http://www.w3.org/2000/svg">
<path fill-rule="evenodd" clip-rule="evenodd" d="M6.17765 4.99914L9.71319 8.53467C10.0386 8.86011 10.0386 9.38775 9.71319 9.71319C9.38775 10.0386 8.86011 10.0386 8.53467 9.71319L4.99914 6.17765L1.4636 9.71319C1.13817 10.0386 0.61053 10.0386 0.285093 9.71319C-0.0403436 9.38775 -0.0403436 8.86011 0.285093 8.53467L3.82063 4.99914L0.285093 1.4636C-0.0403436 1.13817 -0.0403436 0.61053 0.285093 0.285093C0.61053 -0.0403436 1.13817 -0.0403436 1.4636 0.285093L4.99914 3.82063L8.53467 0.285093C8.86011 -0.0403436 9.38775 -0.0403436 9.71319 0.285093C10.0386 0.61053 10.0386 1.13817 9.71319 1.4636L6.17765 4.99914Z" fill="#605E5C"/>
</svg>