<svg width="24" height="24" viewBox="0 0 24 24" fill="none" xmlns="http://www.w3.org/2000/svg">
<path d="M22.2148 12.7858H12.0006C11.5667 12.7858 11.2148 12.4344 11.2148 12.0001C11.2148 11.5658 11.5667 11.2144 12.0006 11.2144H22.2148C22.6488 11.2144 23.0006 11.5658 23.0006 12.0001C23.0006 12.4344 22.6488 12.7858 22.2148 12.7858Z" fill="#0F5EA9"/>
<path d="M22 17.1115H11.7857C11.3518 17.1115 11 16.76 11 16.3258C11 15.8915 11.3518 15.54 11.7857 15.54H22C22.4339 15.54 22.7857 15.8915 22.7857 16.3258C22.7857 16.76 22.4339 17.1115 22 17.1115Z" fill="#0F5EA9"/>
<path d="M22 21.4313H11.7857C11.3518 21.4313 11 21.0799 11 20.6456C11 20.2113 11.3518 19.8599 11.7857 19.8599H22C22.4339 19.8599 22.7857 20.2113 22.7857 20.6456C22.7857 21.0799 22.4339 21.4313 22 21.4313Z" fill="#0F5EA9"/>
<path d="M22.5333 8.46449H16.4667C16.209 8.46449 16 8.11307 16 7.67878C16 7.24449 16.209 6.89307 16.4667 6.89307H22.5333C22.7911 6.89307 23 7.24449 23 7.67878C23 8.11307 22.7911 8.46449 22.5333 8.46449Z" fill="#0F5EA9"/>
<path d="M22.5333 4.14272H16.4667C16.209 4.14272 16 3.79129 16 3.357C16 2.92271 16.209 2.57129 16.4667 2.57129H22.5333C22.7911 2.57129 23 2.92271 23 3.357C23 3.79129 22.7911 4.14272 22.5333 4.14272Z" fill="#0F5EA9"/>
<path d="M7.89572 1.00014C8.10404 1.00014 8.30392 1.08301 8.45124 1.23033L14.5628 7.34187C14.8697 7.64879 14.8697 8.146 14.5628 8.45292C14.2559 8.75984 13.7586 8.75984 13.4517 8.45292L7.89572 2.8969L2.34009 8.45292C2.03317 8.75984 1.53596 8.75984 1.22904 8.45292C0.922119 8.146 0.922119 7.64879 1.22904 7.34187L7.34019 1.23033C7.48751 1.08301 7.6874 1.00014 7.89572 1.00014Z" fill="#0F5EA9"/>
<path d="M7.89397 1C8.32788 1 8.67969 1.35142 8.67969 1.78572L8.67969 22.2143C8.67969 22.6486 8.32788 23 7.89397 23C7.46007 23 7.10826 22.6486 7.10826 22.2143L7.10826 1.78572C7.10826 1.35142 7.46007 1 7.89397 1Z" fill="#0F5EA9"/>
</svg>
