<svg width="16" height="17" viewBox="0 0 16 17" fill="none" xmlns="http://www.w3.org/2000/svg">
<path d="M4.5 0C3.27577 0 2.25706 0.87996 2.04188 2.04188C0.87996 2.25706 0 3.27577 0 4.5V11.5C0 12.8807 1.11929 14 2.5 14H3V15.0284C3 15.8418 3.91937 16.3149 4.58124 15.8421L7.16024 14H11.5C12.8807 14 14 12.8807 14 11.5V10.95C15.1411 10.7184 16 9.70948 16 8.5V3.5C16 1.567 14.433 0 12.5 0H4.5ZM11.5 13H6.83978L4 15.0284V13H2.5C1.67157 13 1 12.3284 1 11.5V4.5C1 3.67157 1.67157 3 2.5 3H11.5C12.3284 3 13 3.67157 13 4.5V11.5C13 12.3284 12.3284 13 11.5 13ZM11.5 2H3.08535C3.29127 1.4174 3.84689 1 4.5 1H12.5C13.8807 1 15 2.11929 15 3.5V8.5C15 9.15311 14.5826 9.70873 14 9.91465V4.5C14 3.11929 12.8807 2 11.5 2Z" fill="#0078D4"/>
</svg>