<svg width="23" height="28" viewBox="0 0 23 28" fill="none" xmlns="http://www.w3.org/2000/svg">
<path d="M16.6389 25.3092C16.6389 25.9504 16.138 26.4491 15.4939 26.4491H2.37954C1.73546 26.4491 1.25239 25.9504 1.25239 25.3092V7.13323C1.25239 6.49204 1.73546 5.96662 2.37954 5.96662H3.93609V21.3374C3.93609 22.6643 5.0364 23.7774 6.3693 23.7774H16.6389V25.3092ZM21.3801 21.373C21.3801 22.0142 20.8613 22.5307 20.2172 22.5307H6.35141C5.70732 22.5307 5.18848 22.0142 5.18848 21.373V2.40446C5.18848 1.76327 5.70732 1.24676 6.35141 1.24676H20.2172C20.8613 1.24676 21.3801 1.76327 21.3801 2.40446V21.373Z" fill="#0F5EA9"/>
<path d="M19.3136 10.6133H8.41133C8.23561 10.6133 8.06709 10.6832 7.94284 10.8076C7.81858 10.932 7.74878 11.1007 7.74878 11.2767C7.74878 11.4526 7.81858 11.6214 7.94284 11.7458C8.06709 11.8702 8.23561 11.9401 8.41133 11.9401H19.3136C19.4893 11.9401 19.6579 11.8702 19.7821 11.7458C19.9064 11.6214 19.9762 11.4526 19.9762 11.2767C19.9762 11.1007 19.9064 10.932 19.7821 10.8076C19.6579 10.6832 19.4893 10.6133 19.3136 10.6133Z" fill="white"/>
<path d="M8.41133 7.96547H14.3445C14.5202 7.96547 14.6887 7.89557 14.813 7.77116C14.9372 7.64675 15.007 7.47801 15.007 7.30207C15.007 7.12613 14.9372 6.95739 14.813 6.83298C14.6887 6.70857 14.5202 6.63867 14.3445 6.63867H8.41133C8.23561 6.63867 8.06709 6.70857 7.94284 6.83298C7.81858 6.95739 7.74878 7.12613 7.74878 7.30207C7.74878 7.47801 7.81858 7.64675 7.94284 7.77116C8.06709 7.89557 8.23561 7.96547 8.41133 7.96547Z" fill="white"/>
<path d="M19.3136 14.5977H8.41133C8.23561 14.5977 8.06709 14.6675 7.94284 14.792C7.81858 14.9164 7.74878 15.0851 7.74878 15.2611C7.74878 15.437 7.81858 15.6057 7.94284 15.7301C8.06709 15.8546 8.23561 15.9245 8.41133 15.9245H19.3136C19.4893 15.9245 19.6579 15.8546 19.7821 15.7301C19.9064 15.6057 19.9762 15.437 19.9762 15.2611C19.9762 15.0851 19.9064 14.9164 19.7821 14.792C19.6579 14.6675 19.4893 14.5977 19.3136 14.5977Z" fill="white"/>
</svg>
