<svg width="167" height="152" viewBox="0 0 167 152" fill="none" xmlns="http://www.w3.org/2000/svg">
<circle opacity="0.2" cx="63.5" cy="63.5" r="63.5" fill="#D3D3D3" fill-opacity="0.8"/>
<circle opacity="0.2" cx="95.424" cy="80.7196" r="71.2801" fill="#E4E4E4" fill-opacity="0.8"/>
<path d="M107.12 40.3583V40.7083H107.47H116.822C118.57 40.7083 120.226 41.4235 121.583 42.6696C122.821 43.9051 123.541 45.548 123.541 47.4V120.092C123.541 123.689 120.545 126.675 116.931 126.675H60.8162C57.202 126.675 54.2062 123.689 54.2062 120.092V110.775V110.425H53.8562H44.5037C40.7843 110.425 37.8937 107.442 37.8937 103.842V51.95V51.9192L37.8884 51.8889C37.5861 50.1825 38.2893 48.4514 39.5307 47.2146L60.5195 26.3063C61.7624 25.0681 63.415 24.35 65.1662 24.35H100.401C102.148 24.35 103.804 25.0652 105.162 26.3113C106.399 27.5468 107.12 29.1896 107.12 31.0417V40.3583ZM60.925 31.6667H60.7804L60.678 31.7687L44.9092 47.477L44.309 48.075H45.1562H59.0762C60.3558 48.075 61.3837 47.0529 61.3837 45.775V32.0167V31.6667H61.0337H60.925ZM107.361 44.6667H107.011V45.0167V103.625C107.011 107.327 104.019 110.208 100.401 110.208H58.315H57.965V110.558V119.983C57.965 121.489 59.2214 122.608 60.5987 122.608H116.714C118.222 122.608 119.347 121.359 119.347 119.983V47.2917C119.347 46.5547 119.097 45.9219 118.592 45.4187C118.087 44.9156 117.452 44.6667 116.714 44.6667H107.361ZM100.401 28.3083L100.4 28.3083L65.6002 28.4167L65.2512 28.4178V28.7667V45.775C65.2512 49.1592 62.4692 52.0333 58.9675 52.0333H41.8937H41.5437V52.3833V103.625C41.5437 105.12 42.7892 106.358 44.2862 106.358H100.401C101.909 106.358 103.035 105.109 103.035 103.733V30.9333C103.035 30.1963 102.785 29.5635 102.279 29.0604C101.774 28.5573 101.14 28.3083 100.401 28.3083ZM53.095 62.7H91.4837C92.586 62.7 93.4175 63.617 93.4175 64.625C93.4175 65.6221 92.488 66.55 91.4837 66.55H53.095C51.9928 66.55 51.1612 65.633 51.1612 64.625C51.1612 63.617 51.9928 62.7 53.095 62.7ZM53.2838 73.809H91.6725C92.7748 73.809 93.6063 74.726 93.6063 75.734C93.6063 76.7311 92.6768 77.659 91.6725 77.659H53.2838C52.1816 77.659 51.35 76.742 51.35 75.734C51.35 74.726 52.1816 73.809 53.2838 73.809ZM53.2838 84.809H91.6725C92.7748 84.809 93.6063 85.726 93.6063 86.734C93.6063 87.8287 92.6877 88.659 91.6725 88.659H53.2838C52.1816 88.659 51.35 87.742 51.35 86.734C51.35 85.726 52.1816 84.809 53.2838 84.809Z" fill="#A19F9D" stroke="white" stroke-width="0.7"/>
</svg>
