<svg width="167" height="152" viewBox="0 0 167 152" fill="none" xmlns="http://www.w3.org/2000/svg">
<circle opacity="0.2" cx="63.5" cy="63.5" r="63.5" fill="#D3D3D3" fill-opacity="0.8"/>
<circle opacity="0.2" cx="95.4242" cy="80.7196" r="71.2801" fill="#E4E4E4" fill-opacity="0.8"/>
<path fill-rule="evenodd" clip-rule="evenodd" d="M140.414 113.742C139.85 110.858 137.773 107.964 134.24 105.143C131.483 102.941 127.876 100.831 123.756 99.0024C124.008 96.9206 123.434 95.0645 122.123 93.7527C122.118 93.748 122.113 93.7436 122.108 93.7391C122.104 93.7351 122.099 93.731 122.095 93.7268C126.622 84.0481 124.896 72.1452 116.915 64.164C115.609 62.8587 114.182 61.7092 112.661 60.7219V37.3252C112.661 31.6317 108.029 27 102.336 27H61.6571C61.262 27 60.8635 27.1651 60.5844 27.4442C60.5844 27.4442 37.4511 50.5775 37.4422 50.5868C37.1645 50.8755 37 51.2549 37 51.6573V103.812C37 104.65 37.6792 105.329 38.5171 105.329C39.3549 105.329 40.0341 104.65 40.0341 103.812V53.1743H55.8809C59.9023 53.1743 63.1739 49.9025 63.1739 45.8813V30.0343H102.336C106.356 30.0343 109.627 33.3051 109.627 37.3252V59.0203C106.433 57.5028 102.981 56.6632 99.438 56.5335C98.456 56.4953 97.4711 56.5103 96.4908 56.5861C95.6552 56.6484 95.0284 57.376 95.0907 58.2114C95.152 59.0353 95.8945 59.6737 96.7164 59.612C97.7931 59.5311 98.8779 59.5272 99.9554 59.5984C103.439 59.8268 106.81 60.8386 109.823 62.5456L109.831 62.5499L109.841 62.5559C111.627 63.5697 113.286 64.8268 114.769 66.3095C122.197 73.7371 123.495 85.0077 118.665 93.78C116.505 97.7048 113.127 101.089 109.1 103.12L109.04 103.15C99.3553 108.016 86.9616 105.413 80.2454 96.8516C80.2343 96.8374 80.2236 96.8231 80.2119 96.8095C77.9454 93.9065 76.4271 90.5355 75.7527 86.936C75.746 86.8875 75.7371 86.8397 75.726 86.7924C74.0194 79.5714 76.9684 71.4573 82.1161 66.3093C84.4188 64.0066 87.1184 62.2498 90.1392 61.088C90.9212 60.7872 91.3114 59.9095 91.0106 59.1275C90.7138 58.3554 89.821 57.958 89.0487 58.2549C85.6308 59.5697 82.5765 61.5579 79.9703 64.1638C79.9359 64.1982 79.9022 64.2331 79.8684 64.268C79.8452 64.292 79.822 64.316 79.7986 64.3398H48.4363C47.5985 64.3398 46.9192 65.019 46.9192 65.8568C46.9192 66.6949 47.5985 67.3739 48.4363 67.3739H77.2364C75.5565 69.6979 74.2823 72.2633 73.4532 74.9827H48.4363C47.5985 74.9827 46.9192 75.662 46.9192 76.4998C46.9192 77.3378 47.5985 78.0169 48.4363 78.0169H72.7252C72.7185 78.0543 72.7108 78.0913 72.7044 78.1285C72.4495 79.6023 72.3196 81.1087 72.3196 82.635C72.3196 83.642 72.3781 84.6398 72.4898 85.6259H48.4363C47.5985 85.6259 46.9192 86.3051 46.9192 87.143C46.9192 87.981 47.5985 88.66 48.4363 88.66H73.0159C73.6482 91.3509 74.7041 93.9142 76.1504 96.2688H48.4363C47.5985 96.2688 46.9192 96.9481 46.9192 97.7859C46.9192 98.624 47.5985 99.303 48.4363 99.303H78.3273C78.8445 99.925 79.3918 100.527 79.9709 101.107C81.1081 102.244 82.3501 103.265 83.6712 104.182C91.2679 109.408 101.11 110.262 109.538 106.291C109.542 106.295 109.545 106.299 109.548 106.302C109.552 106.307 109.556 106.311 109.561 106.315C109.573 106.328 109.586 106.34 109.6 106.353C109.609 106.361 109.618 106.37 109.627 106.378V115.675C109.627 119.695 106.356 122.965 102.336 122.965H47.3252C43.3049 122.966 40.0343 119.695 40.0343 115.675V109.88C40.0343 109.042 39.3551 108.363 38.5173 108.363C37.6794 108.363 37.0002 109.042 37.0002 109.88V115.675C37.0002 121.368 41.6321 126 47.3254 126H102.336C108.03 126 112.662 121.368 112.662 115.675V107.902C113.054 107.971 113.463 108.007 113.887 108.007C114.193 108.007 114.502 107.988 114.811 107.951C116.815 112.467 119.138 116.332 121.568 119.18C124.728 122.884 127.942 124.761 131.124 124.762C133.436 124.762 135.612 123.759 137.589 121.781C140.629 118.741 140.803 115.731 140.414 113.742ZM60.14 45.8811C60.14 48.2293 58.2295 50.14 55.8811 50.14H42.1797L60.14 32.1799V45.8811ZM113.886 104.973C113.531 104.973 113.094 104.928 112.661 104.77V104.552L112.691 104.533L112.714 104.518C113.839 103.787 114.905 102.964 115.903 102.066C117.43 100.691 118.8 99.1365 119.965 97.4435C120.145 97.1815 120.323 96.9173 120.494 96.6491C120.768 97.2495 120.849 97.9916 120.722 98.8155C120.488 100.324 119.65 101.706 118.582 102.775C117.349 104.006 115.672 104.971 113.886 104.973ZM135.443 119.636C134.036 121.044 132.623 121.728 131.123 121.728C126.886 121.727 121.824 116.151 117.737 107.069C117.866 107.006 117.994 106.94 118.121 106.871C119.213 106.281 120.197 105.503 121.04 104.594C121.766 103.812 122.384 102.926 122.856 101.968L122.864 101.952C122.868 101.945 122.872 101.938 122.875 101.931C131.127 105.653 136.656 110.334 137.436 114.324C137.802 116.192 137.15 117.93 135.443 119.636Z" fill="#A19F9D"/>
<path d="M93.0979 82.5407C94.5278 82.5407 95.687 81.3815 95.687 79.9516C95.687 78.5217 94.5278 77.3625 93.0979 77.3625C91.668 77.3625 90.5088 78.5217 90.5088 79.9516C90.5088 81.3815 91.668 82.5407 93.0979 82.5407Z" fill="#A19F9D"/>
<path d="M107.77 79.9516C107.77 81.3815 106.61 82.5407 105.181 82.5407C103.751 82.5407 102.591 81.3815 102.591 79.9516C102.591 78.5217 103.751 77.3625 105.181 77.3625C106.61 77.3625 107.77 78.5217 107.77 79.9516Z" fill="#A19F9D"/>
<path d="M92.8451 90.7272C94.5803 88.9921 96.2155 88.1709 97.6647 87.8667C99.1164 87.5621 100.448 87.7622 101.597 88.1776C102.751 88.595 103.708 89.2263 104.381 89.7611C104.716 90.027 104.975 90.2653 105.149 90.4344C105.236 90.5189 105.301 90.5857 105.343 90.6298C105.363 90.6519 105.378 90.6682 105.387 90.6781L105.397 90.688C105.397 90.688 105.396 90.6879 106.044 90.1169C106.691 89.5459 106.69 89.5452 106.69 89.5452L106.689 89.5443L106.687 89.5419L106.681 89.5352L106.662 89.5141C106.646 89.4967 106.624 89.4727 106.596 89.4428C106.539 89.383 106.458 89.2995 106.353 89.1977C106.144 88.9943 105.841 88.7167 105.454 88.4096C104.685 87.7981 103.565 87.054 102.184 86.5544C100.797 86.0527 99.1354 85.7944 97.3102 86.1775C95.4825 86.561 93.5575 87.5738 91.6246 89.5066L92.8451 90.7272Z" fill="#A19F9D"/>
<path fill-rule="evenodd" clip-rule="evenodd" d="M111.555 69.5232C108.053 66.0206 103.396 64.0919 98.4431 64.0919C93.4897 64.0919 88.8331 66.0206 85.3307 69.5232C78.1006 76.7533 78.1006 88.5175 85.3307 95.7479C88.8331 99.2503 93.4897 101.179 98.4431 101.179C103.396 101.179 108.053 99.2503 111.555 95.7479C115.058 92.2455 116.987 87.5889 116.987 82.6357C116.987 77.6826 115.058 73.0258 111.555 69.5232ZM109.41 93.6023C106.48 96.5319 102.586 98.145 98.4429 98.145C94.3001 98.145 90.4054 96.5319 87.4761 93.6023C81.429 87.5551 81.429 77.7158 87.4761 71.6687C90.4054 68.7392 94.3001 67.126 98.4429 67.126C102.585 67.126 106.48 68.7394 109.41 71.6687C112.339 74.5981 113.952 78.4927 113.952 82.6355C113.952 86.7781 112.339 90.673 109.41 93.6023Z" fill="#A19F9D"/>
</svg>
