<svg width="24" height="24" viewBox="0 0 24 24" fill="none" xmlns="http://www.w3.org/2000/svg">
<path d="M5.70908 10.5858H10.3596C10.6121 10.5858 10.8186 10.3795 10.8186 10.1274C10.8186 9.87524 10.6121 9.66895 10.3596 9.66895H5.70908C5.45659 9.66895 5.25 9.87524 5.25 10.1274C5.25 10.3795 5.45659 10.5858 5.70908 10.5858Z" fill="#0F5EA9" stroke="#0F5EA9" stroke-width="0.5"/>
<path d="M19.6277 14.6702L17.8556 12.9007C17.6674 12.7219 17.3782 12.7219 17.1991 12.9007L13.0904 16.9899C13.0399 17.0403 12.9985 17.1045 12.9756 17.1778L12.1538 19.7817C12.1033 19.9467 12.1447 20.1209 12.2686 20.2447C12.3558 20.3318 12.4752 20.3777 12.5946 20.3777C12.6405 20.3777 12.6864 20.3685 12.7323 20.3547L15.3399 19.5342C15.4087 19.5112 15.473 19.4746 15.5281 19.4195L19.6277 15.3166C19.8067 15.1378 19.8067 14.849 19.6277 14.6702ZM13.2924 19.227L13.6229 18.1818L14.3391 18.8969L13.2924 19.227ZM15.1975 18.4568L14.0636 17.3245L17.5205 13.8817L18.6452 15.0049L15.1975 18.4568Z" fill="#0F5EA9" stroke="#0F5EA9" stroke-width="0.5"/>
<path d="M17.0119 10.5262V6.35903C17.0119 6.23984 16.9568 6.12523 16.8788 6.04272L12.2008 1.14211C12.1135 1.05043 11.9942 1 11.8702 1H4.46067C3.09261 1 2 2.11398 2 3.4801V17.4713C2 18.8375 3.09261 19.9331 4.46067 19.9331H10.3048C11.4065 21.7668 13.4219 23 15.7219 23C19.2063 23 22.0343 20.1715 22.0343 16.6966C22.0343 13.6664 19.8766 11.1267 17.0119 10.5262ZM12.3293 2.60909L15.4648 5.90519H13.4311C12.8205 5.90519 12.3293 5.4055 12.3293 4.80038V2.60909ZM4.46067 19.0208C3.60219 19.0208 2.91816 18.3332 2.91816 17.4759V3.4801C2.91816 2.61825 3.60219 1.91686 4.46067 1.91686H11.4111V4.80496C11.4111 5.91894 12.3155 6.82663 13.4311 6.82663H16.0938V10.407C15.9698 10.3978 15.8459 10.3978 15.7219 10.3978C14.1335 10.3978 12.6782 10.9892 11.5672 11.961H5.70937C5.45687 11.961 5.25029 12.1673 5.25029 12.4195C5.25029 12.6716 5.45687 12.8779 5.70937 12.8779H10.7087C10.3782 13.3088 10.0982 13.7902 9.88699 14.299H5.70937C5.45687 14.299 5.25029 14.5053 5.25029 14.7575C5.25029 15.0096 5.45687 15.2159 5.70937 15.2159H9.58859C9.47382 15.6926 9.40955 16.1877 9.40955 16.7012C9.40955 17.5218 9.56564 18.3011 9.85027 19.0208H4.46067ZM15.7219 22.0831C12.7471 22.0831 10.3277 19.6672 10.3277 16.6966C10.3277 13.726 12.7471 11.3101 15.7219 11.3101C18.6967 11.3101 21.1161 13.726 21.1161 16.6966C21.1161 19.6672 18.6967 22.0831 15.7219 22.0831Z" fill="#0F5EA9" stroke="#0F5EA9" stroke-width="0.5"/>
</svg>
