<svg width="24" height="24" viewBox="0 0 24 24" fill="none" xmlns="http://www.w3.org/2000/svg">
<g opacity="0.6">
<path d="M22.4537 21.4284H16.5463C16.2446 21.4284 16 21.0769 16 20.6426C16 20.2084 16.2446 19.8569 16.5463 19.8569H22.4537C22.7554 19.8569 23 20.2084 23 20.6426C23 21.0769 22.7554 21.4284 22.4537 21.4284Z" fill="#0F5EA9"/>
</g>
<g opacity="0.6">
<path d="M22.2132 17.1071H17.106C16.6721 17.1071 16.3203 16.7557 16.3203 16.3214C16.3203 15.8871 16.6721 15.5356 17.106 15.5356H22.2132C22.6471 15.5356 22.9989 15.8871 22.9989 16.3214C22.9989 16.7557 22.6471 17.1071 22.2132 17.1071Z" fill="#0F5EA9"/>
</g>
<path d="M22.2148 12.7858H12.0006C11.5667 12.7858 11.2148 12.4344 11.2148 12.0001C11.2148 11.5658 11.5667 11.2144 12.0006 11.2144H22.2148C22.6488 11.2144 23.0006 11.5658 23.0006 12.0001C23.0006 12.4344 22.6488 12.7858 22.2148 12.7858Z" fill="#0F5EA9"/>
<path d="M22.2148 8.46449H12.0006C11.5667 8.46449 11.2148 8.11307 11.2148 7.67878C11.2148 7.24449 11.5667 6.89307 12.0006 6.89307H22.2148C22.6488 6.89307 23.0006 7.24449 23.0006 7.67878C23.0006 8.11307 22.6488 8.46449 22.2148 8.46449Z" fill="#0F5EA9"/>
<path d="M22.2148 4.14272H12.0006C11.5667 4.14272 11.2148 3.79129 11.2148 3.357C11.2148 2.92271 11.5667 2.57129 12.0006 2.57129H22.2148C22.6488 2.57129 23.0006 2.92271 23.0006 3.357C23.0006 3.79129 22.6488 4.14272 22.2148 4.14272Z" fill="#0F5EA9"/>
<path d="M7.89725 22.9999C7.68893 22.9999 7.48905 22.917 7.34173 22.7697L1.23019 16.6581C0.92327 16.3512 0.92327 15.854 1.23019 15.5471C1.53711 15.2402 2.03432 15.2402 2.34124 15.5471L7.89725 21.1031L13.4529 15.5471C13.7598 15.2402 14.257 15.2402 14.5639 15.5471C14.8708 15.854 14.8708 16.3512 14.5639 16.6581L8.45278 22.7697C8.30545 22.917 8.10557 22.9999 7.89725 22.9999Z" fill="#0F5EA9"/>
<path d="M7.899 23C7.46509 23 7.11328 22.6486 7.11328 22.2143V1.78571C7.11328 1.35142 7.46509 1 7.899 1C8.3329 1 8.68471 1.35142 8.68471 1.78571V22.2143C8.68471 22.6486 8.3329 23 7.899 23Z" fill="#0F5EA9"/>
</svg>
