<svg width="20" height="20" viewBox="0 0 20 20" fill="none" xmlns="http://www.w3.org/2000/svg">
<path d="M6.94876 5.75541C7.2949 5.56222 7.66737 5.50007 8.03002 5.50005C8.44983 5.50003 8.93739 5.6441 9.33122 5.98125C9.7435 6.33419 10.0237 6.87569 10.0237 7.58231C10.0237 8.39429 9.47452 8.83512 9.16488 9.08365C9.14082 9.10297 9.1182 9.12112 9.0974 9.1382C8.75875 9.41622 8.62816 9.56478 8.62816 9.87347C8.62816 10.2186 8.36038 10.4983 8.03005 10.4983C7.69973 10.4983 7.43195 10.2186 7.43195 9.87347C7.43195 8.92872 7.99915 8.45041 8.35829 8.15557C8.76765 7.8195 8.82753 7.74464 8.82753 7.58231C8.82753 7.25152 8.70903 7.0643 8.57305 6.94789C8.41862 6.81569 8.20839 6.74976 8.03009 6.74977C7.79463 6.74979 7.6328 6.79051 7.51241 6.8577C7.39801 6.92154 7.27697 7.03365 7.16027 7.25853C7.00283 7.56191 6.63979 7.67451 6.3494 7.51003C6.05901 7.34554 5.95123 6.96627 6.10867 6.66288C6.31894 6.2577 6.59663 5.95193 6.94876 5.75541Z" fill="#A19F9D"/>
<path d="M8.03019 12.9979C8.47066 12.9979 8.82772 12.6248 8.82772 12.1647C8.82772 11.7045 8.47066 11.3315 8.03019 11.3315C7.58973 11.3315 7.23266 11.7045 7.23266 12.1647C7.23266 12.6248 7.58973 12.9979 8.03019 12.9979Z" fill="#A19F9D"/>
<path d="M8.03018 3C4.72692 3 2.04911 5.7976 2.04911 9.24861C2.04911 10.1925 2.24981 11.0889 2.60946 11.8925C2.40687 12.724 2.18053 13.6511 2.03189 14.2597C1.84606 15.0206 2.50193 15.7128 3.23109 15.5297C3.82938 15.3795 4.74889 15.1489 5.56828 14.9448C6.31975 15.2998 7.15362 15.4972 8.03018 15.4972C11.3334 15.4972 14.0112 12.6996 14.0112 9.24861C14.0112 5.7976 11.3334 3 8.03018 3ZM3.24532 9.24861C3.24532 6.4878 5.38757 4.24972 8.03018 4.24972C10.6728 4.24972 12.815 6.4878 12.815 9.24861C12.815 12.0094 10.6728 14.2475 8.03018 14.2475C7.26401 14.2475 6.54152 14.0598 5.90094 13.7267L5.70683 13.6257L5.49588 13.6782C4.76003 13.8612 3.90987 14.0741 3.27271 14.234C3.43121 13.5849 3.64108 12.7248 3.82304 11.9777L3.87901 11.7479L3.77492 11.5371C3.43661 10.8521 3.24532 10.0746 3.24532 9.24861Z" fill="#A19F9D"/>
<path d="M12.0176 17.9967C10.447 17.9967 9.01788 17.3643 7.9507 16.3299C7.97717 16.3302 8.00368 16.3304 8.03022 16.3304C8.60278 16.3304 9.15876 16.2562 9.68984 16.1166C10.3788 16.5182 11.1726 16.747 12.0176 16.747C12.7837 16.747 13.5062 16.5593 14.1468 16.2262L14.3409 16.1252L14.5519 16.1777C15.2868 16.3604 16.119 16.5491 16.7363 16.6855C16.5968 16.0602 16.4064 15.2232 16.2247 14.4772L16.1687 14.2474L16.2728 14.0366C16.6111 13.3516 16.8024 12.5741 16.8024 11.7481C16.8024 9.98623 15.93 8.43726 14.6118 7.54699C14.4695 6.94441 14.2534 6.37222 13.9741 5.84147C16.3165 6.68821 17.9986 9.01293 17.9986 11.7481C17.9986 12.6922 17.7979 13.5888 17.438 14.3925C17.6398 15.2323 17.8442 16.1421 17.9738 16.7281C18.1368 17.4654 17.5153 18.1327 16.8035 17.9773C16.2236 17.8507 15.3125 17.6476 14.4801 17.444C13.7285 17.7992 12.8944 17.9967 12.0176 17.9967Z" fill="#A19F9D"/>
</svg>