<svg width="20" height="20" viewBox="0 0 20 20" fill="none" xmlns="http://www.w3.org/2000/svg">
<path d="M6.18595 4.28715C6.61862 4.05669 7.08422 3.98254 7.53753 3.98252C8.06229 3.98249 8.67174 4.15436 9.16403 4.55657C9.67938 4.97763 10.0297 5.62363 10.0297 6.46662C10.0297 7.43529 9.34315 7.9612 8.9561 8.25769C8.92602 8.28073 8.89775 8.30239 8.87175 8.32276C8.44844 8.65444 8.2852 8.83167 8.2852 9.19993C8.2852 9.61162 7.95047 9.94537 7.53757 9.94537C7.12466 9.94537 6.78993 9.61162 6.78993 9.19993C6.78993 8.07285 7.49894 7.50224 7.94787 7.1505C8.45956 6.74958 8.53441 6.66028 8.53441 6.46662C8.53441 6.07199 8.38629 5.84864 8.21631 5.70977C8.02327 5.55205 7.76048 5.4734 7.53761 5.47341C7.24329 5.47343 7.041 5.52201 6.89051 5.60216C6.74752 5.67833 6.59621 5.81208 6.45034 6.08035C6.25354 6.44228 5.79974 6.57661 5.43675 6.38038C5.07376 6.18416 4.93904 5.73169 5.13584 5.36976C5.39867 4.88638 5.74579 4.52161 6.18595 4.28715Z" fill="#0F5094"/>
<path d="M7.53774 12.9273C8.08832 12.9273 8.53465 12.4823 8.53465 11.9333C8.53465 11.3843 8.08832 10.9393 7.53774 10.9393C6.98716 10.9393 6.54082 11.3843 6.54082 11.9333C6.54082 12.4823 6.98716 12.9273 7.53774 12.9273Z" fill="#0F5094"/>
<path d="M7.53772 1C3.40865 1 0.0613816 4.33748 0.0613816 8.45448C0.0613816 9.58048 0.312257 10.6499 0.761819 11.6086C0.508588 12.6005 0.225665 13.7066 0.0398643 14.4327C-0.192424 15.3404 0.627413 16.1662 1.53887 15.9477C2.28673 15.7685 3.43611 15.4934 4.46035 15.25C5.39969 15.6735 6.44203 15.909 7.53772 15.909C11.6668 15.909 15.0141 12.5715 15.0141 8.45448C15.0141 4.33748 11.6668 1 7.53772 1ZM1.55665 8.45448C1.55665 5.16088 4.23447 2.4909 7.53772 2.4909C10.841 2.4909 13.5188 5.16088 13.5188 8.45448C13.5188 11.7481 10.841 14.4181 7.53772 14.4181C6.58002 14.4181 5.67691 14.1942 4.87618 13.7967L4.63353 13.6763L4.36985 13.7389C3.45003 13.9572 2.38733 14.2112 1.59089 14.4019C1.78901 13.6275 2.05135 12.6016 2.27879 11.7103L2.34876 11.4361L2.21865 11.1846C1.79577 10.3674 1.55665 9.43988 1.55665 8.45448Z" fill="#0F5094"/>
<path d="M12.522 18.8908C10.5588 18.8908 8.77236 18.1363 7.43837 16.9024C7.47147 16.9028 7.5046 16.9029 7.53778 16.9029C8.25348 16.9029 8.94845 16.8145 9.6123 16.6479C10.4735 17.1269 11.4658 17.3999 12.522 17.3999C13.4797 17.3999 14.3828 17.176 15.1835 16.7786L15.4262 16.6581L15.6898 16.7207C16.6085 16.9388 17.6487 17.1638 18.4204 17.3265C18.246 16.5806 18.008 15.5821 17.7809 14.6921L17.7109 14.4179L17.841 14.1665C18.2639 13.3493 18.503 12.4217 18.503 11.4363C18.503 9.33445 17.4125 7.48655 15.7648 6.42448C15.5869 5.70562 15.3168 5.02299 14.9676 4.38982C17.8957 5.39997 19.9983 8.17332 19.9983 11.4363C19.9983 12.5626 19.7473 13.6322 19.2976 14.5911C19.5498 15.5929 19.8052 16.6783 19.9672 17.3773C20.171 18.2569 19.3941 19.0531 18.5044 18.8677C17.7795 18.7166 16.6407 18.4743 15.6002 18.2315C14.6606 18.6552 13.618 18.8908 12.522 18.8908Z" fill="#0F5094"/>
</svg>
