<svg width="12" height="14" viewBox="0 0 12 14" fill="none" xmlns="http://www.w3.org/2000/svg">
<path fill-rule="evenodd" clip-rule="evenodd" d="M6 0.799805C9.31364 0.799805 12 3.62048 12 7.0998C12 10.5791 9.31364 13.3998 6 13.3998C2.68636 13.3998 0 10.5791 0 7.0998C0 3.62048 2.68636 0.799805 6 0.799805ZM4.72862 7.05379L4.59109 6.609C4.58365 6.5844 4.58778 6.55951 4.60294 6.53897C4.98797 6.01807 5.55599 5.55794 6.22159 5.65951C6.65374 5.72521 6.93321 6.17231 6.81911 6.6145C6.52448 7.7573 6.21249 8.89517 5.91787 10.0377C5.87791 10.1934 6.01378 10.3346 6.16151 10.2909C6.41314 10.2162 6.65953 9.89443 6.81938 9.68694C6.85576 9.63977 6.92715 9.65366 6.94506 9.71154L7.08231 10.156C7.09003 10.1806 7.0859 10.2058 7.07074 10.2264C6.68544 10.7473 6.11741 11.2071 5.45181 11.1055C5.01994 11.0398 4.74019 10.593 4.8543 10.1505C5.1492 9.00775 5.46091 7.87016 5.75554 6.72736C5.7955 6.57167 5.6599 6.43045 5.51217 6.47443C5.26054 6.54881 5.01415 6.87032 4.85402 7.0781C4.81764 7.12527 4.74626 7.11138 4.72862 7.05379ZM6.57051 3.0799C7.03546 3.0799 7.41249 3.47579 7.41249 3.96398C7.41249 4.45218 7.03546 4.84807 6.57051 4.84807C6.10556 4.84807 5.72853 4.45218 5.72853 3.96398C5.72853 3.47579 6.10556 3.0799 6.57051 3.0799Z" fill="#8A8886"/>
</svg>