<svg width="14" height="18" viewBox="0 0 14 18" fill="none" xmlns="http://www.w3.org/2000/svg">
<path d="M11.5426 7.15714H11.0318V5.10989C11.0318 2.66456 9.33513 0.75 6.90878 0.75C4.48243 0.75 2.8223 2.70247 2.8223 5.10989V7.13819C2.8223 7.15714 2.8223 7.15714 2.8223 7.13819H2.31149C1.18041 7.13819 0.268243 8.08599 0.25 9.28022V15.6874C0.25 16.8626 1.16216 17.8104 2.31149 17.8294H11.5426C12.6736 17.8294 13.5858 16.8816 13.6041 15.6874V9.28022C13.6041 8.10495 12.6736 7.15714 11.5426 7.15714ZM3.84392 7.15714V5.10989C3.84392 3.29011 5.04797 1.81154 6.90878 1.81154C8.75135 1.81154 10.0101 3.2522 10.0101 5.10989V7.13819C10.0101 7.15714 10.0101 7.15714 10.0101 7.13819H3.84392C3.84392 7.15714 3.84392 7.15714 3.84392 7.15714ZM12.5642 15.6874C12.5642 16.275 12.1081 16.7489 11.5426 16.7489H2.31149C1.74595 16.7489 1.28987 16.275 1.28987 15.6874V9.28022C1.28987 8.69258 1.74595 8.21868 2.31149 8.21868H11.5426C12.1081 8.21868 12.5642 8.69258 12.5642 9.28022V15.6874ZM7.94865 11.4223C7.94865 11.8203 7.74797 12.1615 7.43784 12.3511H7.41959H7.43784V14.0951C7.43784 14.3984 7.20068 14.6258 6.92703 14.6258C6.63513 14.6258 6.41622 14.3794 6.41622 14.0951V12.3511H6.43446H6.41622C6.10608 12.1615 5.90541 11.8203 5.90541 11.4223C5.90541 10.8346 6.36149 10.3607 6.92703 10.3607C7.49257 10.3418 7.94865 10.8157 7.94865 11.4223Z" fill="#CD0909"/>
</svg>