<svg width="16" height="16" viewBox="0 0 16 16" fill="none" xmlns="http://www.w3.org/2000/svg">
<path d="M11.0513 8.32558C13.2321 8.32558 15 10.0436 15 12.1628C15 14.282 13.2321 16 11.0513 16C8.87047 16 7.10256 14.282 7.10256 12.1628C7.10256 10.0436 8.87047 8.32558 11.0513 8.32558ZM7.82051 1C9.20831 1 10.3333 2.09326 10.3333 3.44186H13.9231C14.3196 3.44186 14.641 3.75422 14.641 4.13953C14.641 4.52485 14.3196 4.83721 13.9231 4.83721H13.3166L12.9923 8.03759C12.4013 7.77453 11.7439 7.62791 11.0513 7.62791C8.47395 7.62791 6.38462 9.65824 6.38462 12.1628C6.38462 13.3812 6.87909 14.4874 7.68367 15.3023H5.17339C4.15783 15.3023 3.30792 14.5537 3.20851 13.5715L2.32443 4.83721H1.71795C1.32144 4.83721 1 4.52485 1 4.13953C1 3.75422 1.32144 3.44186 1.71795 3.44186H5.30769C5.30769 2.09326 6.43272 1 7.82051 1ZM9.05229 10.1316L9.00258 10.1719L8.96104 10.2203C8.87624 10.3392 8.87624 10.498 8.96104 10.617L9.00258 10.6653L10.5437 12.1628L9.00258 13.6603L8.96104 13.7086C8.87624 13.8276 8.87624 13.9864 8.96104 14.1053L9.00258 14.1536L9.05229 14.194C9.17471 14.2764 9.33811 14.2764 9.46053 14.194L9.51024 14.1536L11.0513 12.656L12.5923 14.1536L12.642 14.194C12.7645 14.2764 12.9279 14.2764 13.0503 14.194L13.1 14.1536L13.1415 14.1053C13.2263 13.9864 13.2263 13.8276 13.1415 13.7086L13.1 13.6603L11.5589 12.1628L13.1 10.6653L13.1415 10.617C13.2263 10.498 13.2263 10.3392 13.1415 10.2203L13.1 10.1719L13.0503 10.1316C12.9279 10.0492 12.7645 10.0492 12.642 10.1316L12.5923 10.1719L11.0513 11.6695L9.51024 10.1719L9.46053 10.1316C9.3556 10.0609 9.22056 10.0508 9.10703 10.1013L9.05229 10.1316ZM7.82051 2.39535C7.22574 2.39535 6.74359 2.86389 6.74359 3.44186H8.89744C8.89744 2.86389 8.41528 2.39535 7.82051 2.39535Z" fill="#0F5EA9"/>
</svg>
