<svg width="167" height="153" viewBox="0 0 167 153" fill="none" xmlns="http://www.w3.org/2000/svg">
<circle opacity="0.2" cx="63.5" cy="63.5" r="63.5" fill="#D3D3D3" fill-opacity="0.8"/>
<circle opacity="0.2" cx="95.424" cy="80.7215" r="71.2801" fill="#E4E4E4" fill-opacity="0.8"/>
<mask id="path-3-inside-1" fill="white">
<path fill-rule="evenodd" clip-rule="evenodd" d="M47.7123 68.5066C47.7123 89.035 43.0192 95.3076 40.1575 97.1323C37.7537 98.729 36.3801 101.466 36.3801 104.203C36.3801 108.993 40.272 112.757 44.9651 112.757H64.9967V112.985C66.0269 120.056 72.0937 125.302 79.1906 125.302C86.2875 125.302 92.3542 120.056 93.3844 113.099V112.871H111.127C115.82 112.871 119.712 108.993 119.712 104.317C119.712 101.466 118.338 98.843 115.934 97.2464C114.691 96.4041 113.102 94.7437 111.702 91.461C110.329 92.0348 108.877 92.4598 107.368 92.7157C107.474 92.9765 107.582 93.2322 107.693 93.4828C107.693 93.4828 108.354 95.2056 108.95 96.2204C109.389 96.967 109.671 97.3676 110.211 98.0447C111.254 99.3516 112.157 100.212 113.302 101.01C114.446 101.808 115.133 103.063 115.133 104.317C115.133 106.484 113.302 108.309 111.127 108.309H44.9651C42.7902 108.309 40.9588 106.484 40.9588 104.317C40.9588 102.949 41.6456 101.694 42.7902 101.01C49.0859 96.6762 52.291 85.8417 52.291 68.6207C52.291 51.1715 62.9363 44.5568 71.9792 42.0478H72.0937C72.0937 42.0478 74.6119 41.2495 78.1604 41.2495C79.9918 41.2495 81.9378 41.4776 84.1126 42.1618H84.2271C89.8326 43.7371 96.16 46.9306 100.093 53.3794C101.357 53.1292 102.663 52.998 104 52.998C104.345 52.998 104.687 53.0068 105.027 53.024C100.931 44.8561 93.8389 40.754 88.119 38.6264C88.2334 37.9421 88.3479 37.1438 88.3479 36.4595C88.3479 30.7572 83.7692 26.1953 78.0459 26.1953C72.3226 26.1953 67.7439 30.7572 67.7439 36.4595C67.7439 37.1438 67.8584 37.9421 67.9729 38.6264C59.3879 41.5916 47.7123 49.3468 47.7123 68.5066ZM79.1906 120.74C75.2987 120.74 71.8647 118.459 70.3767 115.038H88.119C86.5164 118.459 83.0824 120.74 79.1906 120.74ZM78.0459 30.6431C81.251 30.6431 83.7692 33.1522 83.7692 36.3455V36.3455C83.7692 36.6876 83.7692 36.9157 83.6548 37.2578C78.9617 36.2314 74.6119 36.8017 72.3226 37.2578C72.3226 37.0868 72.294 36.9442 72.2654 36.8017C72.2367 36.6591 72.2081 36.5165 72.2081 36.3455C72.3226 33.1522 74.8409 30.6431 78.0459 30.6431Z"/>
</mask>
<path fill-rule="evenodd" clip-rule="evenodd" d="M47.7123 68.5066C47.7123 89.035 43.0192 95.3076 40.1575 97.1323C37.7537 98.729 36.3801 101.466 36.3801 104.203C36.3801 108.993 40.272 112.757 44.9651 112.757H64.9967V112.985C66.0269 120.056 72.0937 125.302 79.1906 125.302C86.2875 125.302 92.3542 120.056 93.3844 113.099V112.871H111.127C115.82 112.871 119.712 108.993 119.712 104.317C119.712 101.466 118.338 98.843 115.934 97.2464C114.691 96.4041 113.102 94.7437 111.702 91.461C110.329 92.0348 108.877 92.4598 107.368 92.7157C107.474 92.9765 107.582 93.2322 107.693 93.4828C107.693 93.4828 108.354 95.2056 108.95 96.2204C109.389 96.967 109.671 97.3676 110.211 98.0447C111.254 99.3516 112.157 100.212 113.302 101.01C114.446 101.808 115.133 103.063 115.133 104.317C115.133 106.484 113.302 108.309 111.127 108.309H44.9651C42.7902 108.309 40.9588 106.484 40.9588 104.317C40.9588 102.949 41.6456 101.694 42.7902 101.01C49.0859 96.6762 52.291 85.8417 52.291 68.6207C52.291 51.1715 62.9363 44.5568 71.9792 42.0478H72.0937C72.0937 42.0478 74.6119 41.2495 78.1604 41.2495C79.9918 41.2495 81.9378 41.4776 84.1126 42.1618H84.2271C89.8326 43.7371 96.16 46.9306 100.093 53.3794C101.357 53.1292 102.663 52.998 104 52.998C104.345 52.998 104.687 53.0068 105.027 53.024C100.931 44.8561 93.8389 40.754 88.119 38.6264C88.2334 37.9421 88.3479 37.1438 88.3479 36.4595C88.3479 30.7572 83.7692 26.1953 78.0459 26.1953C72.3226 26.1953 67.7439 30.7572 67.7439 36.4595C67.7439 37.1438 67.8584 37.9421 67.9729 38.6264C59.3879 41.5916 47.7123 49.3468 47.7123 68.5066ZM79.1906 120.74C75.2987 120.74 71.8647 118.459 70.3767 115.038H88.119C86.5164 118.459 83.0824 120.74 79.1906 120.74ZM78.0459 30.6431C81.251 30.6431 83.7692 33.1522 83.7692 36.3455V36.3455C83.7692 36.6876 83.7692 36.9157 83.6548 37.2578C78.9617 36.2314 74.6119 36.8017 72.3226 37.2578C72.3226 37.0868 72.294 36.9442 72.2654 36.8017C72.2367 36.6591 72.2081 36.5165 72.2081 36.3455C72.3226 33.1522 74.8409 30.6431 78.0459 30.6431Z" fill="#A19F9D"/>
<path d="M40.1575 97.1323L39.8886 96.7107L39.8809 96.7159L40.1575 97.1323ZM64.9967 112.757H65.4967V112.257H64.9967V112.757ZM64.9967 112.985H64.4967V113.021L64.502 113.057L64.9967 112.985ZM93.3844 113.099L93.879 113.172L93.8844 113.136V113.099H93.3844ZM93.3844 112.871V112.371H92.8844V112.871H93.3844ZM115.934 97.2464L115.654 97.6604L115.658 97.6629L115.934 97.2464ZM111.702 91.461L112.162 91.2649L111.968 90.8084L111.51 90.9996L111.702 91.461ZM107.368 92.7157L107.284 92.2227L106.671 92.3268L106.905 92.9037L107.368 92.7157ZM107.693 93.4828L108.16 93.3036L108.155 93.2921L108.15 93.2809L107.693 93.4828ZM108.95 96.2204L109.381 95.9672L108.95 96.2204ZM110.211 98.0447L110.602 97.7329L110.211 98.0447ZM42.7902 101.01L43.0468 101.439L43.0606 101.431L43.0738 101.422L42.7902 101.01ZM71.9792 42.0478V41.5478H71.9111L71.8455 41.566L71.9792 42.0478ZM72.0937 42.0478V42.5478H72.171L72.2448 42.5244L72.0937 42.0478ZM84.1126 42.1618L83.9626 42.6388L84.0358 42.6618H84.1126V42.1618ZM84.2271 42.1618L84.3624 41.6805L84.296 41.6618H84.2271V42.1618ZM100.093 53.3794L99.6664 53.6398L99.8481 53.9377L100.19 53.8699L100.093 53.3794ZM105.027 53.024L105.002 53.5233L105.859 53.5667L105.474 52.7998L105.027 53.024ZM88.119 38.6264L87.6258 38.5439L87.5577 38.9511L87.9447 39.095L88.119 38.6264ZM67.9729 38.6264L68.1361 39.099L68.5358 38.961L68.466 38.5439L67.9729 38.6264ZM70.3767 115.038V114.538H69.614L69.9182 115.237L70.3767 115.038ZM88.119 115.038L88.5718 115.25L88.9053 114.538H88.119V115.038ZM83.6548 37.2578L83.548 37.7463L83.9865 37.8422L84.1289 37.4165L83.6548 37.2578ZM72.3226 37.2578H71.8226V37.8673L72.4203 37.7482L72.3226 37.2578ZM72.2081 36.3455L71.7085 36.3276L71.7081 36.3365V36.3455H72.2081ZM40.4263 97.5539C43.521 95.5806 48.2123 89.063 48.2123 68.5066H47.2123C47.2123 89.007 42.5174 95.0346 39.8887 96.7108L40.4263 97.5539ZM36.8801 104.203C36.8801 101.627 38.1753 99.0492 40.4342 97.5488L39.8809 96.7159C37.3322 98.4088 35.8801 101.305 35.8801 104.203H36.8801ZM44.9651 112.257C40.542 112.257 36.8801 108.711 36.8801 104.203H35.8801C35.8801 109.275 40.0019 113.257 44.9651 113.257V112.257ZM64.9967 112.257H44.9651V113.257H64.9967V112.257ZM65.4967 112.985V112.757H64.4967V112.985H65.4967ZM79.1906 124.802C72.343 124.802 66.4861 119.739 65.4915 112.913L64.502 113.057C65.5678 120.373 71.8444 125.802 79.1906 125.802V124.802ZM92.8898 113.026C91.896 119.737 86.0405 124.802 79.1906 124.802V125.802C86.5346 125.802 92.8124 120.375 93.879 113.172L92.8898 113.026ZM92.8844 112.871V113.099H93.8844V112.871H92.8844ZM111.127 112.371H93.3844V113.371H111.127V112.371ZM119.212 104.317C119.212 108.715 115.545 112.371 111.127 112.371V113.371C116.094 113.371 120.212 109.271 120.212 104.317H119.212ZM115.658 97.6629C117.92 99.1653 119.212 101.631 119.212 104.317H120.212C120.212 101.302 118.757 98.5208 116.211 96.8299L115.658 97.6629ZM111.243 91.6571C112.673 95.011 114.317 96.7546 115.654 97.6603L116.215 96.8325C115.065 96.0536 113.532 94.4764 112.162 91.2649L111.243 91.6571ZM111.51 90.9996C110.171 91.559 108.756 91.9732 107.284 92.2227L107.452 93.2086C108.999 92.9463 110.487 92.5107 111.895 91.9224L111.51 90.9996ZM108.15 93.2809C108.042 93.035 107.935 92.7839 107.831 92.5277L106.905 92.9037C107.012 93.169 107.123 93.4294 107.235 93.6848L108.15 93.2809ZM109.381 95.9672C109.1 95.4881 108.796 94.8276 108.557 94.2735C108.439 93.9992 108.339 93.7559 108.269 93.5814C108.234 93.4941 108.207 93.4242 108.188 93.3763C108.178 93.3524 108.171 93.334 108.166 93.3216C108.164 93.3155 108.162 93.3109 108.161 93.3078C108.161 93.3063 108.16 93.3052 108.16 93.3045C108.16 93.3042 108.16 93.3039 108.16 93.3038C108.16 93.3037 108.16 93.3036 108.16 93.3036C108.16 93.3036 108.16 93.3036 108.16 93.3036C108.16 93.3036 108.16 93.3036 107.693 93.4828C107.226 93.6621 107.226 93.6621 107.226 93.6621C107.226 93.6621 107.226 93.6622 107.226 93.6622C107.226 93.6623 107.226 93.6624 107.226 93.6626C107.226 93.6628 107.226 93.6632 107.227 93.6637C107.227 93.6647 107.227 93.666 107.228 93.6678C107.23 93.6714 107.232 93.6765 107.234 93.6832C107.239 93.6967 107.247 93.7162 107.257 93.7414C107.277 93.7917 107.305 93.8643 107.341 93.9544C107.414 94.1346 107.517 94.3854 107.639 94.6687C107.88 95.2297 108.204 95.938 108.519 96.4736L109.381 95.9672ZM110.602 97.7329C110.075 97.072 109.806 96.691 109.381 95.9672L108.519 96.4736C108.971 97.2431 109.267 97.6631 109.82 98.3566L110.602 97.7329ZM113.588 100.6C112.488 99.833 111.619 99.0079 110.602 97.7329L109.82 98.3566C110.888 99.6952 111.826 100.59 113.016 101.42L113.588 100.6ZM115.633 104.317C115.633 102.882 114.852 101.481 113.588 100.6L113.016 101.42C114.041 102.135 114.633 103.243 114.633 104.317H115.633ZM111.127 108.809C113.576 108.809 115.633 106.762 115.633 104.317H114.633C114.633 106.206 113.027 107.809 111.127 107.809V108.809ZM44.9651 108.809H111.127V107.809H44.9651V108.809ZM40.4588 104.317C40.4588 106.762 42.5158 108.809 44.9651 108.809V107.809C43.0647 107.809 41.4588 106.206 41.4588 104.317H40.4588ZM42.5337 100.581C41.2305 101.36 40.4588 102.782 40.4588 104.317H41.4588C41.4588 103.116 42.0607 102.029 43.0468 101.439L42.5337 100.581ZM51.791 68.6207C51.791 77.2055 50.9915 84.167 49.4218 89.507C47.8512 94.8501 45.5244 98.5208 42.5067 100.598L43.0738 101.422C46.3517 99.1653 48.7753 95.2519 50.3812 89.789C51.9879 84.3231 52.791 77.2569 52.791 68.6207H51.791ZM71.8455 41.566C67.2688 42.8359 62.2508 45.1539 58.3749 49.3944C54.4899 53.645 51.791 59.7855 51.791 68.6207H52.791C52.791 60.0067 55.4147 54.1153 59.1131 50.069C62.8206 46.0126 67.6467 43.7688 72.1129 42.5296L71.8455 41.566ZM72.0937 41.5478H71.9792V42.5478H72.0937V41.5478ZM78.1604 40.7495C76.3494 40.7495 74.8016 40.9531 73.7049 41.1571C73.1563 41.2591 72.7196 41.3614 72.4183 41.4388C72.2676 41.4775 72.1506 41.5099 72.0704 41.533C72.0303 41.5446 71.9993 41.5538 71.9779 41.5603C71.9672 41.5635 71.9589 41.5661 71.953 41.5679C71.95 41.5688 71.9477 41.5696 71.9459 41.5701C71.9451 41.5704 71.9443 41.5706 71.9438 41.5708C71.9435 41.5709 71.9433 41.571 71.9431 41.571C71.943 41.5711 71.9428 41.5711 71.9428 41.5711C71.9427 41.5711 71.9426 41.5712 72.0937 42.0478C72.2448 42.5244 72.2447 42.5244 72.2446 42.5245C72.2446 42.5245 72.2445 42.5245 72.2445 42.5245C72.2444 42.5245 72.2444 42.5245 72.2445 42.5245C72.2445 42.5245 72.2447 42.5244 72.2451 42.5243C72.2458 42.5241 72.2471 42.5237 72.249 42.5231C72.2529 42.5219 72.2591 42.52 72.2677 42.5174C72.2849 42.5122 72.3115 42.5042 72.3472 42.494C72.4185 42.4734 72.5261 42.4435 72.6669 42.4074C72.9487 42.335 73.3633 42.2377 73.8878 42.1402C74.9373 41.945 76.4229 41.7495 78.1604 41.7495V40.7495ZM84.2627 41.6849C82.0337 40.9836 80.0365 40.7495 78.1604 40.7495V41.7495C79.9472 41.7495 81.8419 41.9716 83.9626 42.6388L84.2627 41.6849ZM84.2271 41.6618H84.1126V42.6618H84.2271V41.6618ZM100.52 53.1191C96.4965 46.5221 90.0348 43.2745 84.3624 41.6805L84.0918 42.6432C89.6303 44.1996 95.8234 47.3391 99.6664 53.6398L100.52 53.1191ZM100.19 53.8699C101.422 53.626 102.696 53.498 104 53.498V52.498C102.63 52.498 101.291 52.6325 99.9962 52.8889L100.19 53.8699ZM104 53.498C104.336 53.498 104.67 53.5065 105.002 53.5233L105.053 52.5246C104.704 52.507 104.353 52.498 104 52.498V53.498ZM87.9447 39.095C93.6006 41.1989 100.562 45.2363 104.58 53.2481L105.474 52.7998C101.299 44.4758 94.0772 40.3092 88.2933 38.1578L87.9447 39.095ZM87.8479 36.4595C87.8479 37.0987 87.74 37.8613 87.6258 38.5439L88.6121 38.7089C88.7269 38.0229 88.8479 37.1889 88.8479 36.4595H87.8479ZM78.0459 26.6953C83.4948 26.6953 87.8479 31.0351 87.8479 36.4595H88.8479C88.8479 30.4793 84.0437 25.6953 78.0459 25.6953V26.6953ZM68.2439 36.4595C68.2439 31.0351 72.597 26.6953 78.0459 26.6953V25.6953C72.0482 25.6953 67.2439 30.4793 67.2439 36.4595H68.2439ZM68.466 38.5439C68.3518 37.8613 68.2439 37.0987 68.2439 36.4595H67.2439C67.2439 37.1889 67.365 38.0229 67.4797 38.7089L68.466 38.5439ZM48.2123 68.5066C48.2123 59.0371 51.0942 52.4251 55.0045 47.817C58.922 43.2004 63.9005 40.562 68.1361 39.099L67.8096 38.1538C63.4603 39.656 58.3085 42.3778 54.242 47.17C50.1682 51.9708 47.2123 58.8164 47.2123 68.5066H48.2123ZM69.9182 115.237C71.4864 118.843 75.1018 121.24 79.1906 121.24V120.24C75.4957 120.24 72.243 118.075 70.8352 114.838L69.9182 115.237ZM88.119 114.538H70.3767V115.538H88.119V114.538ZM79.1906 121.24C83.282 121.24 86.8893 118.842 88.5718 115.25L87.6662 114.826C86.1436 118.076 82.8829 120.24 79.1906 120.24V121.24ZM84.2692 36.3455C84.2692 32.8743 81.5254 30.1431 78.0459 30.1431V31.1431C80.9766 31.1431 83.2692 33.43 83.2692 36.3455H84.2692ZM84.2692 36.3455V36.3455H83.2692V36.3455H84.2692ZM84.1289 37.4165C84.2712 36.9913 84.2692 36.6923 84.2692 36.3455H83.2692C83.2692 36.683 83.2673 36.8401 83.1806 37.0992L84.1289 37.4165ZM72.4203 37.7482C74.6759 37.2987 78.9492 36.7405 83.548 37.7463L83.7616 36.7694C78.9741 35.7223 74.548 36.3046 72.2249 36.7675L72.4203 37.7482ZM71.7751 36.9001C71.8042 37.0449 71.8226 37.1425 71.8226 37.2578H72.8226C72.8226 37.031 72.7837 36.8435 72.7556 36.7032L71.7751 36.9001ZM71.7081 36.3455C71.7081 36.5723 71.747 36.7598 71.7751 36.9001L72.7556 36.7032C72.7265 36.5584 72.7081 36.4608 72.7081 36.3455H71.7081ZM78.0459 30.1431C74.5632 30.1431 71.8323 32.8738 71.7085 36.3276L72.7078 36.3634C72.8129 33.4305 75.1185 31.1431 78.0459 31.1431V30.1431Z" fill="white" mask="url(#path-3-inside-1)"/>
<path d="M125.916 87.3544C125.69 87.1274 125.381 86.9997 125.06 86.9997C125.048 87.002 124.582 86.976 124.204 87.3544L123.348 88.2101L120.566 85.4283C126.706 76.8216 125.772 64.9493 118.211 57.3885C109.693 48.8712 95.9067 48.8698 87.3885 57.3885C78.8712 65.9052 78.8698 79.6924 87.3885 88.2106C94.9308 95.7534 106.798 96.7212 115.428 90.5658L118.21 93.3481L117.354 94.2038C116.882 94.6764 116.881 95.4436 117.354 95.9166L132.663 111.224C135.029 113.591 138.858 113.593 141.224 111.225C143.591 108.859 143.592 105.03 141.224 102.664L125.916 87.3544ZM119.922 91.6358L117.33 89.0431C117.631 88.773 117.926 88.4958 118.211 88.2106C118.496 87.9258 118.773 87.6312 119.043 87.3303L121.636 89.923L119.922 91.6358ZM89.1008 86.4983C81.5296 78.9275 81.5287 66.6725 89.1008 59.1008C96.6715 51.5296 108.927 51.5287 116.498 59.1008C124.052 66.6545 124.091 78.9067 116.498 86.4983C108.82 94.1773 96.5684 93.9663 89.1008 86.4983ZM125.06 89.923L128.484 93.3476L123.348 98.4842L119.923 95.06L125.06 89.923ZM139.512 109.512C138.093 110.933 135.796 110.933 134.376 109.512L125.06 100.197L130.197 95.06L139.512 104.377C140.932 105.795 140.934 108.092 139.512 109.512Z" fill="#A19F9D"/>
<path d="M114.786 60.8131C108.164 54.1912 97.4364 54.1874 90.8117 60.8121C84.2036 67.4217 84.2036 78.1763 90.8117 84.7863C97.4373 91.4115 108.159 91.4119 114.785 84.7863C121.394 78.1763 121.395 67.4221 114.786 60.8131ZM113.073 83.0735C107.394 88.7521 98.2041 88.7536 92.524 83.074C86.8601 77.4081 86.8601 68.1898 92.524 62.524C98.1998 56.8487 107.396 56.8472 113.074 62.5254C118.738 68.1903 118.738 77.4081 113.073 83.0735Z" fill="#A19F9D"/>
<path d="M125.916 87.3544C125.69 87.1274 125.381 86.9997 125.06 86.9997C125.048 87.002 124.582 86.976 124.204 87.3544L123.348 88.2101L120.566 85.4283C126.706 76.8216 125.772 64.9493 118.211 57.3885C109.693 48.8712 95.9067 48.8698 87.3885 57.3885C78.8712 65.9052 78.8698 79.6924 87.3885 88.2106C94.9308 95.7534 106.798 96.7212 115.428 90.5658L118.21 93.3481L117.354 94.2038C116.882 94.6764 116.881 95.4436 117.354 95.9166L132.663 111.224C135.029 113.591 138.858 113.593 141.224 111.225C143.591 108.859 143.592 105.03 141.224 102.664L125.916 87.3544ZM119.922 91.6358L117.33 89.0431C117.631 88.773 117.926 88.4958 118.211 88.2106C118.496 87.9258 118.773 87.6312 119.043 87.3303L121.636 89.923L119.922 91.6358ZM89.1008 86.4983C81.5296 78.9275 81.5287 66.6725 89.1008 59.1008C96.6715 51.5296 108.927 51.5287 116.498 59.1008C124.052 66.6545 124.091 78.9067 116.498 86.4983C108.82 94.1773 96.5684 93.9663 89.1008 86.4983ZM125.06 89.923L128.484 93.3476L123.348 98.4842L119.923 95.06L125.06 89.923ZM139.512 109.512C138.093 110.933 135.796 110.933 134.376 109.512L125.06 100.197L130.197 95.06L139.512 104.377C140.932 105.795 140.934 108.092 139.512 109.512Z" stroke="#A19F9D" stroke-width="0.7"/>
<path d="M114.786 60.8131C108.164 54.1912 97.4364 54.1874 90.8117 60.8121C84.2036 67.4217 84.2036 78.1763 90.8117 84.7863C97.4373 91.4115 108.159 91.4119 114.785 84.7863C121.394 78.1763 121.395 67.4221 114.786 60.8131ZM113.073 83.0735C107.394 88.7521 98.2041 88.7536 92.524 83.074C86.8601 77.4081 86.8601 68.1898 92.524 62.524C98.1998 56.8487 107.396 56.8472 113.074 62.5254C118.738 68.1903 118.738 77.4081 113.073 83.0735Z" stroke="#A19F9D" stroke-width="0.7"/>
<circle cx="99.5" cy="69.5" r="2.5" fill="#A19F9D"/>
<circle cx="108.5" cy="69.5" r="2.5" fill="#A19F9D"/>
<path d="M98.5 79.0013C98.5 79.0013 103.5 75.5004 109.5 79.0013" stroke="#A19F9D" stroke-width="2" stroke-linecap="round" stroke-linejoin="round"/>
</svg>
