<svg width="19" height="22" viewBox="0 0 19 22" fill="none" xmlns="http://www.w3.org/2000/svg">
<path d="M17.9285 14.3815L16.5158 12.6214C15.9369 11.9267 15.6358 11.0466 15.6358 10.1435V8.24445C15.6358 5.37279 13.76 2.94114 11.1894 2.10743V1.38951C11.1894 0.625281 10.5641 0 9.79986 0H8.52614C7.76191 0 7.13663 0.625281 7.13663 1.38951V2.10743C4.54287 2.9643 2.66702 5.39595 2.66702 8.26761V10.1666C2.66702 11.0698 2.36596 11.9498 1.787 12.6446L0.351166 14.4046C-0.482542 15.4236 0.258532 17.0215 1.62489 17.0215H16.678C18.0443 17.0215 18.7854 15.4236 17.9285 14.3815Z" fill="#0F5EA9"/>
<path d="M9.15293 21.9997C10.9593 21.9997 12.4183 20.5407 12.4183 18.7344H5.88757C5.88757 20.5407 7.34656 21.9997 9.15293 21.9997Z" fill="#0F5EA9"/>
</svg>
