<svg width="167" height="155" viewBox="0 0 167 155" fill="none" xmlns="http://www.w3.org/2000/svg">
<circle opacity="0.2" cx="63.5" cy="66.5" r="63.5" fill="#D3D3D3" fill-opacity="0.8"/>
<circle opacity="0.2" cx="95.424" cy="83.7196" r="71.2801" fill="#E4E4E4" fill-opacity="0.8"/>
<g clip-path="url(#clip0)">
<path d="M83.1906 130.054C76.2243 130.054 70.2667 124.908 69.2467 117.969V117.759V117.509H68.9967H48.9651C44.407 117.509 40.6301 113.854 40.6301 109.205C40.6301 106.549 41.9638 103.893 44.2939 102.344C47.2722 100.443 51.9623 94.0464 51.9623 73.5086C51.9623 63.9838 54.8627 57.3135 58.8138 52.6572C62.7686 47.9967 67.7904 45.3374 72.0545 43.8647L72.2543 43.7956L72.2194 43.5871C72.1051 42.9037 71.9939 42.1232 71.9939 41.4615C71.9939 35.8981 76.4598 31.4473 82.0459 31.4473C87.632 31.4473 92.0979 35.8981 92.0979 41.4615C92.0979 42.1232 91.9867 42.9037 91.8724 43.5871L91.8383 43.7907L92.0318 43.8627C96.2999 45.4502 101.323 48.1388 105.278 52.7998C109.229 57.4562 112.13 64.0981 112.13 73.6226C112.13 94.0555 116.824 100.443 119.794 102.455L119.796 102.457C122.129 104.006 123.462 106.55 123.462 109.319C123.462 113.856 119.683 117.623 115.127 117.623H97.3844H97.1344V117.873V118.082C96.1146 124.907 90.1578 130.054 83.1906 130.054ZM74.3767 119.79H73.9953L74.1474 120.139C75.6756 123.653 79.2003 125.992 83.1906 125.992C87.1822 125.992 90.7029 123.652 92.3454 120.146L92.5121 119.79H92.119H74.3767ZM87.6014 42.504L87.8206 42.552L87.8919 42.3391C88.0193 41.9583 88.0193 41.6959 88.0192 41.3552V41.3474C88.0192 38.0152 85.3882 35.3951 82.0459 35.3951C78.702 35.3951 76.0774 38.0149 75.9583 41.3385L75.9581 41.3385V41.3474C75.9581 41.5434 75.9909 41.7065 76.019 41.8465L76.0203 41.8528C76.0491 41.9965 76.0726 42.1166 76.0726 42.2598V42.5645L76.3715 42.505C78.6439 42.0522 82.9554 41.4879 87.6014 42.504ZM75.9792 46.7998H75.9452L75.9124 46.8089C71.3633 48.071 66.3932 50.3705 62.5595 54.565C58.7211 58.7645 56.041 64.8428 56.041 73.6226C56.041 82.2203 55.2406 89.208 53.6616 94.5795C52.0833 99.9487 49.7345 103.679 46.655 105.801C45.4353 106.534 44.7088 107.87 44.7088 109.319C44.7088 111.625 46.653 113.561 48.9651 113.561H115.127C117.439 113.561 119.383 111.625 119.383 109.319C119.383 107.974 118.649 106.647 117.445 105.807C116.323 105.024 115.436 104.182 114.406 102.891C113.873 102.222 113.597 101.831 113.166 101.096C112.876 100.603 112.567 99.93 112.328 99.3743C112.209 99.0977 112.108 98.8525 112.037 98.6766C112.022 98.638 112.008 98.6027 111.995 98.5712C111.979 98.5309 111.966 98.4968 111.955 98.4695L111.933 98.414L111.928 98.3998L111.927 98.3963L111.926 98.3954L111.926 98.3952L111.926 98.3951L111.921 98.3838C109.424 92.7287 108.165 84.4445 108.165 73.6226C108.165 64.8986 105.456 58.8488 101.603 54.6641C97.7556 50.4846 92.7862 48.1853 88.2947 46.9231L88.2616 46.9138H88.2271H88.1509C85.9638 46.23 84.0039 46.0014 82.1604 46.0014C80.3678 46.0014 78.8355 46.203 77.7506 46.4048C77.208 46.5057 76.7768 46.6068 76.4804 46.6829C76.3322 46.7209 76.2176 46.7527 76.1396 46.7752C76.1042 46.7854 76.0763 46.7937 76.0562 46.7998H75.9792Z" fill="#A19F9D" stroke="white" stroke-width="0.5"/>
</g>
<path d="M149.53 11.2104L139.736 24.7374H149.433V27H135.841V26.1758L145.635 12.7134H136.762V10.4508H149.53V11.2104Z" fill="#A19F9D"/>
<path d="M127.852 31.1486L119.69 42.4212H127.771V44.3066H116.444V43.6198L124.606 32.4011H117.212V30.5156H127.852V31.1486Z" fill="#A19F9D"/>
<defs>
<clipPath id="clip0">
<rect width="85.4876" height="100.799" fill="white" transform="translate(39 30)"/>
</clipPath>
</defs>
</svg>
