<svg width="24" height="24" viewBox="0 0 24 24" fill="#0F5EA9" xmlns="http://www.w3.org/2000/svg">
<path d="M15.8772 4.82805C15.8772 4.91133 15.9099 4.9912 15.968 5.05013C16.026 5.10906 16.1048 5.14224 16.1871 5.14237H20.7406L16.0185 0.359446C15.9744 0.316755 15.9272 0.277554 15.8772 0.242188V4.82805Z"/>
<path d="M7.19648 21.8568C6.36652 21.8557 5.57086 21.5212 4.98406 20.9266C4.39725 20.3321 4.06721 19.526 4.06634 18.6853V2.99609C3.50048 3.05648 2.97659 3.32646 2.59521 3.7542C2.21384 4.18194 2.00187 4.7373 2 5.31367V21.6567C2.00081 22.2778 2.2447 22.8732 2.67821 23.3124C3.11171 23.7516 3.69946 23.9987 4.31257 23.9997H16.0464C16.6239 23.9978 17.1798 23.7766 17.6043 23.3799C18.0288 22.9832 18.2911 22.4398 18.3395 21.8568H7.19648Z" />
<path d="M13.3386 11.7668C14.0396 11.7668 14.6078 11.1911 14.6078 10.481C14.6078 9.77095 14.0396 9.19531 13.3386 9.19531C12.6376 9.19531 12.0693 9.77095 12.0693 10.481C12.0693 11.1911 12.6376 11.7668 13.3386 11.7668Z" />
<path d="M16.1871 6.00009C15.8806 5.99959 15.5867 5.87599 15.37 5.65639C15.1533 5.4368 15.0314 5.13911 15.0311 4.82861V0H7.24632C6.6331 0.000703201 6.04519 0.247769 5.61156 0.687C5.17792 1.12623 4.93398 1.72176 4.93324 2.34295V2.97159H4.9126V18.686C4.91316 19.2995 5.15395 19.8877 5.58213 20.3216C6.01032 20.7555 6.59093 20.9996 7.19657 21.0003H19.2577C19.8173 20.9326 20.3332 20.66 20.708 20.2337C21.0829 19.8073 21.2908 19.2569 21.2927 18.686V6.00009H16.1871ZM17.1465 16.9493C17.1465 17.063 17.1019 17.172 17.0225 17.2524C16.9432 17.3327 16.8356 17.3779 16.7234 17.3779H9.95406C9.84185 17.3779 9.73423 17.3327 9.65489 17.2524C9.57555 17.172 9.53097 17.063 9.53097 16.9493V16.0921C9.53354 15.2417 9.81381 14.416 10.3281 13.7438C10.8424 13.0716 11.5617 12.5906 12.3741 12.3759C11.9516 12.1566 11.6142 11.7997 11.4161 11.3626C11.2181 10.9255 11.171 10.4336 11.2823 9.96614C11.3937 9.49864 11.657 9.08266 12.03 8.78514C12.403 8.48762 12.864 8.32585 13.3387 8.32585C13.8135 8.32585 14.2744 8.48762 14.6474 8.78514C15.0204 9.08266 15.2838 9.49864 15.3951 9.96614C15.5065 10.4336 15.4593 10.9255 15.2613 11.3626C15.0633 11.7997 14.7259 12.1566 14.3033 12.3759C15.1157 12.5906 15.8351 13.0716 16.3494 13.7438C16.8636 14.416 17.1439 15.2417 17.1465 16.0921V16.9493Z" />
<path d="M13.3385 13.0918C12.5534 13.0927 11.8006 13.4091 11.2454 13.9715C10.6902 14.534 10.3779 15.2965 10.377 16.0918V16.5204H16.3001V16.0918C16.2992 15.2965 15.9869 14.534 15.4317 13.9715C14.8765 13.4091 14.1237 13.0927 13.3385 13.0918Z" />
</svg>
