<svg width="20" height="20" viewBox="0 0 20 20" fill="none" xmlns="http://www.w3.org/2000/svg">
<path fill-rule="evenodd" clip-rule="evenodd" d="M5.47274 11.25C5.11971 11.25 4.83352 11.5298 4.83352 11.875V14.375C4.83352 14.7202 5.11971 15 5.47274 15C5.82578 15 6.11196 14.7202 6.11196 14.375V14.167H6.53794C7.36177 14.167 8.02962 13.514 8.02962 12.7085C8.02962 11.903 7.36177 11.25 6.53794 11.25H5.47274ZM6.53794 12.917H6.11196V12.5H6.53794C6.65571 12.5 6.75118 12.5933 6.75118 12.7085C6.75118 12.8236 6.65571 12.917 6.53794 12.917Z" fill="#A4262C"/>
<path d="M12.5051 11.8742C12.5055 11.5293 12.7916 11.25 13.1443 11.25H14.4206C14.7736 11.25 15.0598 11.5298 15.0598 11.875C15.0598 12.2202 14.7736 12.5 14.4206 12.5H13.7827L13.7822 12.9181H14.4206C14.7736 12.9181 15.0598 13.1979 15.0598 13.5431C15.0598 13.8883 14.7736 14.1681 14.4206 14.1681H13.783L13.7835 14.3734C13.7844 14.7186 13.4989 14.9991 13.1459 15C12.7929 15.0009 12.506 14.7218 12.5051 14.3766L12.5029 13.5423L12.5051 11.8742Z" fill="#A4262C"/>
<path fill-rule="evenodd" clip-rule="evenodd" d="M9.30627 11.25C8.95324 11.25 8.66705 11.5298 8.66705 11.875V14.375C8.66705 14.7202 8.95324 15 9.30627 15H9.94734C11.0064 15 11.865 14.1605 11.865 13.125C11.865 12.0895 11.0064 11.25 9.94734 11.25H9.30627ZM9.94549 13.75V12.5H9.94734C10.3004 12.5 10.5866 12.7798 10.5866 13.125C10.5866 13.4702 10.3004 13.75 9.94734 13.75H9.94549Z" fill="#A4262C"/>
<path fill-rule="evenodd" clip-rule="evenodd" d="M2.27664 2.5C2.27664 1.11929 3.4214 0 4.83352 0H10.6962C11.2048 0 11.6925 0.197544 12.0522 0.549175L17.0562 5.44194C17.4159 5.79357 17.6179 6.27049 17.6179 6.76777V8.85206C18.3619 9.10991 18.8947 9.80402 18.8947 10.6198V15.6238C18.8947 16.4396 18.3619 17.1337 17.6179 17.3915V17.5C17.6179 18.8807 16.4732 20 15.061 20H4.83352C3.4214 20 2.27664 18.8807 2.27664 17.5V17.3915C1.53277 17.1336 1 16.4395 1 15.6238V10.6198C1 9.80408 1.53277 9.11002 2.27664 8.85212V2.5ZM16.3395 7.5V8.74481H3.55508V2.5C3.55508 1.80964 4.12746 1.25 4.83352 1.25H9.94728V5.625C9.94728 6.66053 10.8058 7.5 11.8649 7.5H16.3395ZM3.55508 17.4988H16.3395C16.3395 18.1892 15.7671 18.75 15.061 18.75H4.83352C4.12746 18.75 3.55508 18.1892 3.55508 17.4988ZM11.2257 1.50888L16.0747 6.25H11.8649C11.5119 6.25 11.2257 5.97018 11.2257 5.625V1.50888ZM2.91766 9.99481C2.56463 9.99481 2.27844 10.2746 2.27844 10.6198V15.6238C2.27844 15.969 2.56463 16.2488 2.91766 16.2488H16.9771C17.3301 16.2488 17.6163 15.969 17.6163 15.6238V10.6198C17.6163 10.2746 17.3301 9.99481 16.9771 9.99481H2.91766Z" fill="#A4262C"/>
</svg>
