<svg width="21" height="21" viewBox="0 0 21 21" fill="#A19F9D" xmlns="http://www.w3.org/2000/svg">
<path d="M19.0312 1.96948C20.4286 3.36695 20.4286 5.63268 19.0312 7.03014L7.06283 18.9985C6.78596 19.2753 6.44162 19.4752 6.06386 19.5782L0.948166 20.9734C0.388292 21.1261 -0.125438 20.6123 0.0272554 20.0525L1.42244 14.9368C1.52547 14.559 1.7253 14.2147 2.00217 13.9378L13.9705 1.96948C15.368 0.572021 17.6337 0.572021 19.0312 1.96948ZM13.001 5.06039L3.06283 14.9985C2.97054 15.0908 2.90393 15.2055 2.86959 15.3315L1.81974 19.1809L5.66918 18.1311C5.7951 18.0967 5.90988 18.0301 6.00217 17.9378L15.94 7.99939L13.001 5.06039ZM15.0312 3.03014L14.061 3.99939L17 6.93939L17.9705 5.96948C18.7822 5.15781 18.7822 3.84182 17.9705 3.03014C17.1588 2.21847 15.8428 2.21847 15.0312 3.03014Z"/>
</svg>
