<svg width="20" height="11" viewBox="0 0 20 11" fill="none" xmlns="http://www.w3.org/2000/svg">
<path d="M19.0022 4.82396C18.9322 4.75559 18.8623 4.66443 18.8157 4.59606C17.3002 2.97798 15.5748 1.74733 13.7096 0.904104C11.0982 -0.258177 8.44024 -0.303757 5.85221 0.790155C3.87038 1.61059 2.07509 2.88682 0.41968 4.64164C-0.139893 5.21138 -0.139893 5.78113 0.41968 6.37366C1.70204 7.76384 3.21755 8.90334 4.9429 9.79214C5.57242 10.1112 6.20194 10.3847 6.83146 10.567C7.76409 10.8405 8.72002 11 9.69928 11C9.93243 11 10.1656 11 10.3987 10.9772C10.8184 10.9316 11.2847 10.8861 11.7277 10.7721C14.3857 10.1112 16.7872 8.62986 19.0255 6.21414C19.3286 5.80392 19.3286 5.25696 19.0022 4.82396ZM18.326 5.64439C16.2043 7.92337 13.966 9.33634 11.4713 9.95167C11.0749 10.0428 10.6319 10.0884 10.2589 10.134C9.18634 10.2024 8.0905 10.0884 7.0413 9.76935C6.45841 9.58703 5.87552 9.35913 5.31595 9.04007C3.68386 8.19685 2.23829 7.10294 1.02589 5.78113C0.769414 5.50765 0.769414 5.43928 1.02589 5.18859C2.61134 3.52494 4.29006 2.31707 6.15531 1.54222C7.29777 1.06363 8.46355 0.812945 9.60602 0.812945C10.8417 0.812945 12.0775 1.08642 13.3132 1.65617C15.0852 2.45381 16.7173 3.63888 18.1628 5.1658C18.2095 5.21138 18.2561 5.27975 18.3027 5.32533C18.396 5.43928 18.4193 5.55323 18.326 5.64439ZM9.55938 2.36265C7.76409 2.36265 6.2952 3.79841 6.2952 5.55323C6.2952 7.30805 7.76409 8.74381 9.55938 8.74381C11.3547 8.74381 12.8236 7.30805 12.8236 5.55323C12.8469 3.79841 11.378 2.36265 9.55938 2.36265ZM9.55938 7.92337C8.2304 7.92337 7.15788 6.87504 7.15788 5.57602C7.15788 4.277 8.2304 3.22867 9.55938 3.22867C10.8884 3.22867 11.9609 4.277 11.9609 5.57602C11.9842 6.85225 10.8884 7.92337 9.55938 7.92337Z" fill="#0078D4"/>
</svg>