<svg width="24" height="24" viewBox="0 0 24 24" fill="#0F5EA9" xmlns="http://www.w3.org/2000/svg">
<path d="M6.7467 4.00003H10.2109C10.6251 4.00003 10.9609 4.33582 10.9609 4.75003C10.9609 5.12972 10.6788 5.44352 10.3127 5.49318L10.2109 5.50003H6.7467C5.55584 5.50003 4.58106 6.42519 4.50189 7.59598L4.4967 7.75003V17.25C4.4967 18.4409 5.42187 19.4157 6.59266 19.4948L6.7467 19.5H16.2474C17.4383 19.5 18.4131 18.5749 18.4922 17.4041L18.4974 17.25V16.7522C18.4974 16.338 18.8332 16.0022 19.2474 16.0022C19.6271 16.0022 19.9409 16.2844 19.9906 16.6505L19.9974 16.7522V17.25C19.9974 19.2543 18.4251 20.8913 16.4466 20.9948L16.2474 21H6.7467C4.74244 21 3.10543 19.4277 3.0019 17.4492L2.9967 17.25V7.75003C2.9967 5.74577 4.56907 4.10876 6.54755 4.00523L6.7467 4.00003H10.2109H6.7467ZM14.5007 6.54434V3.75003C14.5007 3.12606 15.2075 2.78998 15.6877 3.13983L15.7699 3.20877L21.7645 8.95877C22.0442 9.22712 22.0697 9.65814 21.8408 9.9561L21.7646 10.0412L15.77 15.7931C15.3197 16.2251 14.5878 15.9477 14.5078 15.3589L14.5007 15.2519V12.45L14.1799 12.4438C11.5224 12.4359 9.25084 13.5269 7.31507 15.745C6.81946 16.3129 5.8898 15.8769 6.00952 15.1328C6.83651 9.99236 9.60859 7.08831 14.1988 6.57446L14.5007 6.54434V3.75003V6.54434Z"/>
</svg>