<svg width="20" height="21" viewBox="0 0 20 21" fill="none" xmlns="http://www.w3.org/2000/svg">
<path d="M9.99805 0.75C11.7311 0.75 13.1473 2.10645 13.2429 3.81558L13.248 4H18.498C18.9123 4 19.248 4.33579 19.248 4.75C19.248 5.1297 18.9659 5.44349 18.5998 5.49315L18.498 5.5H17.702L16.4219 18.5192C16.2892 19.8683 15.1965 20.91 13.8607 20.9945L13.6851 21H6.31098C4.95539 21 3.8117 20.0145 3.59688 18.6934L3.57418 18.5192L2.29305 5.5H1.49805C1.11835 5.5 0.804556 5.21785 0.754894 4.85177L0.748047 4.75C0.748047 4.3703 1.0302 4.05651 1.39628 4.00685L1.49805 4H6.74805C6.74805 2.20507 8.20312 0.75 9.99805 0.75ZM16.195 5.5H3.80005L5.06698 18.3724C5.12572 18.9696 5.59838 19.4343 6.18389 19.4936L6.31098 19.5H13.6851C14.2852 19.5 14.794 19.0751 14.9103 18.4982L14.9291 18.3724L16.195 5.5ZM11.748 8.25C12.1277 8.25 12.4415 8.53215 12.4912 8.89823L12.498 9V16C12.498 16.4142 12.1623 16.75 11.748 16.75C11.3684 16.75 11.0546 16.4678 11.0049 16.1018L10.998 16V9C10.998 8.58579 11.3338 8.25 11.748 8.25ZM8.24805 8.25C8.62774 8.25 8.94154 8.53215 8.9912 8.89823L8.99805 9V16C8.99805 16.4142 8.66226 16.75 8.24805 16.75C7.86835 16.75 7.55456 16.4678 7.50489 16.1018L7.49805 16V9C7.49805 8.58579 7.83383 8.25 8.24805 8.25ZM9.99805 2.25C9.07987 2.25 8.32685 2.95711 8.25385 3.85647L8.24805 4H11.748C11.748 3.0335 10.9645 2.25 9.99805 2.25Z" fill="#A19F9D"/>
</svg>
