<svg width="16" height="17" viewBox="0 0 16 17" fill="none" xmlns="http://www.w3.org/2000/svg">
<path d="M1.50004 0.929688L1.58992 0.937743C1.79401 0.974787 1.95494 1.13572 1.99199 1.33981L2.00004 1.42969L1.99938 3.64122C3.16432 2.31807 4.74848 1.39947 6.54216 1.06703C10.8865 0.261865 15.0609 3.13089 15.8661 7.47519C16.6712 11.8195 13.8022 15.9939 9.45792 16.7991C5.11362 17.6043 0.939086 14.7353 0.133921 10.391C0.0472055 9.92309 -0.0236295 9.07146 0.00418329 8.41187C0.015817 8.13598 0.248907 7.92175 0.524804 7.93338C0.800701 7.94502 1.01493 8.17811 1.0033 8.454C0.978844 9.03387 1.0435 9.81122 1.11718 10.2087C1.82169 14.01 5.47442 16.5204 9.27569 15.8159C13.0769 15.1113 15.5873 11.4587 14.8828 7.65742C14.1783 3.85617 10.5256 1.34577 6.72439 2.05029C4.88523 2.39115 3.29914 3.43506 2.25844 4.92857L5.49998 4.92969L5.58986 4.93774C5.8231 4.98008 5.99998 5.18423 5.99998 5.42969C5.99998 5.67515 5.8231 5.8793 5.58986 5.92163L5.49998 5.92969H1.50004L1.41017 5.92163C1.20607 5.88459 1.04514 5.72366 1.0081 5.51956L1.00004 5.42969V1.42969L1.0081 1.33981C1.04514 1.13572 1.20607 0.974787 1.41017 0.937743L1.50004 0.929688ZM7.50004 4.92969L7.58992 4.93774C7.79401 4.97479 7.95494 5.13572 7.99199 5.33981L8.00004 5.42969V9.43307H10L10.0899 9.44113C10.3232 9.48346 10.5 9.68761 10.5 9.93307C10.5 10.1785 10.3232 10.3827 10.0899 10.425L10 10.4331H7.50004L7.41017 10.425C7.20607 10.388 7.04514 10.227 7.0081 10.0229L7.00004 9.93307V5.42969L7.0081 5.33981C7.04514 5.13572 7.20607 4.97479 7.41017 4.93774L7.50004 4.92969Z" fill="#0078D4"/>
</svg>
