<svg width="16" height="16" viewBox="0 0 16 16" fill="none" xmlns="http://www.w3.org/2000/svg">
<path d="M9.86667 3.8H1.5C1.22386 3.8 1 4.02386 1 4.3V11.7C1 11.9761 1.22386 12.2 1.5 12.2H3.8H9.36667C9.64281 12.2 9.86667 11.9761 9.86667 11.7V11.2667V7.53333V3.8Z" fill="#7719AA"/>
<path d="M3.8 3.33333V1.5C3.8 1.22386 4.02386 1 4.3 1H14.5C14.7761 1 15 1.22386 15 1.5V3.8M15 3.8H9.86667M15 3.8V7.53333M9.86667 3.8H1.5C1.22386 3.8 1 4.02386 1 4.3V11.7C1 11.9761 1.22386 12.2 1.5 12.2H3.8M9.86667 3.8V7.53333M9.86667 7.53333H15M9.86667 7.53333V11.2667M15 7.53333V11.2667M15 11.2667H9.86667M15 11.2667V14.5C15 14.7761 14.7761 15 14.5 15H4.3C4.02386 15 3.8 14.7761 3.8 14.5V12.2M9.86667 11.2667V11.7C9.86667 11.9761 9.64281 12.2 9.36667 12.2H3.8" stroke="#7719AA"/>
<g style="mix-blend-mode:screen">
<path d="M5.63477 5.79883L4.1875 10H3.11523L1.68555 5.79883H2.70508L3.58105 8.72266C3.62793 8.88086 3.65625 9.02051 3.66602 9.1416H3.68359C3.69727 9.01074 3.72754 8.86719 3.77441 8.71094L4.64453 5.79883H5.63477ZM7.08496 8.55273V10H6.13867V5.79883H7.62109C8.67969 5.79883 9.20898 6.24512 9.20898 7.1377C9.20898 7.55957 9.05664 7.90137 8.75195 8.16309C8.44922 8.42285 8.04395 8.55273 7.53613 8.55273H7.08496ZM7.08496 6.52539V7.83496H7.45703C7.96094 7.83496 8.21289 7.61426 8.21289 7.17285C8.21289 6.74121 7.96094 6.52539 7.45703 6.52539H7.08496Z" fill="white"/>
</g>
</svg>