<svg width="18" height="18" viewBox="0 0 18 18" fill="none" xmlns="http://www.w3.org/2000/svg">
<path d="M8.99975 12.3359C8.49653 12.3359 8.07471 12.7578 8.07471 13.261C8.07471 13.7642 8.49653 14.186 8.99975 14.186C9.48447 14.186 9.92479 13.7642 9.90259 13.2832C9.92479 12.7541 9.50667 12.3359 8.99975 12.3359Z" fill="#F7A121"/>
<path d="M17.562 15.6144C18.1429 14.6116 18.1466 13.4165 17.5694 12.4174L11.7749 2.38253C11.2014 1.37238 10.1653 0.772949 9.00348 0.772949C7.84162 0.772949 6.80557 1.37608 6.23204 2.37883L0.430163 12.4248C-0.147064 13.435 -0.143364 14.6375 0.441264 15.6403C1.01849 16.6319 2.05084 17.2276 3.2053 17.2276H14.7795C15.9376 17.2276 16.9774 16.6245 17.562 15.6144ZM16.3039 14.8891C15.982 15.4442 15.4122 15.7735 14.7758 15.7735H3.2016C2.57257 15.7735 2.00644 15.4516 1.69192 14.9076C1.37371 14.3563 1.37001 13.6977 1.68822 13.1426L7.4901 3.10036C7.80462 2.54903 8.36705 2.22342 9.00348 2.22342C9.63621 2.22342 10.2023 2.55274 10.5168 3.10406L16.315 13.1463C16.6258 13.6866 16.6221 14.3378 16.3039 14.8891Z" fill="#F7A121"/>
<path d="M8.77029 5.84203C8.32996 5.96784 8.05615 6.36746 8.05615 6.85218C8.07835 7.1445 8.09685 7.44051 8.11906 7.73282C8.18196 8.84658 8.24486 9.93813 8.30776 11.0519C8.32996 11.4293 8.62228 11.7031 8.9997 11.7031C9.37711 11.7031 9.67313 11.4108 9.69163 11.0297C9.69163 10.8003 9.69163 10.5894 9.71383 10.3563C9.75453 9.64212 9.79893 8.92798 9.83964 8.21385C9.86184 7.75133 9.90254 7.2888 9.92474 6.82628C9.92474 6.65977 9.90254 6.51177 9.83964 6.36376C9.65093 5.94934 9.21061 5.73843 8.77029 5.84203Z" fill="#F7A121"/>
</svg>