<svg width="20" height="20" viewBox="0 0 20 20" fill="none" xmlns="http://www.w3.org/2000/svg">
<path d="M10.0002 2.66724C9.67054 2.66724 9.3483 2.76499 9.07422 2.94812C8.80014 3.13126 8.58651 3.39156 8.46037 3.69611C8.33422 4.00065 8.30121 4.33577 8.36552 4.65907C8.42983 4.98238 8.58857 5.27935 8.82166 5.51244C9.05475 5.74553 9.35172 5.90427 9.67503 5.96858C9.99833 6.03288 10.3334 5.99988 10.638 5.87373C10.9425 5.74758 11.2028 5.53396 11.386 5.25988C11.5691 4.98579 11.6669 4.66356 11.6669 4.33392C11.6663 3.89205 11.4906 3.46842 11.1781 3.15597C10.8657 2.84352 10.4421 2.66776 10.0002 2.66724ZM10.0002 5.33393C9.8024 5.33393 9.60905 5.27528 9.4446 5.1654C9.28015 5.05551 9.15198 4.89933 9.07629 4.71661C9.0006 4.53388 8.9808 4.33281 9.01938 4.13883C9.05797 3.94484 9.15321 3.76666 9.29307 3.6268C9.43292 3.48695 9.6111 3.39171 9.80509 3.35312C9.99907 3.31454 10.2001 3.33434 10.3829 3.41003C10.5656 3.48572 10.7218 3.61389 10.8317 3.77834C10.9415 3.94279 11.0002 4.13614 11.0002 4.33392C10.9999 4.59905 10.8944 4.85324 10.707 5.04071C10.5195 5.22818 10.2653 5.33364 10.0002 5.33393Z" fill="#605E5C" stroke="#605E5C" stroke-width="0.3" stroke-linecap="round" stroke-linejoin="round"/>
<path d="M17.3335 9.66707C17.4219 9.66707 17.5067 9.63195 17.5692 9.56944C17.6317 9.50693 17.6668 9.42214 17.6668 9.33373V8.33372H18.6668C18.7552 8.33372 18.84 8.29861 18.9025 8.23609C18.965 8.17358 19.0002 8.08879 19.0002 8.00039V6.66704C19.0002 6.66441 18.9987 6.66228 18.9987 6.65964C18.998 6.61918 18.9899 6.57917 18.9749 6.54161C18.9713 6.53284 18.9651 6.52604 18.9608 6.51764C18.9426 6.47647 18.9138 6.44083 18.8774 6.41431C18.8663 6.40306 18.8543 6.39266 18.8416 6.38317L10.1748 1.04979C10.1223 1.01755 10.0618 1.00049 10.0002 1.00049C9.93854 1.00049 9.87809 1.01755 9.82555 1.04979L1.1588 6.38317C1.14612 6.39264 1.13416 6.40302 1.123 6.41424C1.11125 6.42309 1.10011 6.43274 1.08967 6.44311C1.06958 6.46551 1.05268 6.49056 1.03943 6.51757C1.03513 6.52597 1.0289 6.53281 1.0253 6.54161C1.01024 6.57915 1.00217 6.61913 1.0015 6.65958C1.00143 6.66221 1 6.66441 1 6.66704V8.00039C1 8.08879 1.03512 8.17358 1.09763 8.23609C1.16014 8.29861 1.24493 8.33372 1.33334 8.33372H2.33335V9.33373C2.33335 9.42214 2.36846 9.50693 2.43098 9.56944C2.49349 9.63195 2.57828 9.66707 2.66668 9.66707H3.00002V15.6671H2.66668C2.57828 15.6671 2.49349 15.7022 2.43098 15.7648C2.36846 15.8273 2.33335 15.9121 2.33335 16.0005V17.0005H1.33334C1.24493 17.0005 1.16014 17.0356 1.09763 17.0981C1.03512 17.1606 1 17.2454 1 17.3338V18.6672C1 18.7556 1.03512 18.8403 1.09763 18.9029C1.16014 18.9654 1.24493 19.0005 1.33334 19.0005H18.6668C18.7552 19.0005 18.84 18.9654 18.9025 18.9029C18.965 18.8403 19.0002 18.7556 19.0002 18.6672V17.3338C19.0002 17.2454 18.965 17.1606 18.9025 17.0981C18.84 17.0356 18.7552 17.0005 18.6668 17.0005H17.6668V16.0005C17.6668 15.9121 17.6317 15.8273 17.5692 15.7648C17.5067 15.7022 17.4219 15.6671 17.3335 15.6671H17.0001V9.66707H17.3335ZM17.0001 9.0004H14.3335V8.33372H17.0001V9.0004ZM14.0001 15.6671C13.9117 15.6671 13.8269 15.7022 13.7644 15.7648C13.7019 15.8273 13.6668 15.9121 13.6668 16.0005V17.0005H12.0001V16.0005C12.0001 15.9121 11.965 15.8273 11.9025 15.7648C11.84 15.7022 11.7552 15.6671 11.6668 15.6671H11.3334V9.66707H11.6668C11.7552 9.66707 11.84 9.63195 11.9025 9.56944C11.965 9.50693 12.0001 9.42214 12.0001 9.33373V8.33372H13.6668V9.33373C13.6668 9.42214 13.7019 9.50693 13.7644 9.56944C13.8269 9.63195 13.9117 9.66707 14.0001 9.66707H14.3335V15.6671H14.0001ZM6.33338 17.0005V16.0005C6.33338 15.9121 6.29826 15.8273 6.23575 15.7648C6.17324 15.7022 6.08845 15.6671 6.00005 15.6671H5.66671V9.66707H6.00005C6.08845 9.66707 6.17324 9.63195 6.23575 9.56944C6.29826 9.50693 6.33338 9.42214 6.33338 9.33373V8.33372H8.00006V9.33373C8.00006 9.42214 8.03518 9.50693 8.0977 9.56944C8.16021 9.63195 8.24499 9.66707 8.3334 9.66707H8.66674V15.6671H8.3334C8.24499 15.6671 8.16021 15.7022 8.0977 15.7648C8.03518 15.8273 8.00006 15.9121 8.00006 16.0005V17.0005H6.33338ZM10.6668 15.6671H9.33341V9.66707H10.6668V15.6671ZM11.0001 9.0004H8.66674V8.33372H11.3334V9.0004H11.0001ZM8.66674 16.3338H11.3334V17.0005H8.66674V16.3338ZM10.0001 1.72493L17.4891 6.33371H2.51108L10.0001 1.72493ZM1.66667 7.00038H18.3335V7.66705H1.66667V7.00038ZM5.66671 8.33372V9.0004H3.00002V8.33372H5.66671ZM3.66669 9.66707H5.00004V15.6671H3.66669V9.66707ZM3.00002 16.3338H5.66671V17.0005H3.00002V16.3338ZM18.3335 18.3338H1.66667V17.6671H18.3335V18.3338ZM14.3335 17.0005V16.3338H17.0001V17.0005H14.3335ZM16.3335 15.6671H15.0001V9.66707H16.3335V15.6671Z" fill="#605E5C" stroke="#605E5C" stroke-width="0.3" stroke-linecap="round" stroke-linejoin="round"/>
</svg>
