<svg width="20" height="20" viewBox="0 0 20 20" fill="none" xmlns="http://www.w3.org/2000/svg">
<path d="M8.40323 4.83862H3.46774C3.01423 4.83862 2.64516 5.20769 2.64516 5.6612V8.83801L1.88811 9.59478C1.31532 10.1676 1 10.929 1 11.7393C1 11.9054 1.01398 12.0732 1.04113 12.2377L1.46777 14.7965C1.52673 15.151 1.62434 15.5009 1.75869 15.8363L2.09677 16.6819V17.9999H5.93548V16.6819L6.12468 16.2086C6.36323 15.6131 6.48387 14.9854 6.48387 14.3435C6.48387 14.2149 6.47894 14.0863 6.46906 13.9583L6.40024 13.0644H8.40323C8.85674 13.0644 9.22581 12.6954 9.22581 12.2418V5.6612C9.22581 5.20769 8.85674 4.83862 8.40323 4.83862ZM4.83871 10.4752C4.65144 10.5983 4.50858 10.7867 4.45127 11.017L4.29032 11.66V5.38701H4.83871V10.4752ZM3.19355 13.014C3.27965 13.0447 3.37123 13.0644 3.46774 13.0644H3.83105C3.77018 13.2059 3.70602 13.3458 3.63719 13.4831C3.59744 13.5632 3.5171 13.6128 3.42771 13.6128C3.29884 13.6128 3.19355 13.5078 3.19355 13.3787V13.014ZM3.19355 5.6612C3.19355 5.51012 3.31639 5.38701 3.46774 5.38701H3.74194V12.516H3.46774C3.31639 12.516 3.19355 12.3929 3.19355 12.2418V5.6612ZM5.3871 17.4515H2.64516V16.9031H5.3871V17.4515ZM5.6155 16.0052L5.47566 16.3548H2.5566L2.26787 15.6328C2.14832 15.3339 2.06113 15.0222 2.00876 14.7066L1.58211 12.1478C1.55963 12.0132 1.54839 11.8758 1.54839 11.7393C1.54839 11.0757 1.80668 10.4516 2.27582 9.98249L2.64516 9.61343V12.2418V13.3787C2.64516 13.8102 2.99613 14.1612 3.42771 14.1612C3.72576 14.1612 3.99392 13.9956 4.12773 13.7285C4.4074 13.1689 4.62594 12.578 4.77729 11.9718L4.98294 11.1497C5.02434 10.9855 5.17131 10.8709 5.34048 10.8709C5.5316 10.8709 5.69282 11.0203 5.70763 11.2109L5.92232 14.0005C5.9311 14.1146 5.93548 14.2292 5.93548 14.3435C5.93548 14.9155 5.82773 15.4746 5.6155 16.0052ZM8.67742 12.2418C8.67742 12.3929 8.55458 12.516 8.40323 12.516H6.35802L6.25437 11.1689C6.21927 10.7102 5.84226 10.3507 5.3871 10.3272V5.38701H8.40323C8.55458 5.38701 8.67742 5.51012 8.67742 5.6612V12.2418Z" fill="#605E5C" stroke="#605E5C" stroke-width="0.3"/>
<path d="M6.48389 7.58071H8.12905V5.93555H6.48389V7.58071ZM7.03227 6.48393H7.58066V7.03232H7.03227V6.48393Z" fill="#605E5C" stroke="#605E5C" stroke-width="0.3"/>
<path d="M8.12895 11.4194H7.58057V11.9678H8.12895V11.4194Z" fill="#605E5C" stroke="#605E5C" stroke-width="0.3"/>
<path d="M8.12895 10.3225H7.58057V10.8709H8.12895V10.3225Z" fill="#605E5C" stroke="#605E5C" stroke-width="0.3"/>
<path d="M8.12895 9.22583H7.58057V9.77422H8.12895V9.22583Z" fill="#605E5C" stroke="#605E5C" stroke-width="0.3"/>
<path d="M7.03227 9.22583H6.48389V11.9678H7.03227V9.22583Z" fill="#605E5C" stroke="#605E5C" stroke-width="0.3"/>
<path d="M16.9032 4.31802V1H10.8709V4.31802C10.2461 4.44552 9.77417 4.99911 9.77417 5.66129V16.629C9.77417 17.385 10.3892 18 11.1451 18H16.629C17.385 18 18 17.385 18 16.629V5.66129C18 4.99939 17.5281 4.44552 16.9032 4.31802ZM16.3548 1.54839V4.29032H11.4193V1.54839H16.3548ZM12.5161 4.83871H15.258V5.1129C15.258 5.26398 15.1352 5.3871 14.9838 5.3871H12.7903C12.6389 5.3871 12.5161 5.26398 12.5161 5.1129V4.83871ZM11.1451 4.83871H11.9677V5.1129C11.9677 5.56642 12.3368 5.93548 12.7903 5.93548H14.9838C15.4374 5.93548 15.8064 5.56642 15.8064 5.1129V4.83871H16.629C17.0825 4.83871 17.4516 5.20777 17.4516 5.66129V10.1855L17.1228 10.4323C16.6419 10.7928 16.3548 11.367 16.3548 11.9677V17.4516H11.4193V11.9677C11.4193 11.367 11.1323 10.7928 10.6516 10.4323L10.3226 10.1855V5.66129C10.3226 5.20777 10.6916 4.83871 11.1451 4.83871ZM10.3226 16.629V10.871C10.6658 11.1284 10.8709 11.5384 10.8709 11.9677V17.4012C10.5526 17.2876 10.3226 16.986 10.3226 16.629ZM16.9032 17.4012V11.9677C16.9032 11.5386 17.1083 11.1287 17.4516 10.8712V16.629C17.4516 16.986 17.2215 17.2876 16.9032 17.4012Z" fill="#605E5C" stroke="#605E5C" stroke-width="0.3"/>
<path d="M11.4192 9.77421H16.3547C16.6572 9.77421 16.9031 9.52826 16.9031 9.22582V7.03227C16.9031 6.72984 16.6572 6.48389 16.3547 6.48389H11.4192C11.1168 6.48389 10.8708 6.72984 10.8708 7.03227V9.22582C10.8708 9.52826 11.1168 9.77421 11.4192 9.77421ZM11.4192 7.03227H16.3547L16.355 9.22582H11.4192V7.03227Z" fill="#605E5C" stroke="#605E5C" stroke-width="0.3"/>
<path d="M13.6128 13.0645H13.0645V13.6128H13.6128V13.0645Z" fill="#605E5C" stroke="#605E5C" stroke-width="0.3"/>
<path d="M15.8064 13.0645H15.2581V13.6128H15.8064V13.0645Z" fill="#605E5C" stroke="#605E5C" stroke-width="0.3"/>
<path d="M12.5162 13.0645H11.9678V13.6128H12.5162V13.0645Z" fill="#605E5C" stroke="#605E5C" stroke-width="0.3"/>
<path d="M14.7098 13.0645H14.1614V13.6128H14.7098V13.0645Z" fill="#605E5C" stroke="#605E5C" stroke-width="0.3"/>
<path d="M14.7098 11.9678H14.1614V12.5162H14.7098V11.9678Z" fill="#605E5C" stroke="#605E5C" stroke-width="0.3"/>
<path d="M13.6128 11.9678H13.0645V12.5162H13.6128V11.9678Z" fill="#605E5C" stroke="#605E5C" stroke-width="0.3"/>
<path d="M15.8064 11.9678H15.2581V12.5162H15.8064V11.9678Z" fill="#605E5C" stroke="#605E5C" stroke-width="0.3"/>
<path d="M12.5162 11.9678H11.9678V12.5162H12.5162V11.9678Z" fill="#605E5C" stroke="#605E5C" stroke-width="0.3"/>
<path d="M13.6128 14.1614H13.0645V14.7098H13.6128V14.1614Z" fill="#605E5C" stroke="#605E5C" stroke-width="0.3"/>
<path d="M14.7098 14.1614H14.1614V14.7098H14.7098V14.1614Z" fill="#605E5C" stroke="#605E5C" stroke-width="0.3"/>
<path d="M12.5162 14.1614H11.9678V14.7098H12.5162V14.1614Z" fill="#605E5C" stroke="#605E5C" stroke-width="0.3"/>
<path d="M15.8064 14.1614H15.2581V14.7098H15.8064V14.1614Z" fill="#605E5C" stroke="#605E5C" stroke-width="0.3"/>
<path d="M15.8064 15.2581H15.2581V15.8064H15.8064V15.2581Z" fill="#605E5C" stroke="#605E5C" stroke-width="0.3"/>
<path d="M13.6128 15.2581H13.0645V15.8064H13.6128V15.2581Z" fill="#605E5C" stroke="#605E5C" stroke-width="0.3"/>
<path d="M14.7098 15.2581H14.1614V15.8064H14.7098V15.2581Z" fill="#605E5C" stroke="#605E5C" stroke-width="0.3"/>
<path d="M12.5162 15.2581H11.9678V15.8064H12.5162V15.2581Z" fill="#605E5C" stroke="#605E5C" stroke-width="0.3"/>
<path d="M15.8065 2.09668H11.9678V2.64507H15.8065V2.09668Z" fill="#605E5C" stroke="#605E5C" stroke-width="0.3"/>
<path d="M15.8064 3.1936H15.2581V3.74199H15.8064V3.1936Z" fill="#605E5C" stroke="#605E5C" stroke-width="0.3"/>
<path d="M14.7097 3.1936H11.9678V3.74199H14.7097V3.1936Z" fill="#605E5C" stroke="#605E5C" stroke-width="0.3"/>
</svg>
