<svg width="20" height="20" viewBox="0 0 20 20" fill="none" xmlns="http://www.w3.org/2000/svg">
<path d="M18.9942 9.38815L15.5718 3.31822C15.4907 3.17396 15.3556 3.06782 15.1962 3.02316C15.0368 2.97849 14.8662 2.99895 14.7219 3.08004L5.47284 8.29501C5.38457 8.34488 5.30972 8.41541 5.2547 8.50057C5.19967 8.58572 5.16613 8.68295 5.15694 8.78391H1.6243C1.54222 8.78358 1.46089 8.7995 1.385 8.83076C1.30911 8.86201 1.24015 8.90799 1.18212 8.96602C1.12408 9.02406 1.07811 9.09301 1.04685 9.16891C1.01559 9.2448 0.999673 9.32613 1.00001 9.4082V10.7521H12.8666V9.4082C12.8669 9.32613 12.851 9.2448 12.8197 9.16891C12.7885 9.09301 12.7425 9.02406 12.6845 8.96602C12.6264 8.90799 12.5575 8.86201 12.4816 8.83076C12.4057 8.7995 12.3244 8.78358 12.2423 8.78391H10.6402L16.0657 5.72513L18.2771 9.64639L12.8666 12.6976V11.7474H1.00001V16.3757C0.999673 16.4578 1.01559 16.5391 1.04685 16.615C1.07811 16.6909 1.12408 16.7598 1.18212 16.8179C1.24015 16.8759 1.30911 16.9219 1.385 16.9531C1.46089 16.9844 1.54222 17.0003 1.6243 17H12.2423C12.3244 17.0003 12.4057 16.9844 12.4816 16.9531C12.5575 16.9219 12.6264 16.8759 12.6845 16.8179C12.7425 16.7598 12.7885 16.6909 12.8197 16.615C12.851 16.5391 12.8669 16.4578 12.8666 16.3757V13.5576L18.756 10.2381C18.8277 10.1981 18.8907 10.1444 18.9415 10.08C18.9923 10.0156 19.0299 9.94172 19.052 9.86271C19.0742 9.7837 19.0805 9.70109 19.0705 9.61964C19.0606 9.53819 19.0346 9.45952 18.9942 9.38815ZM8.61436 8.78391H6.13976L14.9801 3.79961L15.5768 4.85764L8.61436 8.78391ZM4.88867 15.7564C4.88867 15.783 4.8781 15.8085 4.85929 15.8273C4.84049 15.8461 4.81498 15.8567 4.78838 15.8567H2.11571C2.08911 15.8567 2.0636 15.8461 2.04479 15.8273C2.02599 15.8085 2.01542 15.783 2.01542 15.7564V15.0043C2.01541 14.9774 2.0259 14.9517 2.04464 14.9325C2.06337 14.9132 2.08888 14.9021 2.11571 14.9015H4.78838C4.81521 14.9021 4.84071 14.9132 4.85945 14.9325C4.87819 14.9517 4.88867 14.9774 4.88867 15.0043V15.7564Z" fill="#605E5C" stroke="#605E5C" stroke-width="0.5" stroke-linecap="round" stroke-linejoin="round"/>
<path d="M14.7138 10.6548L17.0418 9.34199C17.09 9.31478 17.1071 9.25361 17.0799 9.20537L16.7043 8.53929C16.6771 8.49104 16.6159 8.47399 16.5676 8.5012L14.2396 9.81403C14.1914 9.84124 14.1743 9.9024 14.2015 9.95065L14.5772 10.6167C14.6044 10.665 14.6655 10.682 14.7138 10.6548Z" fill="#605E5C" stroke="#605E5C" stroke-width="0.3" stroke-linecap="round" stroke-linejoin="round"/>
</svg>
