<svg width="18" height="20" viewBox="0 0 18 20" fill="none" xmlns="http://www.w3.org/2000/svg">
<path d="M6.85693 13.7329C6.85693 14.7838 7.16516 15.811 7.74264 16.6848C8.32012 17.5585 9.14091 18.2395 10.1012 18.6417C11.0615 19.0438 12.1182 19.1491 13.1377 18.944C14.1572 18.739 15.0936 18.233 15.8286 17.4899C16.5636 16.7469 17.0641 15.8001 17.2669 14.7695C17.4697 13.7388 17.3656 12.6705 16.9678 11.6996C16.5701 10.7288 15.8965 9.89894 15.0322 9.31512C14.1679 8.73129 13.1518 8.41968 12.1124 8.41968C10.719 8.42114 9.38311 8.9814 8.39783 9.97751C7.41255 10.9736 6.85838 12.3242 6.85693 13.7329ZM12.1124 9.34275C12.9713 9.34275 13.8108 9.60023 14.5249 10.0826C15.239 10.565 15.7956 11.2507 16.1243 12.0529C16.453 12.8551 16.539 13.7378 16.3714 14.5894C16.2039 15.441 15.7903 16.2232 15.183 16.8372C14.5757 17.4512 13.8019 17.8693 12.9596 18.0387C12.1172 18.2081 11.2441 18.1212 10.4506 17.7889C9.65716 17.4566 8.97896 16.8939 8.50181 16.1719C8.02466 15.45 7.76998 14.6012 7.76998 13.7329C7.77094 12.5689 8.22876 11.4528 9.04292 10.6297C9.85707 9.80658 10.961 9.34373 12.1124 9.34275Z" fill="#605E5C" stroke="#605E5C" stroke-width="0.5"/>
<path d="M6.05535 0.953857C3.57005 0.953857 0.893005 1.5557 0.893005 2.8757V13.4726C0.893005 14.7649 3.37283 15.3077 5.49657 15.3834H5.51301C5.63408 15.3856 5.75107 15.3391 5.83822 15.2541C5.92538 15.1691 5.97557 15.0526 5.97775 14.9302C5.97992 14.8078 5.93392 14.6895 5.84984 14.6014C5.76577 14.5133 5.65052 14.4625 5.52944 14.4603C3.01127 14.3717 1.82614 13.7089 1.80605 13.4726V11.9422C2.71909 12.4222 4.20005 12.6714 5.67188 12.7065H5.68283C5.80391 12.7079 5.9206 12.6607 6.00725 12.5752C6.09389 12.4897 6.14338 12.3729 6.14483 12.2505C6.14629 12.1281 6.09958 12.0101 6.01499 11.9225C5.93041 11.8349 5.81487 11.7849 5.69379 11.7834C3.06605 11.7188 1.83161 11.0449 1.80605 10.7902V9.31324C2.80127 9.8357 4.46666 10.0812 6.05535 10.0812C6.28727 10.0812 6.51918 10.0812 6.74561 10.0665C6.80557 10.0638 6.86441 10.0492 6.91879 10.0236C6.97317 9.99791 7.02201 9.96168 7.06254 9.91693C7.10307 9.87219 7.13448 9.81981 7.15499 9.7628C7.17549 9.70578 7.18469 9.64524 7.18205 9.58463C7.17941 9.52402 7.16499 9.46453 7.13961 9.40955C7.11423 9.35457 7.07839 9.30519 7.03413 9.26422C6.98988 9.22325 6.93807 9.19149 6.88167 9.17076C6.82528 9.15003 6.76539 9.14073 6.70544 9.1434C6.49361 9.15263 6.27448 9.15817 6.05535 9.15817C3.31622 9.15817 1.83709 8.45847 1.80605 8.1594V6.67693C2.80127 7.1994 4.46666 7.44493 6.05535 7.44493C7.64405 7.44493 9.31309 7.19017 10.3047 6.67693V7.32124C10.3047 7.44365 10.3528 7.56104 10.4384 7.6476C10.524 7.73416 10.6401 7.78278 10.7612 7.78278C10.8823 7.78278 10.9984 7.73416 11.084 7.6476C11.1696 7.56104 11.2177 7.44365 11.2177 7.32124V2.89047C11.2177 1.5557 8.54066 0.953857 6.05535 0.953857ZM1.82614 2.84063C1.82847 2.83237 1.83152 2.82434 1.83527 2.81663C1.84532 2.80295 1.85631 2.79 1.86814 2.77786C1.87554 2.76761 1.88346 2.75775 1.89187 2.74832C1.90648 2.73355 1.9284 2.71693 1.94666 2.70217L1.98135 2.67447C2.00509 2.65601 2.03614 2.6394 2.06535 2.62093L2.1037 2.59693C2.14022 2.57663 2.18222 2.55447 2.22422 2.53232L2.25892 2.51386L2.39222 2.45478L2.44701 2.43078L2.62961 2.36247L2.66796 2.3477C3.04885 2.22139 3.43903 2.1257 3.83483 2.06155H3.87135C3.98822 2.04124 4.10874 2.02278 4.23657 2.00617H4.24935C4.35527 1.9914 4.46848 1.98032 4.5817 1.9674H4.6584C4.77527 1.95632 4.89944 1.94709 5.02361 1.93786H5.09666L5.33588 1.92678C5.56779 1.9157 5.80883 1.90832 6.06631 1.90832C6.67257 1.90626 7.27831 1.94449 7.87961 2.02278C9.44092 2.20186 10.2809 2.65232 10.3047 2.8757C10.2736 3.17478 8.79083 3.87447 6.05535 3.87447C5.80335 3.87447 5.56596 3.87447 5.33588 3.85601L5.08753 3.84309H5.04918C4.91222 3.83386 4.77709 3.82278 4.64927 3.80986H4.59083C4.47214 3.79693 4.35344 3.78401 4.24205 3.76924C4.13066 3.75447 4.0357 3.7397 3.93709 3.72309L3.86405 3.71201C2.53466 3.4757 1.82614 3.08063 1.80605 2.8757C1.8111 2.86312 1.81786 2.85132 1.82614 2.84063ZM10.3047 5.51386C10.2736 5.81293 8.79083 6.51263 6.05535 6.51263C3.31988 6.51263 1.83709 5.81293 1.80605 5.51386V4.03693C2.80127 4.5594 4.46666 4.80493 6.05535 4.80493C7.64405 4.80493 9.31309 4.55201 10.3047 4.02955V5.51386Z" fill="#605E5C" stroke="#605E5C" stroke-width="0.5"/>
<path d="M12.0102 14.1833C12.8593 14.379 12.8593 14.7372 12.8593 14.8479C12.8593 15.2965 12.4722 15.5015 12.1124 15.5015C11.9652 15.5016 11.8213 15.4577 11.6988 15.3752C11.5763 15.2927 11.4806 15.1754 11.424 15.0381C11.3749 14.9289 11.2856 14.8433 11.1751 14.7995C11.0646 14.7557 10.9416 14.7571 10.8321 14.8034C10.7227 14.8497 10.6353 14.9374 10.5887 15.0477C10.542 15.158 10.5397 15.2824 10.5822 15.3944C10.678 15.6262 10.8244 15.8333 11.0103 16.0001C11.1961 16.167 11.4168 16.2893 11.6559 16.3581V16.6461C11.6559 16.7685 11.704 16.8859 11.7896 16.9724C11.8752 17.059 11.9914 17.1076 12.1124 17.1076C12.2335 17.1076 12.3496 17.059 12.4352 16.9724C12.5209 16.8859 12.569 16.7685 12.569 16.6461V16.3673C12.9108 16.2907 13.2165 16.0983 13.4354 15.8219C13.6543 15.5456 13.7731 15.2019 13.7723 14.8479C13.7723 14.3975 13.5696 13.5962 12.2147 13.2824C11.3674 13.0867 11.3674 12.7285 11.3674 12.6178C11.3674 12.1692 11.7545 11.9642 12.1143 11.9642C12.2615 11.9641 12.4054 12.008 12.5279 12.0905C12.6504 12.173 12.7461 12.2903 12.8027 12.4276C12.8518 12.5368 12.9411 12.6224 13.0516 12.6662C13.1621 12.71 13.2851 12.7086 13.3946 12.6623C13.504 12.6159 13.5914 12.5283 13.638 12.418C13.6847 12.3077 13.687 12.1833 13.6445 12.0713C13.5483 11.839 13.4014 11.6317 13.2148 11.4649C13.0283 11.298 12.8069 11.1759 12.5671 11.1076V10.8141C12.5671 10.6917 12.519 10.5743 12.4334 10.4877C12.3478 10.4012 12.2317 10.3525 12.1106 10.3525C11.9895 10.3525 11.8734 10.4012 11.7878 10.4877C11.7022 10.5743 11.6541 10.6917 11.6541 10.8141V11.1076C11.3124 11.1843 11.0069 11.3768 10.7884 11.6532C10.5698 11.9295 10.4513 12.2732 10.4525 12.627C10.4525 13.0682 10.6552 13.8768 12.0102 14.1833Z" fill="#605E5C" stroke="#605E5C" stroke-width="0.5"/>
</svg>
