<svg width="20" height="20" viewBox="0 0 20 20" fill="none" xmlns="http://www.w3.org/2000/svg">
<path d="M6.56735 4.9391C6.95676 4.73304 7.37579 4.66674 7.78377 4.66672C8.25606 4.6667 8.80456 4.82037 9.24762 5.18C9.71144 5.55647 10.0267 6.13407 10.0267 6.8878C10.0267 7.75391 9.40883 8.22413 9.06049 8.48923C9.03342 8.50983 9.00797 8.52919 8.98457 8.54741C8.60359 8.84397 8.45668 9.00244 8.45668 9.3317C8.45668 9.69981 8.15543 9.99822 7.78381 9.99822C7.41219 9.99822 7.11094 9.69981 7.11094 9.3317C7.11094 8.32396 7.74904 7.81377 8.15308 7.49927C8.6136 7.1408 8.68097 7.06095 8.68097 6.8878C8.68097 6.53495 8.54766 6.33526 8.39468 6.21108C8.22094 6.07007 7.98443 5.99975 7.78385 5.99976C7.51896 5.99977 7.3369 6.04321 7.20146 6.11488C7.07277 6.18298 6.93659 6.30256 6.80531 6.54243C6.62819 6.86603 6.21977 6.98614 5.89308 6.81069C5.56639 6.63525 5.44513 6.23068 5.62225 5.90708C5.8588 5.47488 6.17121 5.14873 6.56735 4.9391Z" fill="#605E5C"/>
<path d="M7.78396 12.6644C8.27949 12.6644 8.68119 12.2665 8.68119 11.7757C8.68119 11.2848 8.27949 10.8869 7.78396 10.8869C7.28844 10.8869 6.88674 11.2848 6.88674 11.7757C6.88674 12.2665 7.28844 12.6644 7.78396 12.6644Z" fill="#605E5C"/>
<path d="M7.78395 2C4.06779 2 1.05524 4.9841 1.05524 8.66518C1.05524 9.67196 1.28103 10.6281 1.68564 11.4853C1.45773 12.3722 1.2031 13.3612 1.03588 14.0104C0.826819 14.822 1.56467 15.5603 2.38498 15.365C3.05805 15.2048 4.0925 14.9588 5.01432 14.7412C5.85972 15.1198 6.79782 15.3304 7.78395 15.3304C11.5001 15.3304 14.5127 12.3463 14.5127 8.66518C14.5127 4.9841 11.5001 2 7.78395 2ZM2.40098 8.66518C2.40098 5.72032 4.81102 3.33304 7.78395 3.33304C10.7569 3.33304 13.1669 5.72032 13.1669 8.66518C13.1669 11.61 10.7569 13.9973 7.78395 13.9973C6.92202 13.9973 6.10921 13.7971 5.38856 13.4418L5.17018 13.3341L4.93287 13.39C4.10503 13.5853 3.1486 13.8124 2.4318 13.9829C2.61011 13.2905 2.84622 12.3732 3.05091 11.5762L3.11388 11.3311L2.99679 11.1063C2.61619 10.3756 2.40098 9.54625 2.40098 8.66518Z" fill="#605E5C"/>
<path d="M12.2698 17.9965C10.5029 17.9965 8.89512 17.3219 7.69454 16.2186C7.72432 16.2189 7.75414 16.2191 7.784 16.2191C8.42813 16.2191 9.05361 16.14 9.65107 15.9911C10.4262 16.4194 11.3192 16.6634 12.2698 16.6634C13.1317 16.6634 13.9445 16.4633 14.6652 16.1079L14.8835 16.0002L15.1209 16.0562C15.9476 16.2511 16.8839 16.4524 17.5783 16.5979C17.4214 15.9309 17.2072 15.0381 17.0028 14.2424L16.9398 13.9972L17.0569 13.7724C17.4375 13.0417 17.6527 12.2124 17.6527 11.3313C17.6527 9.45198 16.6712 7.79974 15.1883 6.85012C15.0282 6.20738 14.7851 5.59703 14.4709 5.0309C17.1061 5.93409 18.9985 8.41379 18.9985 11.3313C18.9985 12.3383 18.7726 13.2947 18.3678 14.152C18.5948 15.0478 18.8247 16.0182 18.9705 16.6433C19.1539 17.4297 18.4547 18.1416 17.654 17.9758C17.0016 17.8407 15.9766 17.6241 15.0402 17.4069C14.1946 17.7858 13.2562 17.9965 12.2698 17.9965Z" fill="#605E5C"/>
<path d="M6.56735 4.9391C6.95676 4.73304 7.37579 4.66674 7.78377 4.66672C8.25606 4.6667 8.80456 4.82037 9.24762 5.18C9.71144 5.55647 10.0267 6.13407 10.0267 6.8878C10.0267 7.75391 9.40883 8.22413 9.06049 8.48923C9.03342 8.50983 9.00797 8.52919 8.98457 8.54741C8.60359 8.84397 8.45668 9.00244 8.45668 9.3317C8.45668 9.69981 8.15543 9.99822 7.78381 9.99822C7.41219 9.99822 7.11094 9.69981 7.11094 9.3317C7.11094 8.32396 7.74904 7.81377 8.15308 7.49927C8.6136 7.1408 8.68097 7.06095 8.68097 6.8878C8.68097 6.53495 8.54766 6.33526 8.39468 6.21108C8.22094 6.07007 7.98443 5.99975 7.78385 5.99976C7.51896 5.99977 7.3369 6.04321 7.20146 6.11488C7.07277 6.18298 6.93659 6.30256 6.80531 6.54243C6.62819 6.86603 6.21977 6.98614 5.89308 6.81069C5.56639 6.63525 5.44513 6.23068 5.62225 5.90708C5.8588 5.47488 6.17121 5.14873 6.56735 4.9391Z" stroke="#605E5C" stroke-width="0.3"/>
<path d="M7.78396 12.6644C8.27949 12.6644 8.68119 12.2665 8.68119 11.7757C8.68119 11.2848 8.27949 10.8869 7.78396 10.8869C7.28844 10.8869 6.88674 11.2848 6.88674 11.7757C6.88674 12.2665 7.28844 12.6644 7.78396 12.6644Z" stroke="#605E5C" stroke-width="0.3"/>
<path d="M7.78395 2C4.06779 2 1.05524 4.9841 1.05524 8.66518C1.05524 9.67196 1.28103 10.6281 1.68564 11.4853C1.45773 12.3722 1.2031 13.3612 1.03588 14.0104C0.826819 14.822 1.56467 15.5603 2.38498 15.365C3.05805 15.2048 4.0925 14.9588 5.01432 14.7412C5.85972 15.1198 6.79782 15.3304 7.78395 15.3304C11.5001 15.3304 14.5127 12.3463 14.5127 8.66518C14.5127 4.9841 11.5001 2 7.78395 2ZM2.40098 8.66518C2.40098 5.72032 4.81102 3.33304 7.78395 3.33304C10.7569 3.33304 13.1669 5.72032 13.1669 8.66518C13.1669 11.61 10.7569 13.9973 7.78395 13.9973C6.92202 13.9973 6.10921 13.7971 5.38856 13.4418L5.17018 13.3341L4.93287 13.39C4.10503 13.5853 3.1486 13.8124 2.4318 13.9829C2.61011 13.2905 2.84622 12.3732 3.05091 11.5762L3.11388 11.3311L2.99679 11.1063C2.61619 10.3756 2.40098 9.54625 2.40098 8.66518Z" stroke="#605E5C" stroke-width="0.3"/>
<path d="M12.2698 17.9965C10.5029 17.9965 8.89512 17.3219 7.69454 16.2186C7.72432 16.2189 7.75414 16.2191 7.784 16.2191C8.42813 16.2191 9.05361 16.14 9.65107 15.9911C10.4262 16.4194 11.3192 16.6634 12.2698 16.6634C13.1317 16.6634 13.9445 16.4633 14.6652 16.1079L14.8835 16.0002L15.1209 16.0562C15.9476 16.2511 16.8839 16.4524 17.5783 16.5979C17.4214 15.9309 17.2072 15.0381 17.0028 14.2424L16.9398 13.9972L17.0569 13.7724C17.4375 13.0417 17.6527 12.2124 17.6527 11.3313C17.6527 9.45198 16.6712 7.79974 15.1883 6.85012C15.0282 6.20738 14.7851 5.59703 14.4709 5.0309C17.1061 5.93409 18.9985 8.41379 18.9985 11.3313C18.9985 12.3383 18.7726 13.2947 18.3678 14.152C18.5948 15.0478 18.8247 16.0182 18.9705 16.6433C19.1539 17.4297 18.4547 18.1416 17.654 17.9758C17.0016 17.8407 15.9766 17.6241 15.0402 17.4069C14.1946 17.7858 13.2562 17.9965 12.2698 17.9965Z" stroke="#605E5C" stroke-width="0.3"/>
</svg>
