<svg width="16" height="17" viewBox="0 0 16 17" fill="none" xmlns="http://www.w3.org/2000/svg">
<path id="&#240;&#159;&#142;&#168;Color" d="M9.01742 1.25863L14.5174 6.33556C14.825 6.61952 15 7.01912 15 7.43776V14.9999C15 15.5522 14.5523 15.9999 14 15.9999H10.5C9.94772 15.9999 9.5 15.5522 9.5 14.9999V10.4999H6.5V14.9999C6.5 15.5522 6.05228 15.9999 5.5 15.9999H2C1.44772 15.9999 1 15.5522 1 14.9999V7.43776C1 7.01912 1.17496 6.61952 1.48258 6.33556L6.98258 1.25863C7.55717 0.728242 8.44283 0.728242 9.01742 1.25863ZM8.33914 1.99344C8.14761 1.81664 7.85239 1.81664 7.66086 1.99344L2.16086 7.07036C2.05832 7.16501 2 7.29821 2 7.43776V14.9999H5.5V10.4999C5.5 9.94765 5.94772 9.49993 6.5 9.49993H9.5C10.0523 9.49993 10.5 9.94765 10.5 10.4999V14.9999H14V7.43776C14 7.29821 13.9417 7.16501 13.8391 7.07036L8.33914 1.99344Z" fill="#605E5C" stroke="#605E5C" stroke-width="0.5"/>
</svg>
