<svg width="20" height="20" viewBox="0 0 20 20" fill="none" xmlns="http://www.w3.org/2000/svg">
<path d="M10.0488 2.04883C14.4671 2.04883 18.0488 5.63055 18.0488 10.0488C18.0488 14.4671 14.4671 18.0488 10.0488 18.0488C5.63055 18.0488 2.04883 14.4671 2.04883 10.0488C2.04883 5.63055 5.63055 2.04883 10.0488 2.04883ZM10.0488 3.04883C6.18283 3.04883 3.04883 6.18283 3.04883 10.0488C3.04883 13.9148 6.18283 17.0488 10.0488 17.0488C13.9148 17.0488 17.0488 13.9148 17.0488 10.0488C17.0488 6.18283 13.9148 3.04883 10.0488 3.04883ZM10.0001 8.50011C10.2456 8.50011 10.4497 8.67699 10.4921 8.91024L10.5001 9.00011V13.5023C10.5001 13.7784 10.2763 14.0023 10.0001 14.0023C9.75465 14.0023 9.55051 13.8254 9.50817 13.5921L9.50011 13.5023V9.00011C9.50011 8.72397 9.72397 8.50011 10.0001 8.50011ZM10.0488 6.00011C10.463 6.00011 10.7988 6.3359 10.7988 6.75011C10.7988 7.16433 10.463 7.50011 10.0488 7.50011C9.63461 7.50011 9.29883 7.16433 9.29883 6.75011C9.29883 6.3359 9.63461 6.00011 10.0488 6.00011Z" fill="#605E5C" stroke="#605E5C" stroke-width="0.5"/>
</svg>
