<svg width="20" height="20" viewBox="0 0 20 20" fill="none" xmlns="http://www.w3.org/2000/svg">
<path d="M17 5.43919L12.6419 1H5.62838V9.31081C5.06081 9.39189 4.63514 9.61487 4.33108 9.95946C4.02703 10.3243 3.88514 10.7905 3.90541 11.2568V11.7027C3.78378 11.8446 3.72297 12.0473 3.72297 12.2297V12.9392C3.72297 13.1824 3.82432 13.4257 4.00676 13.5878C4.12838 14.0338 4.33108 14.4595 4.61486 14.8446V15.3716C4.61486 15.473 4.55405 15.5743 4.47297 15.6149L2.93243 16.4865C2.36486 16.8108 2 17.3986 2 18.0676V18.7973C2 18.8986 2.08108 19 2.2027 19H10.3311C10.4527 19 10.5338 18.9189 10.5338 18.7973V18.1081C10.5338 17.4595 10.1689 16.8311 9.58108 16.527H17V5.43919ZM12.7432 1.66892L16.4932 5.5H12.7432V1.66892ZM10.1689 18.0878V18.5743H2.40541V18.0676C2.40541 17.5608 2.68919 17.0946 3.11486 16.8514L4.69595 15.9797C4.91892 15.8581 5.06081 15.6351 5.06081 15.3716V14.7838C5.06081 14.7432 5.04054 14.7027 5.02027 14.6622C4.73649 14.2973 4.53378 13.8919 4.41216 13.4459C4.39189 13.4054 4.37162 13.3649 4.33108 13.3446C4.20946 13.2432 4.14865 13.1014 4.14865 12.9595V12.2297C4.14865 12.1081 4.18919 11.9865 4.27027 11.9054C4.31081 11.8649 4.33108 11.8243 4.33108 11.7635V11.2365V11.2162C4.31081 10.8514 4.41216 10.5068 4.65541 10.223C4.97973 9.85811 5.50676 9.67568 6.25676 9.67568C7.00676 9.67568 7.53378 9.85811 7.85811 10.223C8.08108 10.5068 8.2027 10.8514 8.18243 11.2162V11.2365V11.7635C8.18243 11.8041 8.2027 11.8649 8.24324 11.9054C8.32432 11.9865 8.36487 12.1081 8.36487 12.2297V12.9392C8.36487 13.1419 8.24324 13.3041 8.08108 13.3851C8.02027 13.4054 8 13.4459 7.97973 13.5068C7.85811 13.8514 7.69595 14.1959 7.47297 14.4797C7.43243 14.5405 7.39189 14.6014 7.35135 14.6419C7.33108 14.6824 7.31081 14.723 7.31081 14.7635V15.3716C7.31081 15.6351 7.4527 15.8784 7.69595 16L9.39865 16.8514C9.86486 17.0743 10.1689 17.5608 10.1689 18.0878ZM16.5946 16.1014H8.72973L7.83784 15.6554C7.73649 15.6149 7.67568 15.5135 7.67568 15.3919V14.8649L7.77703 14.7432C8 14.4392 8.18243 14.0946 8.30405 13.7297C8.58784 13.5676 8.75 13.2838 8.75 12.9595V12.2297C8.75 12.0473 8.68919 11.8446 8.56757 11.7027V11.2568C8.60811 10.7905 8.44595 10.3243 8.14189 9.95946C7.73649 9.49324 7.10811 9.27027 6.23649 9.27027C6.17568 9.27027 6.09459 9.27027 6.03378 9.27027V1.40541H12.3378V5.90541H16.5946V16.1014Z" fill="#605E5C" stroke="#605E5C"/>
</svg>
